<svg version="1" xmlns="http://www.w3.org/2000/svg" width="800" height="800" viewBox="0 0 600.000000 600.000000"><path d="M0 300v300h600V0H0v300zM151.5 24.4c47.9 8.1 77.9 27.7 95.4 62.4 16.5 32.8 18.2 87.7 3.8 126-9.1 24.3-26.8 43.7-50.6 55.7-9.8 5-23.3 9.7-34.2 12-20.1 4.3-26.7 4.7-86.1 5.2l-57.8.5V21.8l59.8.5c49.9.3 61.3.7 69.7 2.1zM544 49v27h-72v210l-31.2-.2-31.3-.3-.3-104.8L409 76h-72V22h207v27zM85 366.5V419h103l.2-52.3.3-52.2 31.3-.3 31.2-.2v264h-63V472H85v106H22V314h63v52.5zm323-4c19.2 28.9 32.7 48.2 33.3 47.6.5-.5 15.1-22.2 32.5-48.2l31.7-47.4 36.3-.3 36.2-.2v264h-63l-.2-86.2-.3-86.3-29.5 42.8-29.5 42.7h-31.1l-29-42.6-28.9-42.5-.3 86-.2 86.1h-63V446.7c0-72.3.3-131.7.7-132 .3-.4 16.7-.7 36.3-.7h35.7l32.3 48.5z"/><path d="M85 153.6v78.6l26.8-.5c30.5-.5 37.4-1.6 51.8-8.8 22.1-10.9 33.4-34.3 33.4-69.4 0-33.4-11-56.9-31.7-67.8C150.5 77.9 133.4 75 103 75H85v78.6z"/></svg>