<svg xmlns="http://www.w3.org/2000/svg" xmlns:xlink="http://www.w3.org/1999/xlink" viewBox="0 0 441.78 512.63"><defs><style>.cls-1{fill:none;}.cls-2{fill:#6e7643;}.cls-3{fill:#888527;}.cls-4{fill:#a79137;}.cls-5{fill:#9c9433;}.cls-6{fill:#beac3a;}.cls-7{fill:#3e452b;}.cls-8{fill:#6e7c42;}.cls-9{fill:#63722f;}.cls-10{fill:#adba8e;}.cls-11{fill:#5b692d;}.cls-12{fill:#98935e;}.cls-13{fill:#4a5449;}.cls-14{fill:#566248;}.cls-15{fill:#353929;}.cls-16{fill:#838226;}.cls-17{fill:#616f42;}.cls-18{fill:#a0a45d;}.cls-19{fill:#6a722c;}.cls-20{fill:#4a542f;}.cls-21{fill:#464d25;}.cls-22{fill:#515c4e;}.cls-23{fill:#3c4130;}.cls-24{fill:#2e3222;}.cls-25{fill:#1a1c1a;}.cls-26{fill:#555e3e;}.cls-27{fill:#b7b23b;}.cls-28{fill:#303621;}.cls-29{fill:#778351;}.cls-30{fill:#5c6a30;}.cls-31{fill:#989b56;}.cls-32{fill:#242423;}.cls-33{fill:#4d5637;}.cls-34{fill:#566041;}.cls-35{fill:#6d7645;}.cls-36{fill:#97925d;}.cls-37{clip-path:url(#clip-path);}.cls-38{clip-path:url(#clip-path-3);}.cls-39{fill:#e3830b;}.cls-40{fill:#e24a2f;}.cls-41{fill:#e77439;}.cls-42{fill:#b32746;}.cls-43{fill:#e05d7b;}.cls-44{fill:#c05a7a;}.cls-45{fill:#ef7772;}.cls-46{fill:#6c606c;}.cls-47{fill:#cf3b33;}.cls-48{fill:#8a3e4a;}.cls-49{fill:#716d7e;}.cls-50{fill:#672a39;}.cls-51{fill:#553945;}.cls-52{fill:#ec6469;}.cls-53{fill:#a295a9;}.cls-54{fill:#8a4d66;}.cls-55{fill:#d83c2b;}.cls-56{fill:#d8526b;}.cls-57{fill:#983041;}.cls-58{fill:#ec646a;}.cls-59{fill:#b37d98;}.cls-60{fill:#b55366;}.cls-61{fill:#df4c32;}.cls-62{fill:#df494b;}.cls-63{fill:#55414a;}.cls-64{fill:#766b79;}.cls-65{fill:#675872;}.cls-66{fill:#c05973;}.cls-67{fill:#ce7490;}.cls-68{fill:#624154;}.cls-69{fill:#5e566c;}.cls-70{fill:#5f5057;}.cls-71{fill:#5c4f5a;}.cls-72{clip-path:url(#clip-path-5);}.cls-73{clip-path:url(#clip-path-7);}.cls-74{clip-path:url(#clip-path-9);}.cls-75{clip-path:url(#clip-path-11);}.cls-76{clip-path:url(#clip-path-13);}.cls-77{clip-path:url(#clip-path-15);}.cls-78{clip-path:url(#clip-path-17);}.cls-79{clip-path:url(#clip-path-19);}.cls-80{fill:#443e3c;}.cls-81{fill:#b1aeb8;}.cls-82{fill:#c4c7ce;}.cls-83{fill:#3f383a;}.cls-84{fill:#a0a0ac;}.cls-85{fill:#3a271d;}.cls-86{fill:#342621;}.cls-87{fill:#7a6769;}.cls-88{fill:#322a27;}.cls-89{fill:#3e3028;}.cls-90{fill:#564735;}.cls-91{fill:#938166;}.cls-92{fill:#907f3e;}.cls-93{fill:#aa9245;}.cls-94{fill:#77662a;}.cls-95{fill:#b8a363;}.cls-96{fill:#271b18;}.cls-97{fill:#6c5a59;}.cls-98{fill:#38302e;}.cls-99{fill:#786619;}.cls-100{fill:#9a8675;}.cls-101{fill:#483a38;}.cls-102{fill:#887775;}.cls-103{fill:#d0c4cd;}.cls-104{fill:#2a231f;}.cls-105{fill:#9e1a23;}.cls-106{fill:#140f13;}.cls-107{fill:#9b8d73;}.cls-108{fill:#a4904f;}.cls-109{fill:#4f453d;}.cls-110{fill:#b19981;}.cls-111{fill:#9d8a79;}.cls-112{fill:#a92221;}.cls-113{fill:#614f47;}.cls-114{fill:#dbbfc6;}.cls-115{fill:#83716a;}.cls-116{fill:#8f292f;}.cls-117{fill:#d398a4;}.cls-118{fill:#56461a;}.cls-119{fill:#493a19;}.cls-120{fill:#ae9c39;}.cls-121{fill:#9f9032;}.cls-122{fill:#6f5f1e;}.cls-123{fill:#70695a;}.cls-124{fill:#715f4e;}.cls-125{fill:#9e8870;}.cls-126{fill:#8a7a69;}.cls-127{fill:#b9a15e;}.cls-128{fill:#ceb154;}.cls-129{fill:#ae9768;}.cls-130{fill:#b19b7e;}.cls-131{fill:#887d4a;}.cls-132{fill:#b39767;}.cls-133{fill:#927f61;}.cls-134{fill:#503b1b;}.cls-135{fill:#8a8184;}.cls-136{fill:#aa9eac;}.cls-137{fill:#c7d5e9;}.cls-138{fill:#b9a794;}.cls-139{fill:#b39e55;}.cls-140{fill:#776c35;}.cls-141{fill:#3c321b;}.cls-142{fill:#c7af44;}.cls-143{fill:#cbb652;}.cls-144{fill:#f9f2bf;}.cls-145{fill:#a38d40;}.cls-146{fill:#c6c8e6;}.cls-147{fill:#d3deef;}.cls-148{fill:#b1a6b2;}.cls-149{fill:#40351b;}.cls-150{fill:#5b4419;}.cls-151{fill:#796c38;}.cls-152{fill:#c2b13b;}.cls-153{fill:#6d603a;}.cls-154{fill:#9e9744;}.cls-155{fill:#a19474;}.cls-156{fill:#b3a990;}.cls-157{fill:#cabb86;}.cls-158{fill:#5f5419;}.cls-159{fill:#3d3435;}.cls-160{fill:#464042;}.cls-161{fill:#9d8e6d;}.cls-162{fill:#e1ce73;}.cls-163{fill:#b2a25e;}.cls-164{fill:#ccc488;}.cls-165{fill:#a29163;}.cls-166{fill:#d7c992;}.cls-167{fill:#3a3121;}.cls-168{fill:#7d786b;}.cls-169{fill:#f1eaca;}.cls-170{fill:#fdfae8;}.cls-171{fill:#403a39;}.cls-172{fill:#2f2a1a;}.cls-173{fill:#2e261c;}.cls-174{fill:#1d1712;}.cls-175{fill:#2e2922;}</style><clipPath id="clip-path"><rect class="cls-1" x="93.75" y="-31.01" width="450.62" height="450.62"/></clipPath><clipPath id="clip-path-3"><rect class="cls-1" x="211.62" y="5.21" width="151.62" height="391.15"/></clipPath><clipPath id="clip-path-5"><rect class="cls-1" x="269.62" y="231.88" width="98.47" height="40.69"/></clipPath><clipPath id="clip-path-7"><rect class="cls-1" x="302.87" y="133.81" width="90.96" height="39.88"/></clipPath><clipPath id="clip-path-9"><rect class="cls-1" x="315.9" y="82.22" width="72.72" height="36.21"/></clipPath><clipPath id="clip-path-11"><rect class="cls-1" x="223.42" y="108.22" width="79.45" height="36.21"/></clipPath><clipPath id="clip-path-13"><rect class="cls-1" x="-45.94" y="59.62" width="479.88" height="479.88" transform="translate(-38.61 28.88) rotate(-7.75)"/></clipPath><clipPath id="clip-path-15"><rect class="cls-1" x="64.74" y="108.45" width="99.69" height="284.71" transform="translate(-32.76 17.73) rotate(-7.75)"/></clipPath><clipPath id="clip-path-17"><rect class="cls-1" x="32.52" y="195.98" width="77.44" height="38.56" transform="translate(-28.36 11.57) rotate(-7.75)"/></clipPath><clipPath id="clip-path-19"><rect class="cls-1" x="126.7" y="210.62" width="84.61" height="38.56" transform="translate(-29.45 24.88) rotate(-7.75)"/></clipPath></defs><title>Flax with bird</title><g id="Back"><polygon class="cls-2" points="267.44 317.47 272.54 406.61 233.54 366 267.44 317.47"/><polygon class="cls-3" points="435.42 362.36 338.88 358.76 363.04 324.57 435.42 362.36"/><polygon class="cls-4" points="412.19 304.08 332.85 277.81 323.2 244.57 412.19 304.08"/><polygon class="cls-5" points="393.73 159.03 291.87 244.81 293.48 194.95 393.73 159.03"/><polygon class="cls-6" points="338.88 358.76 385.69 437.28 329.24 387.31 338.88 358.76"/><polygon class="cls-7" points="371.08 481.38 295.06 459.69 295.46 429.53 371.08 481.38"/><polygon class="cls-8" points="363.04 324.57 338.88 358.76 287.29 362.51 363.04 324.57"/><polygon class="cls-3" points="338.88 358.76 329.24 387.31 272.54 406.61 338.88 358.76"/><polygon class="cls-9" points="338.88 358.76 272.54 406.61 287.29 362.51 338.88 358.76"/><polygon class="cls-10" points="323.2 244.57 332.85 277.81 267.44 317.47 323.2 244.57"/><polygon class="cls-11" points="332.85 277.81 287.29 362.51 267.44 317.47 332.85 277.81"/><polygon class="cls-12" points="329.24 387.31 295.46 429.53 272.54 406.61 329.24 387.31"/><polygon class="cls-13" points="295.06 459.69 303.1 507.94 262.75 481.21 295.06 459.69"/><polygon class="cls-14" points="295.46 429.53 295.06 459.69 242.95 467.44 295.46 429.53"/><polygon class="cls-7" points="295.46 429.53 242.95 467.44 272.54 406.61 295.46 429.53"/><polygon class="cls-15" points="295.06 459.69 262.75 481.21 242.95 467.44 295.06 459.69"/><polygon class="cls-16" points="293.48 194.95 291.87 244.81 270.93 208.78 293.48 194.95"/><polygon class="cls-17" points="270.93 208.78 291.87 244.81 267.44 317.47 270.93 208.78"/><polygon class="cls-18" points="287.82 109.46 270.93 208.78 223.89 257.83 287.82 109.46"/><polygon class="cls-19" points="267.44 317.47 287.29 362.51 272.54 406.61 267.44 317.47"/><polygon class="cls-20" points="233.54 366 272.54 406.61 219.5 425.49 233.54 366"/><polygon class="cls-21" points="272.54 406.61 242.95 467.44 219.5 452.16 272.54 406.61"/><polygon class="cls-22" points="272.54 406.61 219.5 452.16 219.5 425.49 272.54 406.61"/><polygon class="cls-9" points="270.93 208.78 267.44 317.47 233.54 366 270.93 208.78"/><polygon class="cls-20" points="270.93 208.78 233.54 366 223.89 257.83 270.93 208.78"/><polygon class="cls-15" points="262.75 481.21 236.71 512.63 222.73 491.97 262.75 481.21"/><polygon class="cls-23" points="262.75 481.21 222.73 491.97 242.95 467.44 262.75 481.21"/><polygon class="cls-24" points="242.95 467.44 222.73 491.97 219.5 452.16 242.95 467.44"/><polygon class="cls-25" points="222.73 491.97 236.71 512.63 209.6 512.63 222.73 491.97"/><polygon class="cls-26" points="223.89 257.83 233.54 366 200.16 379.67 223.89 257.83"/><polygon class="cls-23" points="233.54 366 219.5 425.49 200.16 379.67 233.54 366"/><polygon class="cls-27" points="229.11 82.12 223.89 257.83 203.38 232.5 229.11 82.12"/><polygon class="cls-19" points="203.38 232.5 223.89 257.83 200.16 379.67 203.38 232.5"/><polygon class="cls-13" points="219.5 452.16 222.73 491.97 208.25 465.3 208.04 464.93 207.98 464.8 207.88 464.64 219.5 452.16"/><polygon class="cls-15" points="208.25 465.3 222.73 491.97 209.6 512.63 207.88 464.64 207.98 464.8 208.04 464.93 208.25 465.3"/><polygon class="cls-13" points="219.5 425.49 219.5 452.16 207.88 464.64 219.5 425.49"/><polygon class="cls-28" points="200.16 379.67 219.5 425.49 184.42 431.94 200.16 379.67"/><polygon class="cls-24" points="219.5 425.49 207.88 464.64 184.42 431.94 219.5 425.49"/><polygon class="cls-25" points="207.88 464.64 209.6 512.63 193.68 481.64 207.88 464.64"/><polygon class="cls-7" points="193.68 481.64 209.6 512.63 178.4 512.63 193.68 481.64"/><polygon class="cls-14" points="184.42 431.94 207.88 464.64 163.85 445.07 184.42 431.94"/><polygon class="cls-24" points="207.88 464.64 193.68 481.64 163.85 445.07 207.88 464.64"/><polygon class="cls-2" points="190.24 205.97 203.38 232.5 200.16 379.67 190.24 205.97"/><polygon class="cls-29" points="190.24 205.97 200.16 379.67 167.72 237.06 190.24 205.97"/><polygon class="cls-18" points="167.72 237.06 200.16 379.67 151.51 279.15 167.72 237.06"/><polygon class="cls-30" points="151.51 279.15 200.16 379.67 132.88 304.61 151.51 279.15"/><polygon class="cls-23" points="132.88 304.61 200.16 379.67 163.56 400.31 132.88 304.61"/><polygon class="cls-21" points="200.16 379.67 184.42 431.94 163.56 400.31 200.16 379.67"/><polygon class="cls-21" points="163.85 445.07 193.68 481.64 157.24 469.74 163.85 445.07"/><polygon class="cls-7" points="193.68 481.64 178.4 512.63 157.24 469.74 193.68 481.64"/><polygon class="cls-31" points="124.3 91.77 190.24 205.97 167.72 237.06 124.3 91.77"/><polygon class="cls-22" points="163.56 400.31 184.42 431.94 163.85 445.07 163.56 400.31"/><polygon class="cls-3" points="112.11 150.48 167.72 237.06 151.51 279.15 112.11 150.48"/><polygon class="cls-28" points="163.56 400.31 163.85 445.07 141.31 422.55 163.56 400.31"/><polygon class="cls-32" points="156.17 468.95 123.38 444.78 163.85 445.07 157.24 469.74 156.17 468.95"/><polygon class="cls-33" points="163.85 445.07 123.38 444.78 141.31 422.55 163.85 445.07"/><polygon class="cls-12" points="132.88 304.61 163.56 400.31 116.03 344.53 132.88 304.61"/><polygon class="cls-34" points="163.56 400.31 141.31 422.55 90.67 355.54 163.56 400.31"/><polygon class="cls-13" points="156.17 468.95 62.63 468.95 123.38 444.78 156.17 468.95"/><polygon class="cls-3" points="151.51 279.15 132.88 304.61 100.44 272.71 151.51 279.15"/><polygon class="cls-35" points="90.67 355.54 141.31 422.55 77.12 372.43 90.67 355.54"/><polygon class="cls-22" points="141.31 422.55 123.38 444.78 78.34 410.63 141.31 422.55"/><polygon class="cls-8" points="132.88 304.61 116.03 344.53 35.61 334.35 132.88 304.61"/><polygon class="cls-12" points="132.88 304.61 10.1 307.82 100.44 272.71 132.88 304.61"/><polygon class="cls-7" points="123.38 444.78 66.17 430.01 78.34 410.63 123.38 444.78"/><polygon class="cls-36" points="90.67 355.54 77.12 372.43 34.9 380.88 90.67 355.54"/><polygon class="cls-22" points="78.34 410.63 66.17 430.01 6.34 450.73 78.34 410.63"/></g><g id="Layer_1" data-name="Layer 1"><g class="cls-37"><g class="cls-37"><g class="cls-38"><g class="cls-38"><polygon class="cls-39" points="356.66 9.39 360.9 24.38 356.34 22.9 356.66 9.39"/><polygon class="cls-40" points="363.24 22.81 361 37.61 355.07 36.7 361.96 24.99 363.24 22.81"/><polygon class="cls-41" points="356.34 22.9 360.9 24.38 352.01 34.34 356.34 22.9"/><polygon class="cls-42" points="345.76 5.21 351.65 14.7 348.53 19.44 345.76 5.21"/><polygon class="cls-43" points="351.65 14.7 350.47 28.13 348.53 19.44 351.65 14.7"/><polygon class="cls-44" points="361.01 37.61 347.09 46.02 355.07 36.7 361.01 37.61"/><polygon class="cls-39" points="338.7 9.94 347.71 22.58 344.06 24.55 338.7 9.94"/><polygon class="cls-45" points="347.71 22.58 348.56 31.48 344.06 24.55 347.71 22.58"/><polygon class="cls-46" points="350.47 28.13 352.01 34.34 350.48 33.5 350.47 28.13"/><polygon class="cls-47" points="355.07 36.71 347.09 46.02 346.63 44.41 355.07 36.71"/><polygon class="cls-48" points="350.48 33.5 352.01 34.34 349.51 35.28 350.48 33.5"/><polygon class="cls-49" points="352.01 34.34 346.63 44.4 345.62 41.31 352.01 34.34"/><polygon class="cls-50" points="352.01 34.34 345.62 41.31 349.51 35.28 352.01 34.34"/><polygon class="cls-51" points="348.56 31.48 350.48 33.5 349.51 35.28 348.56 31.48"/><polygon class="cls-41" points="336.57 19.54 345.44 33.43 339.2 31.48 336.57 19.54"/><polygon class="cls-40" points="339.2 31.48 345.44 33.43 342.07 38.85 339.2 31.48"/><polygon class="cls-52" points="345.44 33.43 345.62 41.31 342.07 38.85 345.44 33.43"/><polygon class="cls-53" points="345.62 41.31 346.63 44.4 342.01 46 345.62 41.31"/><polygon class="cls-54" points="346.63 44.4 347.09 46.02 339.58 56.56 346.63 44.4"/><polygon class="cls-46" points="346.63 44.4 339.58 56.56 342.01 46 346.63 44.4"/><polygon class="cls-51" points="342.01 46 339.58 56.56 338.55 50.88 342.01 46"/><polygon class="cls-55" points="345.26 51.57 343.62 61.11 341.7 58.31 345.26 51.57"/><polygon class="cls-42" points="329.7 26.64 339.56 42.69 332.57 38.94 329.7 26.64"/><polygon class="cls-56" points="332.57 38.94 339.56 42.69 338.55 50.88 332.57 38.94"/><polygon class="cls-54" points="338.55 50.88 339.58 56.56 334.46 58.44 338.55 50.88"/><polygon class="cls-57" points="341.71 58.31 343.62 61.11 335.33 68.17 341.71 58.31"/><polygon class="cls-49" points="339.58 56.56 335.33 68.17 332.14 65.82 339.58 56.56"/><polygon class="cls-50" points="339.58 56.56 332.14 65.82 334.46 58.44 339.58 56.56"/><polygon class="cls-58" points="330.24 41.43 336.15 51.88 331.33 53.37 330.24 41.43"/><polygon class="cls-59" points="336.15 51.88 334.46 58.44 331.33 53.37 336.15 51.88"/><polygon class="cls-56" points="316.84 37.93 328.2 51.88 320.3 49.97 316.84 37.93"/><polygon class="cls-60" points="328.2 51.88 332.15 65.82 327.05 61.18 328.2 51.88"/><polygon class="cls-61" points="328.2 51.88 327.05 61.18 320.3 49.97 328.2 51.88"/><polygon class="cls-46" points="332.15 65.82 335.33 68.17 326.95 79.05 332.15 65.82"/><polygon class="cls-51" points="332.15 65.82 326.95 79.05 326.14 73.22 332.15 65.82"/><polygon class="cls-40" points="319.05 54.51 324.38 62.4 321.02 69.28 320.97 69.29 319.05 54.51"/><polygon class="cls-57" points="324.38 62.4 326.14 73.22 321.02 69.28 324.38 62.4"/><polygon class="cls-62" points="310.3 49.2 319.04 54.51 320.97 69.29 310.3 49.2"/><polygon class="cls-63" points="326.14 73.22 326.95 79.05 318.66 85.7 326.14 73.22"/><polygon class="cls-64" points="326.95 79.05 315.9 116.93 315.3 102.78 326.95 79.05"/><polygon class="cls-65" points="326.95 79.05 315.3 102.78 318.66 85.7 326.95 79.05"/><polygon class="cls-66" points="319.72 70.61 319.76 70.65 311.68 68.71 306.3 57.84 319.72 70.61"/><polygon class="cls-67" points="319.76 70.65 318.66 85.7 315.68 76.48 319.76 70.65"/><polygon class="cls-59" points="319.76 70.65 315.68 76.48 311.68 68.71 319.76 70.65"/><polygon class="cls-63" points="315.3 102.78 315.9 116.93 302.85 140.74 315.3 102.78"/><polygon class="cls-68" points="315.9 116.93 302.87 173.69 302.85 140.74 315.9 116.93"/><polygon class="cls-65" points="302.85 140.74 302.87 173.69 291.29 186.12 302.85 140.74"/><polygon class="cls-64" points="302.87 173.69 269.62 272.57 272.4 237.48 302.87 173.69"/><polygon class="cls-69" points="302.87 173.69 272.4 237.48 291.29 186.12 302.87 173.69"/><polygon class="cls-68" points="272.4 237.48 269.62 272.57 237.4 319.3 272.4 237.48"/><polygon class="cls-70" points="269.62 272.57 231.91 378.57 237.4 319.3 269.62 272.57"/><polygon class="cls-71" points="237.4 319.3 231.91 378.57 211.62 396.37 237.4 319.3"/></g></g><g class="cls-72"><g class="cls-72"><polygon class="cls-39" points="368.09 245.43 359.18 258.2 357.43 253.73 368.09 245.43"/><polygon class="cls-40" points="361.87 259.02 349.01 266.66 345.95 261.5 359.37 259.41 361.87 259.02"/><polygon class="cls-41" points="357.43 253.73 359.18 258.2 345.84 257.63 357.43 253.73"/><polygon class="cls-42" points="364.42 234.35 360.81 244.91 355.17 245.5 364.42 234.35"/><polygon class="cls-43" points="360.81 244.91 349.67 252.51 355.17 245.5 360.81 244.91"/><polygon class="cls-44" points="349.01 266.66 333.68 261.22 345.95 261.5 349.01 266.66"/><polygon class="cls-39" points="356.3 231.88 352.22 246.86 348.38 245.28 356.3 231.88"/><polygon class="cls-45" points="352.22 246.86 345.86 253.15 348.38 245.28 352.22 246.86"/><polygon class="cls-46" points="349.67 252.51 345.84 257.63 345.52 255.92 349.67 252.51"/><polygon class="cls-47" points="345.95 261.5 333.68 261.22 334.64 259.85 345.95 261.5"/><polygon class="cls-48" points="345.52 255.92 345.84 257.63 343.53 256.3 345.52 255.92"/><polygon class="cls-49" points="345.84 257.63 334.64 259.85 336.4 257.1 345.84 257.63"/><polygon class="cls-50" points="345.84 257.63 336.4 257.1 343.53 256.3 345.84 257.63"/><polygon class="cls-51" points="345.86 253.15 345.52 255.92 343.53 256.3 345.86 253.15"/><polygon class="cls-41" points="347.52 236.31 342.38 251.97 339.94 245.91 347.52 236.31"/><polygon class="cls-40" points="339.94 245.91 342.38 251.97 336.05 252.8 339.94 245.91"/><polygon class="cls-52" points="342.38 251.97 336.4 257.1 336.05 252.8 342.38 251.97"/><polygon class="cls-53" points="336.4 257.1 334.64 259.85 330.48 257.28 336.4 257.1"/><polygon class="cls-54" points="334.64 259.85 333.68 261.22 320.77 262.09 334.64 259.85"/><polygon class="cls-46" points="334.64 259.85 320.77 262.09 330.48 257.28 334.64 259.85"/><polygon class="cls-51" points="330.48 257.28 320.77 262.09 324.51 257.69 330.48 257.28"/><polygon class="cls-55" points="328.23 263.32 319.82 268.1 320.77 264.84 328.23 263.32"/><polygon class="cls-42" points="337.67 235.5 331.5 253.29 329.97 245.5 337.67 235.5"/><polygon class="cls-56" points="329.97 245.5 331.5 253.29 324.51 257.7 329.97 245.5"/><polygon class="cls-54" points="324.51 257.7 320.77 262.09 316.08 259.32 324.51 257.7"/><polygon class="cls-57" points="320.77 264.84 319.82 268.1 309.09 266.15 320.77 264.84"/><polygon class="cls-49" points="320.77 262.09 309.09 266.15 308.9 262.2 320.77 262.09"/><polygon class="cls-50" points="320.77 262.09 308.9 262.2 316.08 259.32 320.77 262.09"/><polygon class="cls-58" points="326.57 245.28 322.22 256.47 318.02 253.69 326.57 245.28"/><polygon class="cls-59" points="322.22 256.47 316.09 259.32 318.02 253.69 322.22 256.47"/><polygon class="cls-56" points="320.78 232.69 317.19 250.32 313.66 243 320.78 232.69"/><polygon class="cls-60" points="317.19 250.32 308.9 262.2 309.26 255.32 317.19 250.32"/><polygon class="cls-61" points="317.19 250.32 309.26 255.32 313.66 243 317.19 250.32"/><polygon class="cls-46" points="308.9 262.2 309.09 266.15 295.37 266.56 308.9 262.2"/><polygon class="cls-51" points="308.9 262.2 295.37 266.56 299.37 262.24 308.9 262.2"/><polygon class="cls-40" points="309.35 244.9 306.64 254.03 299.17 255.78 299.13 255.75 309.35 244.9"/><polygon class="cls-57" points="306.64 254.03 299.37 262.24 299.17 255.78 306.64 254.03"/><polygon class="cls-62" points="307.92 234.76 309.35 244.9 299.13 255.75 307.92 234.76"/><polygon class="cls-63" points="299.37 262.24 295.37 266.56 284.97 264.36 299.37 262.24"/><polygon class="cls-65" points="295.37 266.56 269.62 272.57 284.97 264.36 295.37 266.56"/><polygon class="cls-66" points="297.32 255.61 297.31 255.68 293.7 248.19 298.7 237.14 297.32 255.61"/><polygon class="cls-67" points="297.31 255.68 284.97 264.36 290.22 256.21 297.31 255.68"/><polygon class="cls-59" points="297.31 255.68 290.22 256.21 293.7 248.19 297.31 255.68"/></g></g><g class="cls-73"><g class="cls-73"><polygon class="cls-65" points="328.62 167.67 302.87 173.69 318.21 165.48 328.62 167.67"/><polygon class="cls-51" points="342.14 163.32 328.62 167.67 332.61 163.36 342.14 163.32"/><polygon class="cls-61" points="350.43 151.44 342.5 156.44 346.9 144.11 350.43 151.44"/><polygon class="cls-49" points="354.01 163.21 342.33 167.27 342.14 163.32 354.01 163.21"/><polygon class="cls-57" points="339.88 155.14 332.61 163.36 332.41 156.9 339.88 155.14"/><polygon class="cls-49" points="379.08 158.75 367.89 160.97 369.64 158.22 379.08 158.75"/><polygon class="cls-51" points="357.75 158.82 363.72 158.4 354.01 163.21 357.75 158.82"/><polygon class="cls-40" points="373.19 147.02 375.63 153.09 369.29 153.93 373.19 147.02"/><polygon class="cls-42" points="384.58 151.75 393.83 140.6 390.22 151.16 384.58 151.75"/><polygon class="cls-43" points="379.08 158.75 384.58 151.75 390.22 151.16 379.08 158.75"/><polygon class="cls-42" points="370.91 136.62 364.73 154.41 363.21 146.62 370.91 136.62"/><polygon class="cls-58" points="359.81 146.4 355.46 157.59 351.26 154.81 359.81 146.4"/><polygon class="cls-67" points="330.56 156.79 318.21 165.48 323.46 157.32 330.56 156.79"/><polygon class="cls-66" points="330.56 156.73 330.56 156.79 326.94 149.31 331.95 138.26 330.56 156.73"/><polygon class="cls-59" points="355.46 157.59 349.32 160.44 351.26 154.81 355.46 157.59"/><polygon class="cls-62" points="341.16 135.89 342.59 146.02 332.38 156.86 341.16 135.89"/><polygon class="cls-53" points="369.64 158.22 367.89 160.97 363.72 158.4 369.64 158.22"/><polygon class="cls-40" points="342.59 146.02 339.88 155.14 332.41 156.9 332.38 156.86 342.59 146.02"/><polygon class="cls-46" points="367.89 160.97 354.01 163.21 363.72 158.4 367.89 160.97"/><polygon class="cls-59" points="330.56 156.79 323.46 157.32 326.94 149.31 330.56 156.79"/><polygon class="cls-50" points="354.01 163.21 342.14 163.32 349.32 160.44 354.01 163.21"/><polygon class="cls-56" points="354.02 133.81 350.43 151.44 346.9 144.11 354.02 133.81"/><polygon class="cls-63" points="332.61 163.36 328.62 167.67 318.21 165.48 332.61 163.36"/><polygon class="cls-52" points="375.63 153.09 369.64 158.22 369.29 153.93 375.63 153.09"/><polygon class="cls-54" points="357.75 158.82 354.01 163.21 349.32 160.44 357.75 158.82"/><polygon class="cls-46" points="342.14 163.32 342.33 167.27 328.62 167.67 342.14 163.32"/><polygon class="cls-41" points="380.76 137.43 375.63 153.09 373.19 147.02 380.76 137.43"/><polygon class="cls-56" points="363.21 146.62 364.73 154.41 357.75 158.82 363.21 146.62"/><polygon class="cls-60" points="350.43 151.44 342.14 163.32 342.5 156.44 350.43 151.44"/></g></g><g class="cls-74"><g class="cls-74"><polygon class="cls-50" points="366.37 107.98 356.92 107.45 364.06 106.64 366.37 107.98"/><polygon class="cls-48" points="366.37 107.98 364.06 106.64 366.04 106.27 366.37 107.98"/><polygon class="cls-61" points="337.71 100.67 329.78 105.67 334.19 93.34 337.71 100.67"/><polygon class="cls-49" points="341.29 112.44 329.62 116.5 329.43 112.55 341.29 112.44"/><polygon class="cls-41" points="377.96 104.08 379.71 108.55 366.37 107.98 377.96 104.08"/><polygon class="cls-42" points="384.95 84.7 381.34 95.27 375.69 95.86 384.95 84.7"/><polygon class="cls-51" points="366.39 103.49 366.04 106.27 364.06 106.64 366.39 103.49"/><polygon class="cls-55" points="348.76 113.67 340.34 118.44 341.3 115.18 348.76 113.67"/><polygon class="cls-44" points="369.54 117.01 354.21 111.57 366.48 111.85 369.54 117.01"/><polygon class="cls-47" points="355.17 110.2 366.48 111.85 354.21 111.57 355.17 110.2"/><polygon class="cls-54" points="354.21 111.57 341.29 112.44 355.17 110.2 354.21 111.57"/><polygon class="cls-60" points="337.71 100.67 329.43 112.55 329.78 105.67 337.71 100.67"/><polygon class="cls-39" points="388.62 95.77 379.71 108.55 377.96 104.08 388.62 95.77"/><polygon class="cls-52" points="362.91 102.32 356.92 107.45 356.58 103.15 362.91 102.32"/><polygon class="cls-56" points="341.31 83.03 337.71 100.67 334.19 93.34 341.31 83.03"/><polygon class="cls-58" points="347.1 95.63 342.75 106.82 338.54 104.04 347.1 95.63"/><polygon class="cls-59" points="342.75 106.82 336.6 109.67 338.54 104.04 342.75 106.82"/><polygon class="cls-54" points="345.04 108.05 341.29 112.44 336.61 109.67 345.04 108.05"/><polygon class="cls-43" points="381.34 95.27 370.2 102.86 375.69 95.86 381.34 95.27"/><polygon class="cls-41" points="368.05 86.66 362.91 102.32 360.47 96.25 368.05 86.66"/><polygon class="cls-57" points="341.3 115.18 340.34 118.44 329.62 116.5 341.3 115.18"/><polygon class="cls-51" points="351.01 107.63 341.29 112.44 345.04 108.05 351.01 107.63"/><polygon class="cls-39" points="376.83 82.22 372.75 97.2 368.9 95.63 376.83 82.22"/><polygon class="cls-46" points="329.43 112.55 329.62 116.5 315.9 116.9 329.43 112.55"/><polygon class="cls-46" points="370.2 102.86 366.37 107.98 366.04 106.27 370.2 102.86"/><polygon class="cls-53" points="356.92 107.45 355.17 110.2 351.01 107.63 356.92 107.45"/><polygon class="cls-56" points="350.49 95.85 352.01 103.64 345.04 108.05 350.49 95.85"/><polygon class="cls-40" points="382.4 109.36 369.54 117.01 366.48 111.85 379.89 109.76 382.4 109.36"/><polygon class="cls-46" points="355.17 110.2 341.29 112.44 351.01 107.63 355.17 110.2"/><polygon class="cls-40" points="360.47 96.25 362.91 102.32 356.58 103.15 360.47 96.25"/><polygon class="cls-49" points="366.37 107.98 355.17 110.2 356.92 107.45 366.37 107.98"/><polygon class="cls-50" points="341.29 112.44 329.43 112.55 336.61 109.67 341.29 112.44"/><polygon class="cls-45" points="372.75 97.2 366.39 103.49 368.9 95.63 372.75 97.2"/><polygon class="cls-42" points="358.19 85.85 352.02 103.64 350.49 95.85 358.19 85.85"/></g></g><g class="cls-75"><g class="cls-75"><polygon class="cls-42" points="223.42 110.7 227.03 121.26 232.67 121.85 223.42 110.7"/><polygon class="cls-43" points="227.03 121.26 238.17 128.85 232.67 121.85 227.03 121.26"/><polygon class="cls-39" points="231.54 108.22 235.62 123.2 239.46 121.62 231.54 108.22"/><polygon class="cls-45" points="235.62 123.2 241.97 129.49 239.46 121.62 235.62 123.2"/><polygon class="cls-46" points="238.17 128.85 242 133.97 242.32 132.26 238.17 128.85"/><polygon class="cls-48" points="242.32 132.26 242 133.97 244.31 132.64 242.32 132.26"/><polygon class="cls-49" points="242 133.97 253.19 136.19 251.44 133.45 242 133.97"/><polygon class="cls-50" points="242 133.97 251.44 133.45 244.31 132.64 242 133.97"/><polygon class="cls-51" points="241.97 129.49 242.32 132.26 244.31 132.64 241.97 129.49"/><polygon class="cls-41" points="240.32 112.65 245.45 128.31 247.89 122.24 240.32 112.65"/><polygon class="cls-40" points="247.89 122.24 245.45 128.31 251.79 129.15 247.89 122.24"/><polygon class="cls-52" points="245.45 128.31 251.44 133.45 251.79 129.15 245.45 128.31"/><polygon class="cls-53" points="251.44 133.45 253.19 136.19 257.36 133.62 251.44 133.45"/><polygon class="cls-46" points="253.19 136.19 267.07 138.43 257.36 133.62 253.19 136.19"/><polygon class="cls-51" points="257.36 133.62 267.07 138.43 263.33 134.04 257.36 133.62"/><polygon class="cls-55" points="259.61 139.66 268.03 144.43 267.07 141.18 259.61 139.66"/><polygon class="cls-42" points="250.17 111.84 256.35 129.63 257.87 121.84 250.17 111.84"/><polygon class="cls-56" points="257.87 121.84 256.35 129.63 263.33 134.04 257.87 121.84"/><polygon class="cls-54" points="263.33 134.04 267.07 138.43 271.76 135.66 263.33 134.04"/><polygon class="cls-57" points="267.07 141.18 268.03 144.43 278.75 142.49 267.07 141.18"/><polygon class="cls-49" points="267.07 138.43 278.75 142.49 278.94 138.54 267.07 138.43"/><polygon class="cls-50" points="267.07 138.43 278.94 138.54 271.76 135.66 267.07 138.43"/><polygon class="cls-58" points="261.27 121.62 265.62 132.81 269.82 130.03 261.27 121.62"/><polygon class="cls-59" points="265.62 132.81 271.76 135.66 269.82 130.03 265.62 132.81"/><polygon class="cls-56" points="267.06 109.03 270.65 126.66 274.18 119.33 267.06 109.03"/><polygon class="cls-60" points="270.65 126.66 278.94 138.54 278.58 131.66 270.65 126.66"/><polygon class="cls-61" points="270.65 126.66 278.58 131.66 274.18 119.33 270.65 126.66"/><polygon class="cls-46" points="278.94 138.54 278.75 142.49 292.46 142.9 278.94 138.54"/><polygon class="cls-51" points="278.94 138.54 292.46 142.9 288.47 138.58 278.94 138.54"/><polygon class="cls-40" points="278.49 121.24 281.2 130.36 288.67 132.12 288.7 132.08 278.49 121.24"/><polygon class="cls-57" points="281.2 130.36 288.47 138.58 288.67 132.12 281.2 130.36"/><polygon class="cls-62" points="279.92 111.11 278.49 121.24 288.7 132.08 279.92 111.11"/><polygon class="cls-63" points="288.47 138.58 292.46 142.9 302.87 140.71 288.47 138.58"/></g></g></g></g><g class="cls-76"><g class="cls-76"><g class="cls-77"><g class="cls-77"><polygon class="cls-39" points="53.55 119.93 51.22 136.35 55.82 134.14 53.55 119.93"/><polygon class="cls-40" points="48.53 135.04 53.01 150.33 59.14 148.53 50.2 137.15 48.53 135.04"/><polygon class="cls-41" points="55.82 134.14 51.22 136.35 62.03 145.59 55.82 134.14"/><polygon class="cls-42" points="64.44 113.96 59.59 124.81 63.56 129.37 64.44 113.96"/><polygon class="cls-43" points="59.59 124.81 62.76 138.82 63.56 129.37 59.59 124.81"/><polygon class="cls-44" points="53.01 150.33 68.9 157.21 59.14 148.53 53.01 150.33"/><polygon class="cls-39" points="72.57 117.93 64.88 132.57 69.02 134.12 72.57 117.93"/><polygon class="cls-45" points="64.88 132.57 65.27 142.08 69.02 134.12 64.88 132.57"/><polygon class="cls-46" points="62.76 138.82 62.03 145.59 63.53 144.49 62.76 138.82"/><polygon class="cls-47" points="59.14 148.53 68.9 157.21 69.15 155.44 59.14 148.53"/><polygon class="cls-48" points="63.53 144.49 62.03 145.59 64.8 146.22 63.53 144.49"/><polygon class="cls-49" points="62.03 145.59 69.15 155.44 69.78 152.03 62.03 145.59"/><polygon class="cls-50" points="62.03 145.59 69.78 152.03 64.8 146.22 62.03 145.59"/><polygon class="cls-51" points="65.27 142.08 63.53 144.49 64.8 146.22 65.27 142.08"/><polygon class="cls-41" points="76.19 127.76 68.83 143.69 75.14 140.73 76.19 127.76"/><polygon class="cls-40" points="75.14 140.73 68.83 143.69 73.17 148.93 75.14 140.73"/><polygon class="cls-52" points="68.83 143.69 69.78 152.03 73.17 148.93 68.83 143.69"/><polygon class="cls-53" points="69.78 152.03 69.15 155.44 74.26 156.46 69.78 152.03"/><polygon class="cls-54" points="69.15 155.44 68.9 157.21 78.34 167.26 69.15 155.44"/><polygon class="cls-46" points="69.15 155.44 78.34 167.26 74.26 156.46 69.15 155.44"/><polygon class="cls-51" points="74.26 156.46 78.34 167.26 78.61 161.12 74.26 156.46"/><polygon class="cls-55" points="71.63 162.8 74.73 172.63 76.34 169.4 71.63 162.8"/><polygon class="cls-42" points="84.47 134.27 76.37 152.62 83.21 147.65 84.47 134.27"/><polygon class="cls-56" points="83.21 147.65 76.37 152.62 78.61 161.12 83.21 147.65"/><polygon class="cls-54" points="78.61 161.12 78.34 167.26 84.01 168.5 78.61 161.12"/><polygon class="cls-57" points="76.34 169.4 74.73 172.63 84.49 178.9 76.34 169.4"/><polygon class="cls-49" points="78.34 167.26 84.49 178.9 87.51 175.95 78.34 167.26"/><polygon class="cls-50" points="78.34 167.26 87.51 175.95 84.01 168.5 78.34 167.26"/><polygon class="cls-58" points="86.02 149.94 81.28 161.83 86.58 162.71 86.02 149.94"/><polygon class="cls-59" points="81.28 161.83 84.01 168.5 86.58 162.71 81.28 161.83"/><polygon class="cls-56" points="99.66 144.33 89.67 160.68 97.74 157.54 99.66 144.33"/><polygon class="cls-60" points="89.67 160.68 87.51 175.95 92.22 170.33 89.67 160.68"/><polygon class="cls-61" points="89.67 160.68 92.22 170.33 97.74 157.54 89.67 160.68"/><polygon class="cls-46" points="87.51 175.95 84.49 178.9 94.89 189.17 87.51 175.95"/><polygon class="cls-51" points="87.51 175.95 94.89 189.17 94.91 182.9 87.51 175.95"/><polygon class="cls-40" points="99.71 162.14 95.21 171.23 99.75 178.01 99.8 178.01 99.71 162.14"/><polygon class="cls-57" points="95.21 171.23 94.91 182.9 99.75 178.01 95.21 171.23"/><polygon class="cls-62" points="108.18 155.28 99.71 162.14 99.8 178.01 108.18 155.28"/><polygon class="cls-63" points="94.91 182.9 94.89 189.17 104.59 195 94.91 182.9"/><polygon class="cls-64" points="94.89 189.17 111.99 227.55 110.59 212.54 94.89 189.17"/><polygon class="cls-65" points="94.89 189.17 110.59 212.54 104.59 195 94.89 189.17"/><polygon class="cls-66" points="101.31 179.22 101.27 179.28 109.52 176.06 113.64 163.82 101.31 179.22"/><polygon class="cls-67" points="101.27 179.28 104.59 195 106.42 184.84 101.27 179.28"/><polygon class="cls-59" points="101.27 179.28 106.42 184.84 109.52 176.07 101.27 179.28"/><polygon class="cls-63" points="110.59 212.54 111.99 227.55 129.18 250.81 110.59 212.54"/><polygon class="cls-68" points="111.98 227.55 133.89 285.57 129.18 250.81 111.98 227.55"/><polygon class="cls-65" points="129.18 250.81 133.89 285.57 147.89 297.03 129.18 250.81"/><polygon class="cls-64" points="133.89 285.57 183.16 385.15 175.19 348.51 133.89 285.57"/><polygon class="cls-69" points="133.89 285.57 175.19 348.51 147.89 297.03 133.89 285.57"/></g></g><g class="cls-78"><g class="cls-78"><polygon class="cls-39" points="32.22 215.67 43.46 227.88 44.66 222.9 32.22 215.67"/><polygon class="cls-40" points="40.73 229.12 55.4 235.34 57.89 229.46 43.43 229.17 40.73 229.12"/><polygon class="cls-41" points="44.66 222.9 43.46 227.88 57.45 225.35 44.66 222.9"/><polygon class="cls-42" points="34.5 203.46 39.83 214.09 45.87 213.9 34.5 203.46"/><polygon class="cls-43" points="39.83 214.09 52.67 220.5 45.87 213.9 39.83 214.09"/><polygon class="cls-44" points="55.4 235.34 70.8 227.4 57.89 229.46 55.4 235.34"/><polygon class="cls-39" points="42.72 199.68 49.17 214.9 53 212.69 42.72 199.68"/><polygon class="cls-45" points="49.17 214.9 56.78 220.63 53 212.69 49.17 214.9"/><polygon class="cls-46" points="52.67 220.5 57.45 225.35 57.55 223.5 52.67 220.5"/><polygon class="cls-47" points="57.89 229.46 70.8 227.4 69.58 226.09 57.89 229.46"/><polygon class="cls-48" points="57.55 223.5 57.45 225.35 59.69 223.61 57.55 223.5"/><polygon class="cls-49" points="57.45 225.35 69.58 226.09 67.34 223.44 57.45 225.35"/><polygon class="cls-50" points="57.45 225.35 67.34 223.44 59.69 223.61 57.45 225.35"/><polygon class="cls-51" points="56.78 220.63 57.55 223.5 59.69 223.61 56.78 220.63"/><polygon class="cls-41" points="52.62 203.1 60.28 218.89 61.99 212.13 52.62 203.1"/><polygon class="cls-40" points="61.99 212.13 60.28 218.88 67.09 218.86 61.99 212.13"/><polygon class="cls-52" points="60.28 218.88 67.34 223.44 67.09 218.86 60.28 218.88"/><polygon class="cls-53" points="67.34 223.44 69.58 226.09 73.61 222.78 67.34 223.44"/><polygon class="cls-54" points="69.58 226.09 70.8 227.4 84.55 226.46 69.58 226.09"/><polygon class="cls-46" points="69.58 226.09 84.55 226.46 73.61 222.78 69.58 226.09"/><polygon class="cls-51" points="73.61 222.78 84.55 226.46 79.97 222.37 73.61 222.78"/><polygon class="cls-55" points="76.85 228.83 86.42 232.66 84.94 229.36 76.85 228.83"/><polygon class="cls-42" points="62.9 200.83 71.97 218.72 72.46 210.28 62.9 200.83"/><polygon class="cls-56" points="72.46 210.28 71.97 218.72 79.97 222.37 72.46 210.28"/><polygon class="cls-54" points="79.97 222.37 84.55 226.46 89.1 222.87 79.97 222.37"/><polygon class="cls-57" points="84.94 229.36 86.42 232.66 97.45 229.07 84.94 229.36"/><polygon class="cls-49" points="84.55 226.46 97.45 229.07 97.09 224.88 84.55 226.46"/><polygon class="cls-50" points="84.55 226.46 97.09 224.88 89.1 222.87 84.55 226.46"/><polygon class="cls-58" points="76.01 209.56 82.21 220.74 86.25 217.2 76.01 209.56"/><polygon class="cls-59" points="82.21 220.74 89.1 222.87 86.25 217.2 82.21 220.74"/><polygon class="cls-56" points="80.31 195.44 86.64 213.53 89.31 205.29 80.31 195.44"/><polygon class="cls-60" points="86.64 213.53 97.09 224.88 95.72 217.67 86.64 213.53"/><polygon class="cls-61" points="86.64 213.53 95.72 217.67 89.31 205.29 86.64 213.53"/><polygon class="cls-46" points="97.09 224.88 97.45 229.07 111.98 227.53 97.09 224.88"/></g></g><g class="cls-79"><g class="cls-79"><polygon class="cls-42" points="208.68 207.71 206.39 219.37 200.52 220.8 208.68 207.71"/><polygon class="cls-43" points="206.39 219.37 195.72 228.98 200.52 220.8 206.39 219.37"/><polygon class="cls-39" points="199.76 206.26 197.6 222.65 193.32 221.53 199.76 206.26"/><polygon class="cls-45" points="197.6 222.65 191.8 230.19 193.32 221.53 197.6 222.65"/><polygon class="cls-46" points="195.72 228.98 192.41 234.93 191.83 233.17 195.72 228.98"/><polygon class="cls-48" points="191.83 233.17 192.41 234.93 189.79 233.85 191.83 233.17"/><polygon class="cls-49" points="192.41 234.93 180.92 238.88 182.38 235.73 192.41 234.93"/><polygon class="cls-50" points="192.41 234.93 182.38 235.73 189.79 233.85 192.41 234.93"/><polygon class="cls-51" points="191.8 230.19 191.83 233.18 189.79 233.85 191.8 230.19"/><polygon class="cls-41" points="191.13 212.19 187.96 229.46 184.51 223.4 191.13 212.19"/><polygon class="cls-40" points="184.51 223.4 187.96 229.46 181.4 231.25 184.51 223.4"/><polygon class="cls-52" points="187.96 229.46 182.38 235.73 181.39 231.25 187.96 229.46"/><polygon class="cls-53" points="182.38 235.73 180.92 238.88 176.16 236.77 182.38 235.73"/><polygon class="cls-46" points="180.92 238.88 166.6 243.24 176.16 236.77 180.92 238.88"/><polygon class="cls-51" points="176.16 236.77 166.6 243.24 169.92 238.07 176.16 236.77"/><polygon class="cls-55" points="174.65 243.47 166.45 249.71 167 246.13 174.65 243.47"/><polygon class="cls-42" points="180.61 212.75 176.65 232.41 173.93 224.41 180.61 212.75"/><polygon class="cls-56" points="173.93 224.41 176.65 232.41 169.92 238.07 173.93 224.41"/><polygon class="cls-54" points="169.92 238.07 166.6 243.24 161.25 240.99 169.92 238.07"/><polygon class="cls-57" points="167 246.13 166.45 249.71 154.86 249.2 167 246.13"/><polygon class="cls-49" points="166.6 243.24 154.87 249.2 154.09 245.06 166.6 243.24"/><polygon class="cls-50" points="166.6 243.24 154.09 245.06 161.25 240.99 166.6 243.24"/><polygon class="cls-58" points="170.31 224.67 167.32 237.1 162.49 234.77 170.31 224.67"/><polygon class="cls-59" points="167.32 237.1 161.25 240.99 162.49 234.77 167.32 237.1"/><polygon class="cls-56" points="162.4 212.21 161.13 231.33 156.36 224.1 162.4 212.21"/><polygon class="cls-60" points="161.13 231.33 154.09 245.06 153.48 237.75 161.13 231.33"/><polygon class="cls-61" points="161.13 231.33 153.48 237.75 156.36 224.1 161.13 231.33"/><polygon class="cls-46" points="154.09 245.06 154.87 249.2 140.45 251.59 154.09 245.06"/><polygon class="cls-51" points="154.09 245.06 140.45 251.59 144.04 246.46 154.09 245.06"/><polygon class="cls-40" points="152.09 226.74 150.53 236.75 142.91 239.68 142.86 239.64 152.09 226.74"/><polygon class="cls-57" points="150.53 236.75 144.04 246.46 142.91 239.68 150.53 236.75"/><polygon class="cls-62" points="149.12 216.25 152.09 226.74 142.86 239.64 149.12 216.25"/><polygon class="cls-63" points="144.04 246.46 140.45 251.59 129.15 250.77 144.04 246.46"/></g></g></g></g></g><g id="Bird"><polygon class="cls-80" points="373.43 63.81 369.97 64.91 370.59 63.71 373.43 63.81"/><polygon class="cls-81" points="373.43 63.81 370.59 63.71 371.27 63.09 373.43 63.81"/><polygon class="cls-82" points="371.27 63.09 370.59 63.71 367.98 63.56 371.27 63.09"/><polygon class="cls-83" points="370.59 63.71 369.97 64.91 365.66 66.03 370.59 63.71"/><polygon class="cls-84" points="370.59 63.71 365.66 66.03 367.98 63.56 370.59 63.71"/><polygon class="cls-85" points="369.97 64.91 367.61 67.1 365.66 66.03 369.97 64.91"/><polygon class="cls-86" points="367.98 63.56 365.66 66.03 364.85 64.27 367.98 63.56"/><polygon class="cls-87" points="367.98 63.56 364.85 64.27 362.49 63.52 367.98 63.56"/><polygon class="cls-88" points="367.61 67.1 366.56 71.29 364.88 69.09 367.61 67.1"/><polygon class="cls-89" points="367.61 67.1 364.88 69.09 365.66 66.03 367.61 67.1"/><polygon class="cls-90" points="364.88 69.09 366.56 71.29 363.27 71.94 364.88 69.09"/><polygon class="cls-91" points="366.56 71.29 365.69 74.58 363.27 71.94 366.56 71.29"/><polygon class="cls-92" points="363.27 71.94 365.69 74.58 361.01 75.84 363.27 71.94"/><polygon class="cls-93" points="365.69 74.58 365.68 79.82 361.01 75.84 365.69 74.58"/><polygon class="cls-94" points="365.68 79.82 365.02 83.49 361.57 84.01 365.68 79.82"/><polygon class="cls-95" points="365.68 79.82 361.57 84.01 361.01 75.84 365.68 79.82"/><polygon class="cls-96" points="364.85 64.27 365.66 66.03 363.29 65.92 364.85 64.27"/><polygon class="cls-97" points="365.66 66.03 364.88 69.09 363.07 67.68 365.66 66.03"/><polygon class="cls-98" points="365.66 66.03 363.07 67.68 363.29 65.92 365.66 66.03"/><polygon class="cls-99" points="365.02 83.49 361.72 88.64 361.57 84.01 365.02 83.49"/><polygon class="cls-100" points="364.88 69.09 363.27 71.94 363.07 67.68 364.88 69.09"/><polygon class="cls-101" points="364.85 64.27 363.29 65.92 362.34 64.93 364.85 64.27"/><polygon class="cls-102" points="364.85 64.27 362.34 64.93 362.49 63.52 364.85 64.27"/><polygon class="cls-103" points="362.34 64.93 363.29 65.92 361.96 65.42 362.34 64.93"/><polygon class="cls-104" points="363.29 65.92 363.07 67.68 362.41 66.89 363.29 65.92"/><polygon class="cls-105" points="363.29 65.92 362.41 66.89 362.33 66.36 363.29 65.92"/><polygon class="cls-106" points="363.29 65.92 362.33 66.36 361.96 65.42 363.29 65.92"/><polygon class="cls-107" points="363.07 67.68 363.27 71.94 359.78 71.37 363.07 67.68"/><polygon class="cls-108" points="363.27 71.94 361.01 75.84 359.78 71.37 363.27 71.94"/><polygon class="cls-109" points="362.41 66.89 363.07 67.68 360.44 67.54 362.41 66.89"/><polygon class="cls-110" points="363.07 67.68 359.78 71.37 360.44 67.54 363.07 67.68"/><polygon class="cls-111" points="362.49 63.52 362.34 64.93 359.73 64.19 362.49 63.52"/><polygon class="cls-112" points="362.33 66.36 362.41 66.89 361.29 66.27 362.33 66.36"/><polygon class="cls-113" points="362.41 66.89 360.44 67.54 361.29 66.27 362.41 66.89"/><polygon class="cls-114" points="362.34 64.93 361.96 65.42 361.34 65.38 362.34 64.93"/><polygon class="cls-115" points="362.34 64.93 361.34 65.38 359.73 64.19 362.34 64.93"/><polygon class="cls-116" points="361.96 65.42 362.33 66.36 361.29 66.27 361.96 65.42"/><polygon class="cls-117" points="361.96 65.42 361.29 66.27 361.34 65.38 361.96 65.42"/><polygon class="cls-118" points="361.57 84.01 361.72 88.64 355.32 88.74 361.57 84.01"/><polygon class="cls-119" points="361.72 88.64 358.24 92.91 355.32 88.74 361.72 88.64"/><polygon class="cls-120" points="361.01 75.84 361.57 84.01 355.17 77.36 361.01 75.84"/><polygon class="cls-121" points="355.17 77.36 361.57 84.01 352.97 83.74 355.17 77.36"/><polygon class="cls-122" points="361.57 84.01 355.32 88.74 352.97 83.74 361.57 84.01"/><polygon class="cls-123" points="361.34 65.38 361.29 66.27 359.09 66.43 361.34 65.38"/><polygon class="cls-124" points="361.34 65.38 359.09 66.43 357.82 65.26 361.34 65.38"/><polygon class="cls-125" points="361.34 65.38 357.82 65.26 359.73 64.19 361.34 65.38"/><polygon class="cls-126" points="361.29 66.27 360.44 67.54 359.09 66.43 361.29 66.27"/><polygon class="cls-127" points="359.78 71.37 361.01 75.84 356.99 74.19 357 74.11 359.78 71.37"/><polygon class="cls-128" points="356.94 74.17 356.99 74.19 361.01 75.84 355.17 77.36 355.14 77.29 353.32 72.84 356.94 74.17"/><polygon class="cls-129" points="360.44 67.54 359.78 71.37 357.25 69.65 360.44 67.54"/><polygon class="cls-130" points="360.44 67.54 357.25 69.65 359.09 66.43 360.44 67.54"/><polygon class="cls-131" points="359.78 71.37 357 74.11 357.25 69.65 359.78 71.37"/><polygon class="cls-132" points="359.09 66.43 357.25 69.65 356.13 66.99 359.09 66.43"/><polygon class="cls-133" points="359.09 66.43 356.13 66.99 357.82 65.26 359.09 66.43"/><polygon class="cls-134" points="355.32 88.74 358.24 92.91 353.69 96.19 355.32 88.74"/><polygon class="cls-135" points="357.43 107.86 357.97 108.53 357.09 108.38 357.43 107.86"/><polygon class="cls-136" points="357.43 107.86 357.09 108.38 354.01 108.38 357.43 107.86"/><polygon class="cls-137" points="357.43 107.86 354.01 108.38 354.37 107.29 357.43 107.86"/><polygon class="cls-138" points="356.13 66.99 357.25 69.65 353.32 72.84 356.13 66.99"/><polygon class="cls-139" points="357.25 69.65 357 74.11 356.94 74.17 353.32 72.84 357.25 69.65"/><polygon class="cls-140" points="352.97 83.74 355.32 88.74 351.29 90.36 351.29 90.36 352.97 83.74"/><polygon class="cls-141" points="355.32 88.74 353.69 96.19 351.29 90.36 355.32 88.74"/><polygon class="cls-142" points="355.14 77.29 355.17 77.36 344.51 78.24 353.32 72.84 355.14 77.29"/><polygon class="cls-143" points="355.17 77.36 352.97 83.74 347.84 83.69 355.17 77.36"/><polygon class="cls-144" points="355.17 77.36 347.84 83.69 347.96 81.46 355.17 77.36"/><polygon class="cls-145" points="355.17 77.36 347.96 81.46 344.51 78.24 355.17 77.36"/><polygon class="cls-146" points="347.84 99.02 354.37 107.29 353.02 107.29 347.84 99.02"/><polygon class="cls-147" points="354.37 107.29 354.01 108.38 353.03 107.31 353.02 107.29 354.37 107.29"/><polygon class="cls-136" points="353.03 107.31 354.01 108.38 351.68 107.79 353.02 107.29 353.03 107.31"/><polygon class="cls-148" points="354.01 108.38 352.23 108.36 351.68 107.79 354.01 108.38"/><polygon class="cls-149" points="351.29 90.36 353.69 96.19 348.26 97.47 351.29 90.36"/><polygon class="cls-150" points="353.69 96.19 347.84 99.02 348.26 97.47 353.69 96.19"/><polygon class="cls-147" points="347.84 99.02 353.02 107.29 345.92 99.14 347.84 99.02"/><polygon class="cls-151" points="352.97 83.74 351.29 90.36 345.42 88.34 352.97 83.74"/><polygon class="cls-152" points="352.97 83.74 345.42 88.34 347.84 83.69 352.97 83.74"/><polygon class="cls-135" points="351.68 107.79 352.23 108.36 351.1 108.97 351.68 107.79"/><polygon class="cls-153" points="351.29 90.36 348.26 97.47 342.74 92.93 351.29 90.36 351.29 90.36 351.29 90.36"/><polygon class="cls-154" points="345.42 88.34 351.29 90.36 351.29 90.36 342.74 92.93 345.42 88.34"/><polygon class="cls-155" points="348.26 97.47 347.84 99.02 345.92 99.14 348.26 97.47"/><polygon class="cls-156" points="348.26 97.47 345.92 99.14 342.09 98.59 348.26 97.47"/><polygon class="cls-157" points="348.26 97.47 342.09 98.59 342.74 92.93 348.26 97.47"/><polygon class="cls-158" points="347.96 81.46 347.84 83.69 338.94 86.66 347.96 81.46"/><polygon class="cls-159" points="347.96 81.46 338.94 86.66 335.05 84.38 347.96 81.46"/><polygon class="cls-160" points="347.96 81.46 335.05 84.38 341.73 79.71 347.96 81.46"/><polygon class="cls-161" points="347.96 81.46 341.73 79.71 344.51 78.24 347.96 81.46"/><polygon class="cls-162" points="347.84 83.69 345.42 88.34 338.94 86.66 347.84 83.69"/><polygon class="cls-163" points="345.42 88.34 342.74 92.93 338.21 89.99 345.42 88.34"/><polygon class="cls-164" points="345.42 88.34 338.21 89.99 338.94 86.66 345.42 88.34"/><polygon class="cls-165" points="342.74 92.93 342.09 98.59 334.79 97.32 342.74 92.93"/><polygon class="cls-166" points="342.74 92.93 334.79 97.32 338.21 89.99 342.74 92.93"/><polygon class="cls-167" points="338.94 86.66 338.21 89.99 327.44 91.48 338.94 86.66"/><polygon class="cls-168" points="338.94 86.66 327.44 91.48 335.05 84.38 338.94 86.66"/><polygon class="cls-169" points="338.21 89.99 334.79 97.32 326.36 95.34 338.21 89.99"/><polygon class="cls-170" points="338.21 89.99 326.36 95.34 327.44 91.48 338.21 89.99"/><polygon class="cls-171" points="327.44 91.48 326.36 95.34 321.01 93.99 327.44 91.48"/><polygon class="cls-172" points="326.36 95.34 317.41 98.97 321.01 93.99 326.36 95.34"/><polygon class="cls-173" points="321.01 93.99 317.41 98.97 310.76 97.47 321.01 93.99"/><polygon class="cls-174" points="317.41 98.97 310.18 101.87 306.81 100.54 317.41 98.97"/><polygon class="cls-175" points="317.41 98.97 306.81 100.54 310.76 97.47 317.41 98.97"/></g><g id="Front"><polygon class="cls-4" points="412.19 304.08 332.85 277.81 323.2 244.57 412.19 304.08"/><polygon class="cls-10" points="323.2 244.57 332.85 277.81 267.44 317.47 323.2 244.57"/><polygon class="cls-11" points="332.85 277.81 287.29 362.51 267.44 317.47 332.85 277.81"/><polygon class="cls-19" points="272.54 406.61 267.44 317.47 287.29 362.51 272.54 406.61"/><polygon class="cls-20" points="219.5 425.49 233.54 366 272.54 406.61 219.5 425.49"/><polygon class="cls-20" points="270.93 208.78 233.54 366 223.89 257.83 270.93 208.78"/><polygon class="cls-26" points="233.54 366 200.16 379.67 223.89 257.83 233.54 366"/><polygon class="cls-23" points="233.54 366 219.5 425.49 200.16 379.67 233.54 366"/><polygon class="cls-28" points="200.16 379.67 219.5 425.49 184.42 431.94 200.16 379.67"/><polygon class="cls-30" points="151.51 279.15 200.16 379.67 132.88 304.61 151.51 279.15"/><polygon class="cls-23" points="132.88 304.61 200.16 379.67 163.56 400.31 132.88 304.61"/><polygon class="cls-21" points="200.16 379.67 184.42 431.94 163.56 400.31 200.16 379.67"/><polygon class="cls-3" points="151.51 279.15 132.88 304.61 100.44 272.71 151.51 279.15"/><polygon class="cls-2" points="272.54 406.61 233.54 366 267.45 317.48 272.54 406.61"/></g></svg>