<svg xmlns="http://www.w3.org/2000/svg" xmlns:xlink="http://www.w3.org/1999/xlink" viewBox="0 0 595.28 92"><defs><style>.cls-1{fill:none;}.cls-2{fill:#888052;}.cls-3{fill:#978a60;}.cls-4{fill:#ad935b;}.cls-5{fill:#b99965;}.cls-6{fill:#907d52;}.cls-7{fill:#9c895d;}.cls-8{fill:#bfa67b;}.cls-9{fill:#a79162;}.cls-10{fill:#736235;}.cls-11{clip-path:url(#clip-path);}.cls-12{clip-path:url(#clip-path-3);}.cls-13{clip-path:url(#clip-path-5);}.cls-14{fill:#beac3a;}.cls-15{fill:#353929;}.cls-16{fill:#97935e;}.cls-17{fill:#464d25;}.cls-18{fill:#3e452b;}.cls-19{fill:#5b692d;}.cls-20{fill:#1a1c1a;}.cls-21{fill:#515c4f;}.cls-22{fill:#888527;}.cls-23{fill:#6e7643;}.cls-24{fill:#3c4130;}.cls-25{fill:#b7b23a;}.cls-26{fill:#6a722c;}.cls-27{fill:#a0a45d;}.cls-28{fill:#2e3222;}.cls-29{fill:#a79137;}.cls-30{fill:#616f42;}.cls-31{fill:#989b56;}.cls-32{fill:#4a5449;}.cls-33{fill:#63722f;}.cls-34{fill:#97925d;}.cls-35{fill:#303621;}.cls-36{fill:#adba8e;}.cls-37{fill:#555e3e;}.cls-38{fill:#9c9433;}.cls-39{fill:#566041;}.cls-40{fill:#838226;}.cls-41{fill:#242423;}.cls-42{fill:#5c6a30;}.cls-43{fill:#6e7c42;}.cls-44{fill:#4a542f;}.cls-45{fill:#4d5637;}.cls-46{fill:#576248;}.cls-47{fill:#778351;}.cls-48{fill:#6d7645;}.cls-49{clip-path:url(#clip-path-7);}.cls-50{clip-path:url(#clip-path-9);}.cls-51{clip-path:url(#clip-path-11);}.cls-52{clip-path:url(#clip-path-13);}.cls-53{clip-path:url(#clip-path-15);}.cls-54{clip-path:url(#clip-path-17);}</style><clipPath id="clip-path"><rect class="cls-1" x="456" y="40.3" width="32" height="31.07"/></clipPath><clipPath id="clip-path-3"><rect class="cls-1" x="460.85" y="53.68" width="21.38" height="34.98"/></clipPath><clipPath id="clip-path-5"><rect class="cls-1" x="457.19" y="41.02" width="29.24" height="29.34"/></clipPath><clipPath id="clip-path-7"><rect class="cls-1" x="483" y="38.12" width="46.33" height="44.98"/></clipPath><clipPath id="clip-path-9"><rect class="cls-1" x="491.36" y="57.48" width="30.95" height="50.65"/></clipPath><clipPath id="clip-path-11"><rect class="cls-1" x="485.28" y="39.15" width="42.34" height="42.48"/></clipPath><clipPath id="clip-path-13"><rect class="cls-1" x="525.64" y="39.47" width="25.19" height="24.45"/></clipPath><clipPath id="clip-path-15"><rect class="cls-1" x="529.46" y="49.99" width="16.83" height="27.53"/></clipPath><clipPath id="clip-path-17"><rect class="cls-1" x="526.57" y="40.03" width="23.01" height="23.09"/></clipPath></defs><title>Hills with flax</title><g id="Hills"><rect class="cls-2" y="60.61" width="595.28" height="31.39"/><polygon class="cls-3" points="595.28 10.5 595.28 60.61 488 60.61 541.64 35.55 595.28 10.5"/><polygon class="cls-4" points="541.64 35.55 488 60.61 433.5 20 541.64 35.55"/><polygon class="cls-5" points="488 60.61 372 60.61 433.5 20 488 60.61"/><polygon class="cls-6" points="433.5 20 372 60.61 309 0 433.5 20"/><polygon class="cls-7" points="372 60.61 277 60.61 309 0 372 60.61"/><polygon class="cls-8" points="309 0 277 60.61 150.5 15.5 309 0"/><polygon class="cls-9" points="277 60.61 0 60.61 62.05 42.01 150.5 15.5 277 60.61"/><polygon class="cls-10" points="62.05 42.01 0 60.61 0 20 62.05 42.01"/><g class="cls-11"><g class="cls-11"><g class="cls-13"><g class="cls-13"><polygon class="cls-14" points="479.85 59.87 483.04 65.22 479.19 61.81 479.85 59.87"/><path class="cls-15" d="M470.92,67.09l0,0,1,1.82s-.89,1.4-.89,1.4l-.12-3.27Z"/><polygon class="cls-16" points="479.19 61.81 476.89 64.69 475.33 63.13 479.19 61.81"/><polygon class="cls-17" points="470.39 61.3 469.32 64.86 467.9 62.7 470.39 61.3"/><polygon class="cls-18" points="476.89 64.69 473.31 67.28 475.33 63.13 476.89 64.69"/><polygon class="cls-19" points="479.44 54.35 476.33 60.13 474.98 57.06 479.44 54.35"/><polygon class="cls-17" points="467.92 65.75 469.95 68.24 467.47 67.43 467.92 65.75"/><polygon class="cls-18" points="465.16 65.73 461.26 64.72 462.09 63.41 465.16 65.73"/><polygon class="cls-20" points="470.92 67.08 471.04 70.35 469.95 68.24 470.92 67.08"/><polygon class="cls-15" points="474.66 68.21 472.88 70.36 471.93 68.95 474.66 68.21"/><polygon class="cls-21" points="475.33 63.13 471.71 66.23 471.71 64.42 475.33 63.13"/><polygon class="cls-22" points="479.19 61.81 475.33 63.13 479.85 59.87 479.19 61.81"/><path class="cls-20" d="M471,70.35s.89-1.35.89-1.4l1,1.41H471Z"/><polygon class="cls-16" points="465.81 56.18 457.44 56.4 463.6 54.01 465.81 56.18"/><polygon class="cls-23" points="474.98 57.06 475.33 63.13 472.65 60.45 472.67 60.36 472.68 60.33 474.98 57.06"/><polygon class="cls-24" points="471.71 64.42 470.39 61.3 472.65 60.37 472.62 60.42 472.65 60.45 471.71 64.42"/><polygon class="cls-14" points="457.76 48.66 467.08 54.45 463.6 54.01 457.76 48.66"/><polygon class="cls-25" points="472.37 41.02 472.01 52.99 470.62 51.27 472.37 41.02"/><polygon class="cls-26" points="470.62 51.27 472.01 52.99 470.39 61.3 470.62 51.27"/><polygon class="cls-26" points="474.98 57.06 476.33 60.13 475.33 63.13 474.98 57.06"/><polygon class="cls-27" points="476.37 42.88 475.22 49.65 472.01 52.99 476.37 42.88"/><polygon class="cls-18" points="482.04 68.23 476.86 66.75 476.89 64.69 482.04 68.23"/><polygon class="cls-22" points="468.19 51.58 467.08 54.45 464.39 45.68 468.19 51.58"/><polygon class="cls-28" points="471.71 64.42 470.92 67.08 469.32 64.86 471.71 64.42"/><polygon class="cls-29" points="484.84 56.14 479.44 54.35 478.78 52.09 484.84 56.14"/><polygon class="cls-30" points="475.22 49.65 476.64 52.1 474.98 57.06 475.22 49.65"/><polygon class="cls-28" points="470.92 67.08 469.95 68.24 467.92 65.75 470.92 67.08"/><polygon class="cls-17" points="475.33 63.13 473.31 67.28 471.71 66.23 475.33 63.13"/><polygon class="cls-31" points="465.23 41.68 469.72 49.46 468.19 51.58 465.23 41.68"/><polygon class="cls-27" points="468.19 51.58 470.39 61.3 467.08 54.45 468.19 51.58"/><polygon class="cls-32" points="467.4 67.38 461.02 67.38 465.16 65.73 467.4 67.38"/><polygon class="cls-32" points="476.86 66.75 477.41 70.03 474.66 68.21 476.86 66.75"/><polygon class="cls-15" points="476.86 66.75 474.66 68.21 473.31 67.28 476.86 66.75"/><polygon class="cls-33" points="475.22 49.65 474.98 57.06 472.68 60.33 475.22 49.65"/><polygon class="cls-34" points="462.93 59.65 462.01 60.8 459.13 61.38 462.93 59.65"/><polygon class="cls-35" points="470.39 61.3 471.71 64.42 469.32 64.86 470.39 61.3"/><polygon class="cls-33" points="479.85 59.87 475.33 63.13 476.33 60.13 479.85 59.87"/><polygon class="cls-18" points="469.95 68.24 471.04 70.35 468.91 70.36 469.95 68.24"/><polygon class="cls-22" points="467.08 54.45 465.81 56.18 463.6 54.01 467.08 54.45"/><polygon class="cls-36" points="478.78 52.09 479.44 54.35 474.98 57.06 478.78 52.09"/><polygon class="cls-37" points="470.39 61.3 472.01 52.99 472.67 60.34 472.65 60.37 470.39 61.3"/><polygon class="cls-21" points="467.9 62.7 469.32 64.86 467.92 65.75 467.9 62.7"/><polygon class="cls-21" points="462.09 63.41 461.26 64.72 457.19 66.14 462.09 63.41"/><polygon class="cls-38" points="483.59 46.26 476.64 52.1 476.75 48.71 483.59 46.26"/><polygon class="cls-24" points="465.81 56.18 470.39 61.3 467.9 62.7 465.81 56.18"/><polygon class="cls-39" points="467.9 62.7 466.38 64.22 462.93 59.65 467.9 62.7"/><polygon class="cls-40" points="476.75 48.71 476.64 52.1 475.22 49.65 476.75 48.71"/><polygon class="cls-41" points="467.4 67.38 465.16 65.73 467.92 65.75 467.47 67.43 467.4 67.38"/><polygon class="cls-35" points="467.9 62.7 467.92 65.75 466.38 64.22 467.9 62.7"/><polygon class="cls-42" points="467.08 54.45 470.39 61.3 465.81 56.18 467.08 54.45"/><polygon class="cls-23" points="469.72 49.46 470.62 51.27 470.39 61.3 469.72 49.46"/><polygon class="cls-43" points="465.81 56.18 464.66 58.9 459.18 58.21 465.81 56.18"/><polygon class="cls-44" points="475.33 63.13 471.71 64.42 472.65 60.45 475.33 63.13"/><polygon class="cls-45" points="467.92 65.75 465.16 65.73 466.38 64.22 467.92 65.75"/><polygon class="cls-18" points="469.95 68.24 468.91 70.36 467.47 67.43 469.95 68.24"/><polygon class="cls-28" points="473.31 67.28 471.93 68.95 471.71 66.23 473.31 67.28"/><polygon class="cls-46" points="469.32 64.86 470.92 67.08 467.92 65.75 469.32 64.86"/><polygon class="cls-47" points="468.19 51.58 469.72 49.46 470.39 61.3 468.19 51.58"/><polygon class="cls-24" points="474.66 68.21 471.93 68.95 473.31 67.28 474.66 68.21"/><polygon class="cls-48" points="462.93 59.65 466.38 64.22 462.01 60.8 462.93 59.65"/><polygon class="cls-16" points="464.66 58.9 465.81 56.18 467.9 62.7 464.66 58.9"/><polygon class="cls-44" points="475.22 49.65 472.68 60.33 472.67 60.34 472.01 52.99 475.22 49.65"/><polygon class="cls-21" points="466.38 64.22 465.16 65.73 462.09 63.41 466.38 64.22"/><polygon class="cls-43" points="479.85 59.87 476.33 60.13 481.5 57.54 479.85 59.87"/><polygon class="cls-32" points="471.71 64.42 471.71 66.23 470.92 67.08 471.71 64.42"/><polygon class="cls-46" points="476.89 64.69 476.86 66.75 473.31 67.28 476.89 64.69"/><polygon class="cls-22" points="486.43 60.12 479.85 59.87 481.5 57.54 486.43 60.12"/><path class="cls-32" d="M471.71,66.23l.22,2.72s-.83-1.54-1-1.82l0,0h0Z"/></g></g></g></g><g class="cls-49"><g class="cls-49"><g class="cls-51"><g class="cls-51"><polygon class="cls-14" points="494.8 66.45 490.19 74.2 495.75 69.27 494.8 66.45"/><path class="cls-15" d="M507.73,76.9s0,0,0,.06l-1.43,2.63c0,.08,1.3,2,1.3,2l.17-4.72Z"/><polygon class="cls-16" points="495.75 69.27 499.09 73.43 501.35 71.17 495.75 69.27"/><polygon class="cls-17" points="508.49 68.51 510.04 73.67 512.1 70.55 508.49 68.51"/><polygon class="cls-18" points="499.09 73.43 504.27 77.17 501.35 71.17 499.09 73.43"/><polygon class="cls-19" points="495.4 58.46 499.89 66.82 501.85 62.38 495.4 58.46"/><polygon class="cls-17" points="512.07 74.96 509.13 78.57 512.73 77.4 512.07 74.96"/><polygon class="cls-18" points="516.07 74.94 521.71 73.48 520.51 71.57 516.07 74.94"/><polygon class="cls-20" points="507.73 76.89 507.56 81.62 509.13 78.57 507.73 76.89"/><polygon class="cls-15" points="502.31 78.53 504.88 81.63 506.26 79.59 502.31 78.53"/><polygon class="cls-21" points="501.35 71.17 506.58 75.66 506.58 73.03 501.35 71.17"/><polygon class="cls-22" points="495.75 69.27 501.35 71.17 494.8 66.45 495.75 69.27"/><path class="cls-20" d="M507.56,81.62s-1.29-2-1.3-2l-1.38,2h2.68Z"/><polygon class="cls-16" points="515.13 61.1 527.24 61.42 518.33 57.96 515.13 61.1"/><polygon class="cls-23" points="501.85 62.38 501.35 71.17 505.23 67.29 505.2 67.16 505.18 67.11 501.85 62.38"/><polygon class="cls-24" points="506.58 73.03 508.49 68.51 505.23 67.18 505.28 67.24 505.23 67.29 506.58 73.03"/><polygon class="cls-14" points="526.78 50.22 513.29 58.59 518.33 57.96 526.78 50.22"/><polygon class="cls-25" points="505.63 39.15 506.15 56.49 508.17 53.99 505.63 39.15"/><polygon class="cls-26" points="508.17 53.99 506.15 56.49 508.49 68.51 508.17 53.99"/><polygon class="cls-26" points="501.85 62.38 499.89 66.82 501.35 71.17 501.85 62.38"/><polygon class="cls-27" points="499.84 41.85 501.51 51.65 506.15 56.49 499.84 41.85"/><polygon class="cls-18" points="491.63 78.55 499.13 76.41 499.09 73.43 491.63 78.55"/><polygon class="cls-22" points="511.69 54.44 513.29 58.59 517.18 45.9 511.69 54.44"/><polygon class="cls-28" points="506.58 73.03 507.73 76.89 510.04 73.67 506.58 73.03"/><polygon class="cls-29" points="487.57 61.05 495.4 58.46 496.35 55.18 487.57 61.05"/><polygon class="cls-30" points="501.51 51.65 499.44 55.2 501.85 62.38 501.51 51.65"/><polygon class="cls-28" points="507.73 76.89 509.13 78.57 512.07 74.96 507.73 76.89"/><polygon class="cls-17" points="501.35 71.17 504.27 77.17 506.58 75.66 501.35 71.17"/><polygon class="cls-31" points="515.98 40.11 509.47 51.37 511.69 54.44 515.98 40.11"/><polygon class="cls-27" points="511.69 54.44 508.49 68.51 513.29 58.59 511.69 54.44"/><polygon class="cls-32" points="512.83 77.32 522.06 77.32 516.07 74.94 512.83 77.32"/><polygon class="cls-32" points="499.13 76.41 498.33 81.17 502.31 78.53 499.13 76.41"/><polygon class="cls-15" points="499.13 76.41 502.31 78.53 504.27 77.17 499.13 76.41"/><polygon class="cls-33" points="501.51 51.65 501.85 62.38 505.18 67.11 501.51 51.65"/><polygon class="cls-34" points="519.29 66.13 520.63 67.8 524.79 68.63 519.29 66.13"/><polygon class="cls-35" points="508.49 68.51 506.58 73.03 510.04 73.67 508.49 68.51"/><polygon class="cls-33" points="494.8 66.45 501.35 71.17 499.89 66.82 494.8 66.45"/><polygon class="cls-18" points="509.13 78.57 507.56 81.62 510.64 81.63 509.13 78.57"/><polygon class="cls-22" points="513.29 58.59 515.13 61.1 518.33 57.96 513.29 58.59"/><polygon class="cls-36" points="496.35 55.18 495.4 58.46 501.85 62.38 496.35 55.18"/><polygon class="cls-37" points="508.49 68.51 506.15 56.49 505.2 67.13 505.23 67.18 508.49 68.51"/><polygon class="cls-21" points="512.1 70.55 510.04 73.67 512.07 74.96 512.1 70.55"/><polygon class="cls-21" points="520.51 71.57 521.71 73.48 527.61 75.52 520.51 71.57"/><polygon class="cls-38" points="489.39 46.74 499.44 55.2 499.28 50.29 489.39 46.74"/><polygon class="cls-24" points="515.13 61.1 508.49 68.51 512.1 70.55 515.13 61.1"/><polygon class="cls-39" points="512.1 70.55 514.3 72.74 519.29 66.13 512.1 70.55"/><polygon class="cls-40" points="499.28 50.29 499.44 55.2 501.51 51.65 499.28 50.29"/><polygon class="cls-41" points="512.83 77.32 516.07 74.94 512.07 74.96 512.73 77.4 512.83 77.32"/><polygon class="cls-35" points="512.1 70.55 512.07 74.96 514.3 72.74 512.1 70.55"/><polygon class="cls-42" points="513.29 58.59 508.49 68.51 515.13 61.1 513.29 58.59"/><polygon class="cls-23" points="509.47 51.37 508.17 53.99 508.49 68.51 509.47 51.37"/><polygon class="cls-43" points="515.13 61.1 516.79 65.04 524.73 64.04 515.13 61.1"/><polygon class="cls-44" points="501.35 71.17 506.58 73.03 505.23 67.29 501.35 71.17"/><polygon class="cls-45" points="512.07 74.96 516.07 74.94 514.3 72.74 512.07 74.96"/><polygon class="cls-18" points="509.13 78.57 510.64 81.63 512.73 77.4 509.13 78.57"/><polygon class="cls-28" points="504.27 77.17 506.26 79.59 506.58 75.66 504.27 77.17"/><polygon class="cls-46" points="510.04 73.67 507.73 76.89 512.07 74.96 510.04 73.67"/><polygon class="cls-47" points="511.69 54.44 509.47 51.37 508.49 68.51 511.69 54.44"/><polygon class="cls-24" points="502.31 78.53 506.26 79.59 504.27 77.17 502.31 78.53"/><polygon class="cls-48" points="519.29 66.13 514.3 72.74 520.63 67.8 519.29 66.13"/><polygon class="cls-16" points="516.79 65.04 515.13 61.1 512.1 70.55 516.79 65.04"/><polygon class="cls-44" points="501.51 51.65 505.18 67.11 505.2 67.13 506.15 56.49 501.51 51.65"/><polygon class="cls-21" points="514.3 72.74 516.07 74.94 520.51 71.57 514.3 72.74"/><polygon class="cls-43" points="494.8 66.45 499.89 66.82 492.42 63.08 494.8 66.45"/><polygon class="cls-32" points="506.58 73.03 506.58 75.66 507.73 76.89 506.58 73.03"/><polygon class="cls-46" points="499.09 73.43 499.13 76.41 504.27 77.17 499.09 73.43"/><polygon class="cls-22" points="485.28 66.8 494.8 66.45 492.42 63.08 485.28 66.8"/><path class="cls-32" d="M506.58,75.66l-.32,3.93c0-.07,1.2-2.23,1.43-2.63,0,0,0-.06,0-.06h0Z"/></g></g></g></g><g class="cls-52"><g class="cls-52"><g class="cls-54"><g class="cls-54"><polygon class="cls-14" points="544.41 54.87 546.92 59.08 543.89 56.4 544.41 54.87"/><path class="cls-15" d="M537.38,60.54l0,0,.78,1.43s-.71,1.1-.71,1.1l-.09-2.57Z"/><polygon class="cls-16" points="543.89 56.4 542.08 58.66 540.85 57.43 543.89 56.4"/><polygon class="cls-17" points="536.97 55.99 536.12 58.79 535 57.09 536.97 55.99"/><polygon class="cls-18" points="542.08 58.66 539.26 60.69 540.85 57.43 542.08 58.66"/><polygon class="cls-19" points="544.09 50.52 541.64 55.07 540.58 52.65 544.09 50.52"/><polygon class="cls-17" points="535.02 59.49 536.62 61.46 534.67 60.82 535.02 59.49"/><polygon class="cls-18" points="532.85 59.48 529.78 58.69 530.43 57.65 532.85 59.48"/><polygon class="cls-20" points="537.38 60.54 537.48 63.11 536.62 61.46 537.38 60.54"/><polygon class="cls-15" points="540.33 61.43 538.93 63.12 538.18 62.01 540.33 61.43"/><polygon class="cls-21" points="540.85 57.43 538 59.87 538 58.44 540.85 57.43"/><polygon class="cls-22" points="543.89 56.4 540.85 57.43 544.41 54.87 543.89 56.4"/><path class="cls-20" d="M537.47,63.11s.7-1.06.71-1.1l.75,1.11h-1.46Z"/><polygon class="cls-16" points="533.36 51.96 526.77 52.13 531.62 50.25 533.36 51.96"/><polygon class="cls-23" points="540.58 52.65 540.85 57.43 538.74 55.32 538.76 55.25 538.76 55.23 540.58 52.65"/><polygon class="cls-24" points="538 58.44 536.97 55.99 538.74 55.26 538.72 55.3 538.74 55.32 538 58.44"/><polygon class="cls-14" points="527.03 46.04 534.36 50.59 531.62 50.25 527.03 46.04"/><polygon class="cls-25" points="538.52 40.03 538.24 49.45 537.14 48.09 538.52 40.03"/><polygon class="cls-26" points="537.14 48.09 538.24 49.45 536.97 55.99 537.14 48.09"/><polygon class="cls-26" points="540.58 52.65 541.64 55.07 540.85 57.43 540.58 52.65"/><polygon class="cls-27" points="541.67 41.49 540.76 46.82 538.24 49.45 541.67 41.49"/><polygon class="cls-18" points="546.14 61.44 542.06 60.28 542.08 58.66 546.14 61.44"/><polygon class="cls-22" points="535.23 48.34 534.36 50.59 532.25 43.69 535.23 48.34"/><polygon class="cls-28" points="538 58.44 537.38 60.54 536.12 58.79 538 58.44"/><polygon class="cls-29" points="548.34 51.93 544.09 50.52 543.57 48.74 548.34 51.93"/><polygon class="cls-30" points="540.76 46.82 541.89 48.75 540.58 52.65 540.76 46.82"/><polygon class="cls-28" points="537.38 60.54 536.62 61.46 535.02 59.49 537.38 60.54"/><polygon class="cls-17" points="540.85 57.43 539.26 60.69 538 59.87 540.85 57.43"/><polygon class="cls-31" points="532.9 40.55 536.44 46.67 535.23 48.34 532.9 40.55"/><polygon class="cls-27" points="535.23 48.34 536.97 55.99 534.36 50.59 535.23 48.34"/><polygon class="cls-32" points="534.61 60.77 529.59 60.77 532.85 59.48 534.61 60.77"/><polygon class="cls-32" points="542.06 60.28 542.49 62.87 540.33 61.43 542.06 60.28"/><polygon class="cls-15" points="542.06 60.28 540.33 61.43 539.26 60.69 542.06 60.28"/><polygon class="cls-33" points="540.76 46.82 540.58 52.65 538.76 55.23 540.76 46.82"/><polygon class="cls-34" points="531.1 54.69 530.37 55.6 528.11 56.05 531.1 54.69"/><polygon class="cls-35" points="536.97 55.99 538 58.44 536.12 58.79 536.97 55.99"/><polygon class="cls-33" points="544.41 54.87 540.85 57.43 541.64 55.07 544.41 54.87"/><polygon class="cls-18" points="536.62 61.46 537.48 63.11 535.8 63.12 536.62 61.46"/><polygon class="cls-22" points="534.36 50.59 533.36 51.96 531.62 50.25 534.36 50.59"/><polygon class="cls-36" points="543.57 48.74 544.09 50.52 540.58 52.65 543.57 48.74"/><polygon class="cls-37" points="536.97 55.99 538.24 49.45 538.76 55.24 538.74 55.26 536.97 55.99"/><polygon class="cls-21" points="535 57.09 536.12 58.79 535.02 59.49 535 57.09"/><polygon class="cls-21" points="530.43 57.65 529.78 58.69 526.57 59.8 530.43 57.65"/><polygon class="cls-38" points="547.35 44.15 541.89 48.75 541.97 46.08 547.35 44.15"/><polygon class="cls-24" points="533.36 51.96 536.97 55.99 535 57.09 533.36 51.96"/><polygon class="cls-39" points="535 57.09 533.81 58.29 531.1 54.69 535 57.09"/><polygon class="cls-40" points="541.97 46.08 541.89 48.75 540.76 46.82 541.97 46.08"/><polygon class="cls-41" points="534.61 60.77 532.85 59.48 535.02 59.49 534.67 60.82 534.61 60.77"/><polygon class="cls-35" points="535 57.09 535.02 59.49 533.81 58.29 535 57.09"/><polygon class="cls-42" points="534.36 50.59 536.97 55.99 533.36 51.96 534.36 50.59"/><polygon class="cls-23" points="536.44 46.67 537.14 48.09 536.97 55.99 536.44 46.67"/><polygon class="cls-43" points="533.36 51.96 532.46 54.1 528.14 53.55 533.36 51.96"/><polygon class="cls-44" points="540.85 57.43 538 58.44 538.74 55.32 540.85 57.43"/><polygon class="cls-45" points="535.02 59.49 532.85 59.48 533.81 58.29 535.02 59.49"/><polygon class="cls-18" points="536.62 61.46 535.8 63.12 534.67 60.82 536.62 61.46"/><polygon class="cls-28" points="539.26 60.69 538.18 62.01 538 59.87 539.26 60.69"/><polygon class="cls-46" points="536.12 58.79 537.38 60.54 535.02 59.49 536.12 58.79"/><polygon class="cls-47" points="535.23 48.34 536.44 46.67 536.97 55.99 535.23 48.34"/><polygon class="cls-24" points="540.33 61.43 538.18 62.01 539.26 60.69 540.33 61.43"/><polygon class="cls-48" points="531.1 54.69 533.81 58.29 530.37 55.6 531.1 54.69"/><polygon class="cls-16" points="532.46 54.1 533.36 51.96 535 57.09 532.46 54.1"/><polygon class="cls-44" points="540.76 46.82 538.76 55.23 538.76 55.24 538.24 49.45 540.76 46.82"/><polygon class="cls-21" points="533.81 58.29 532.85 59.48 530.43 57.65 533.81 58.29"/><polygon class="cls-43" points="544.41 54.87 541.64 55.07 545.71 53.03 544.41 54.87"/><polygon class="cls-32" points="538 58.44 538 59.87 537.38 60.54 538 58.44"/><polygon class="cls-46" points="542.08 58.66 542.06 60.28 539.26 60.69 542.08 58.66"/><polygon class="cls-22" points="549.59 55.06 544.41 54.87 545.71 53.03 549.59 55.06"/><path class="cls-32" d="M538,59.87l.17,2.14s-.65-1.21-.78-1.43l0,0h0Z"/></g></g></g></g></g></svg>