<?xml version="1.0" encoding="UTF-8"?><svg id="Layer_1" xmlns="http://www.w3.org/2000/svg" viewBox="0 0 124.72 16.26"><defs><style>.cls-1{fill:none;}.cls-1,.cls-2,.cls-3,.cls-4{stroke-width:0px;}.cls-2{fill:#333;}.cls-3,.cls-5{fill:#231f20;}.cls-5{stroke:#a6a8ab;stroke-miterlimit:10;stroke-width:.19px;}.cls-4{fill:#db1f2d;}</style></defs><path class="cls-1" d="m6.11,5.35h-.23v5.76c1.21,0,2.09-.24,2.64-.71.56-.46.83-1.19.83-2.18s-.27-1.69-.8-2.16c-.53-.47-1.35-.71-2.44-.71Z"/><polygon class="cls-1" points="44.28 9.63 47.35 9.63 45.84 4.77 44.28 9.63"/><path class="cls-2" d="m14.16.77l-.98,2.82c-.63-.75-1.42-1.38-2.38-1.88-.61-.32-1.4-.55-2.37-.71-.97-.15-2.15-.23-3.52-.23H.57v14.88h3.93c1.63,0,2.92-.07,3.89-.22.97-.15,1.77-.39,2.4-.71,1.29-.68,2.28-1.58,2.97-2.69.68-1.11,1.03-2.38,1.03-3.8,0-.93-.15-1.79-.43-2.58h1.93v10.01h5.35V5.64h4.82l1.7-4.87h-14Zm-5.64,9.63c-.56.46-1.44.7-2.64.71v-5.76h.23c1.1,0,1.91.24,2.44.71.53.47.8,1.2.8,2.16s-.28,1.72-.83,2.18Z"/><polygon class="cls-2" points="28.16 .77 26.46 5.64 26.4 5.64 28.18 .77 28.16 .77"/><polygon class="cls-2" points="38.08 5.64 40.45 5.64 42.15 .77 28.85 .77 27.07 5.64 32.74 5.64 32.74 15.65 36.8 15.65 38.08 12.17 38.08 5.64"/><rect class="cls-2" x="24.73" y="3.2" width="5.16" height="0" transform="translate(15.28 27.93) rotate(-70.75)"/><path class="cls-4" d="m48.8.77h-5.95l-4.77,13.37v1.51h5.2l.46-1.87h4.03l.48,1.87h5.75L48.8.77Zm-4.53,8.86l1.56-4.86,1.52,4.86h-3.08Z"/><polygon class="cls-4" points="37.54 15.65 38.08 15.65 38.08 14.14 37.54 15.65"/><path class="cls-2" d="m27.64,15.8h-.65s-.04,0-.05-.01c-.28-.03-.56-.05-.83-.09-.27-.04-.53-.11-.8-.16,0,0,0-.01,0-.02.12.02.25.04.37.05.51.04,1.02.03,1.53-.05.52-.08,1.02-.21,1.49-.45.37-.19.71-.43.97-.76.6-.76,1.01-1.6,1.19-2.55.1-.5.11-1,0-1.49-.1-.48-.29-.92-.62-1.28-.5-.56-1.1-.95-1.81-1.19-.61-.2-1.22-.2-1.82,0-.49.16-.92.43-1.32.76-.32.26-.56.58-.72.96-.15.35-.23.72-.24,1.09-.03.56.05,1.1.32,1.61.12.23.28.43.49.59.24.18.51.28.81.3.39.03.78.02,1.16-.1.34-.11.62-.3.81-.6.16-.26.26-.55.29-.86.05-.48-.13-.89-.46-1.22-.16-.17-.38-.23-.61-.27-.43-.08-.79.04-1.08.36-.09.1-.16.21-.25.33,0-.11.01-.22.03-.32.06-.38.23-.71.52-.97.33-.29.72-.42,1.14-.47.55-.06,1.03.1,1.47.43.35.27.62.61.84.98.13.22.24.45.3.7.12.49.07.97-.07,1.45-.19.63-.54,1.18-1.01,1.65-.37.36-.79.65-1.27.83-.28.1-.56.15-.85.2-.58.09-1.15.08-1.73-.05-.86-.19-1.55-.64-2.08-1.34-.49-.64-.74-1.38-.83-2.17-.02-.14-.03-.28-.04-.42v-.39c0-.09.02-.18.02-.27.06-.71.25-1.38.59-2,.42-.77,1.01-1.38,1.78-1.81.65-.36,1.35-.56,2.08-.61.11,0,.22-.01.32-.02h.31c.12,0,.23.02.35.02.46.04.91.12,1.35.28,1.05.38,1.83,1.07,2.35,2.06.37.71.56,1.47.62,2.26.01.14.02.27.02.41v.1s0,.04,0,.07c-.01.35-.08.69-.19,1.02-.24.74-.63,1.4-1.14,1.99-.27.31-.56.6-.9.83-.57.38-1.21.55-1.89.62-.09,0-.18.02-.27.02Z"/><path class="cls-3" d="m56.34,9.88c.2.15.3.43.3.84s-.1.68-.29.84c-.19.16-.44.24-.74.24h-.58v-2.15h.52c.33,0,.59.08.79.23Zm-.91.08v1.53h.2c.18,0,.32-.06.42-.17.1-.11.15-.32.15-.61,0-.2-.03-.36-.08-.47s-.12-.19-.21-.23c-.09-.04-.19-.06-.31-.06h-.19Z"/><path class="cls-3" d="m57.6,9.65v2.15h-.41v-2.15h.41Z"/><path class="cls-3" d="m59.52,9.67c.11.04.21.11.31.19l-.22.23c-.08-.06-.15-.1-.21-.13-.07-.03-.14-.04-.23-.04-.16,0-.3.07-.4.2-.1.13-.16.34-.16.61s.04.49.12.62.21.19.38.19c.13,0,.24-.03.34-.08v-.56h-.32l-.04-.3h.76v1.05c-.23.14-.47.21-.73.21-.3,0-.54-.1-.7-.29-.16-.19-.24-.47-.24-.84,0-.23.04-.44.13-.6.09-.17.2-.3.35-.38.15-.09.31-.13.49-.13.14,0,.26.02.37.06Z"/><path class="cls-3" d="m60.84,9.65v2.15h-.41v-2.15h.41Z"/><path class="cls-3" d="m62.89,9.65l-.04.33h-.55v1.82h-.41v-1.82h-.57v-.33h1.58Z"/><path class="cls-3" d="m64.31,11.8l-.13-.5h-.7l-.13.5h-.42l.66-2.15h.5l.66,2.15h-.43Zm-.76-.81h.54l-.27-1.02-.27,1.02Z"/><path class="cls-3" d="m65.56,9.65v1.81h.85l-.05.34h-1.21v-2.15h.41Z"/><path class="cls-3" d="m69.21,9.65l-.04.33h-.55v1.82h-.41v-1.82h-.57v-.33h1.58Z"/><path class="cls-3" d="m70.9,9.65l-.04.3h-.78v.6h.68v.3h-.68v.63h.84v.31h-1.24v-2.15h1.23Z"/><path class="cls-3" d="m72.59,9.66c.1.04.19.09.28.17l-.21.24c-.12-.1-.26-.15-.39-.15-.16,0-.28.06-.38.19-.1.13-.14.33-.14.61s.05.47.14.6.22.2.38.2c.08,0,.16-.02.22-.05.07-.03.14-.07.21-.13l.19.24c-.07.07-.16.14-.27.19s-.23.07-.37.07c-.18,0-.35-.04-.49-.13-.14-.09-.25-.21-.33-.38-.08-.17-.12-.37-.12-.61s.04-.43.12-.6c.08-.17.19-.29.33-.38.14-.09.3-.13.47-.13.13,0,.24.02.34.06Z"/><path class="cls-3" d="m74.53,11.8v-.96h-.76v.96h-.41v-2.15h.41v.86h.76v-.86h.41v2.15h-.41Z"/><path class="cls-3" d="m77.19,11.8h-.53l-.73-1.74c.02.15.03.29.04.42s.01.27.01.44v.88h-.37v-2.15h.51l.74,1.74c-.01-.08-.02-.19-.04-.33s-.02-.27-.02-.41v-1.01h.37v2.15Z"/><path class="cls-3" d="m79.18,9.74c.14.09.25.21.32.38.07.17.11.37.11.61s-.04.43-.11.6-.18.3-.32.38-.3.13-.49.13-.36-.04-.49-.13c-.14-.09-.25-.21-.32-.38s-.11-.37-.11-.61.04-.43.11-.6.18-.3.32-.39.3-.13.49-.13.36.04.49.13Zm-.87.38c-.09.13-.13.33-.13.61,0,.54.17.8.5.8.16,0,.29-.06.37-.19.09-.13.13-.33.13-.61s-.04-.48-.13-.61c-.09-.13-.21-.19-.37-.19s-.29.06-.38.19Z"/><path class="cls-3" d="m80.58,9.65v1.81h.85l-.05.34h-1.21v-2.15h.41Z"/><path class="cls-3" d="m83.09,9.74c.14.09.25.21.32.38.07.17.11.37.11.61s-.04.43-.11.6-.18.3-.32.38-.3.13-.49.13-.36-.04-.49-.13c-.14-.09-.25-.21-.32-.38s-.11-.37-.11-.61.04-.43.11-.6.18-.3.32-.39.3-.13.49-.13.36.04.49.13Zm-.87.38c-.09.13-.13.33-.13.61,0,.54.17.8.5.8.16,0,.29-.06.37-.19.09-.13.13-.33.13-.61s-.04-.48-.13-.61c-.09-.13-.21-.19-.37-.19s-.29.06-.38.19Z"/><path class="cls-3" d="m85.32,9.67c.11.04.21.11.31.19l-.22.23c-.08-.06-.15-.1-.21-.13-.07-.03-.14-.04-.23-.04-.16,0-.3.07-.4.2s-.16.34-.16.61.04.49.12.62c.08.13.21.19.38.19.13,0,.24-.03.34-.08v-.56h-.32l-.04-.3h.76v1.05c-.23.14-.47.21-.73.21-.3,0-.54-.1-.7-.29-.16-.19-.24-.47-.24-.84,0-.23.04-.44.13-.6.09-.17.2-.3.35-.38.15-.09.31-.13.49-.13.14,0,.26.02.37.06Z"/><path class="cls-3" d="m86.64,9.65v2.15h-.41v-2.15h.41Z"/><path class="cls-3" d="m88.56,9.65l-.04.3h-.78v.6h.68v.3h-.68v.63h.84v.31h-1.24v-2.15h1.23Z"/><path class="cls-3" d="m90.11,9.67c.11.04.21.11.31.2l-.2.23c-.08-.06-.15-.11-.23-.14s-.16-.04-.25-.04c-.1,0-.18.02-.24.07-.06.04-.09.11-.09.19,0,.05.01.1.04.13.02.04.07.07.13.1.06.03.15.07.27.1.21.07.37.15.47.25.11.1.16.24.16.43,0,.13-.03.24-.1.34-.06.1-.16.18-.28.23s-.26.08-.43.08-.31-.03-.43-.08c-.13-.05-.24-.12-.33-.22l.21-.24c.08.07.17.12.26.16.09.04.19.05.29.05.12,0,.21-.03.28-.08s.11-.13.11-.24c0-.06-.01-.11-.04-.15-.02-.04-.07-.08-.13-.11-.06-.03-.15-.07-.26-.1-.23-.07-.39-.16-.49-.25-.1-.1-.15-.23-.15-.39,0-.12.03-.22.09-.31.06-.09.15-.16.26-.21.11-.05.23-.07.37-.07.15,0,.28.02.39.07Z"/><path class="cls-3" d="m93.33,9.65l-.04.33h-.55v1.82h-.41v-1.82h-.57v-.33h1.58Z"/><path class="cls-3" d="m95.01,9.65l-.04.3h-.78v.6h.68v.3h-.68v.63h.84v.31h-1.24v-2.15h1.23Z"/><path class="cls-3" d="m96.72,11.8l-.13-.5h-.7l-.13.5h-.42l.66-2.15h.5l.66,2.15h-.43Zm-.76-.81h.54l-.27-1.02-.27,1.02Z"/><path class="cls-3" d="m98.69,9.66c.1.04.19.09.28.17l-.21.24c-.12-.1-.26-.15-.39-.15-.16,0-.28.06-.38.19-.1.13-.14.33-.14.61s.05.47.14.6.22.2.38.2c.08,0,.16-.02.22-.05.07-.03.14-.07.21-.13l.19.24c-.07.07-.16.14-.27.19s-.23.07-.37.07c-.18,0-.35-.04-.49-.13-.14-.09-.25-.21-.33-.38-.08-.17-.12-.37-.12-.61s.04-.43.12-.6c.08-.17.19-.29.33-.38.14-.09.3-.13.47-.13.13,0,.24.02.34.06Z"/><path class="cls-3" d="m100.63,11.8v-.96h-.76v.96h-.41v-2.15h.41v.86h.76v-.86h.41v2.15h-.41Z"/><path class="cls-3" d="m102.95,9.65l-.04.3h-.78v.6h.68v.3h-.68v.63h.84v.31h-1.24v-2.15h1.23Z"/><path class="cls-3" d="m104.2,10.94h-.26v.86h-.41v-2.15h.63c.56,0,.84.21.84.63,0,.14-.03.26-.1.35-.07.09-.18.17-.33.23l.56.93h-.47l-.47-.86Zm-.26-.3h.25c.13,0,.23-.03.29-.09s.1-.15.1-.27c0-.12-.03-.2-.1-.25-.07-.05-.18-.08-.32-.08h-.22v.69Z"/><path class="cls-3" d="m106.57,9.67c.11.04.21.11.31.2l-.2.23c-.08-.06-.15-.11-.23-.14s-.16-.04-.25-.04c-.1,0-.18.02-.24.07-.06.04-.09.11-.09.19,0,.05.01.1.04.13.02.04.07.07.13.1.06.03.15.07.27.1.21.07.37.15.47.25.11.1.16.24.16.43,0,.13-.03.24-.1.34-.06.1-.16.18-.28.23s-.26.08-.43.08-.31-.03-.43-.08c-.13-.05-.24-.12-.33-.22l.21-.24c.08.07.17.12.26.16.09.04.19.05.29.05.12,0,.21-.03.28-.08s.11-.13.11-.24c0-.06-.01-.11-.04-.15-.02-.04-.07-.08-.13-.11-.06-.03-.15-.07-.26-.1-.23-.07-.39-.16-.49-.25-.1-.1-.15-.23-.15-.39,0-.12.03-.22.09-.31.06-.09.15-.16.26-.21.11-.05.23-.07.37-.07.15,0,.28.02.39.07Z"/><path class="cls-3" d="m109.56,11.8l-.13-.5h-.7l-.13.5h-.42l.66-2.15h.5l.66,2.15h-.43Zm-.76-.81h.54l-.27-1.02-.27,1.02Z"/><path class="cls-3" d="m111.69,9.74c.14.09.25.21.32.38.07.17.11.37.11.61s-.04.43-.11.6-.18.3-.32.38-.3.13-.49.13-.36-.04-.49-.13c-.14-.09-.25-.21-.32-.38s-.11-.37-.11-.61.04-.43.11-.6.18-.3.32-.39.3-.13.49-.13.36.04.49.13Zm-.87.38c-.09.13-.13.33-.13.61,0,.54.17.8.5.8.16,0,.29-.06.37-.19.09-.13.13-.33.13-.61s-.04-.48-.13-.61c-.09-.13-.21-.19-.37-.19s-.29.06-.38.19Z"/><path class="cls-3" d="m113.94,9.65l-.04.33h-.55v1.82h-.41v-1.82h-.57v-.33h1.58Z"/><path class="cls-3" d="m115.62,9.65l-.04.3h-.78v.6h.68v.3h-.68v.63h.84v.31h-1.24v-2.15h1.23Z"/><path class="cls-3" d="m117.33,11.8l-.13-.5h-.7l-.13.5h-.42l.66-2.15h.5l.66,2.15h-.43Zm-.76-.81h.54l-.27-1.02-.27,1.02Z"/><path class="cls-3" d="m118.84,10.94h-.26v.86h-.41v-2.15h.63c.56,0,.84.21.84.63,0,.14-.03.26-.1.35-.07.09-.18.17-.33.23l.56.93h-.47l-.47-.86Zm-.26-.3h.25c.13,0,.23-.03.29-.09s.1-.15.1-.27c0-.12-.03-.2-.1-.25-.07-.05-.18-.08-.32-.08h-.22v.69Z"/><path class="cls-3" d="m121.52,9.74c.14.09.25.21.32.38.07.17.11.37.11.61s-.04.43-.11.6-.18.3-.32.38-.3.13-.49.13-.36-.04-.49-.13c-.14-.09-.25-.21-.32-.38s-.11-.37-.11-.61.04-.43.11-.6.18-.3.32-.39.3-.13.49-.13.36.04.49.13Zm-.87.38c-.09.13-.13.33-.13.61,0,.54.17.8.5.8.16,0,.29-.06.37-.19.09-.13.13-.33.13-.61s-.04-.48-.13-.61c-.09-.13-.21-.19-.37-.19s-.29.06-.38.19Z"/><path class="cls-3" d="m123.61,11.8l-.13-.5h-.7l-.13.5h-.42l.66-2.15h.5l.66,2.15h-.43Zm-.76-.81h.54l-.27-1.02-.27,1.02Z"/><path class="cls-3" d="m54.09,5.43h-.49l-1.08-2.26c.02.18.03.34.04.49,0,.15.01.33.01.55v1.22h-.34v-2.66h.48l1.09,2.26c0-.07-.02-.18-.03-.35-.01-.17-.02-.32-.02-.46v-1.45h.34v2.66Z"/><path class="cls-3" d="m56.45,3.49c-.08.03-.16.04-.25.05-.09,0-.21.01-.34.01.24.11.36.28.36.51,0,.2-.07.37-.21.5-.14.13-.33.19-.57.19-.09,0-.18-.01-.26-.04-.03.02-.06.05-.07.08s-.03.07-.03.11c0,.11.09.17.27.17h.32c.14,0,.26.02.36.07.11.05.19.12.24.2.06.08.09.18.09.29,0,.2-.08.35-.24.46s-.4.16-.71.16c-.22,0-.39-.02-.52-.07s-.22-.11-.27-.2c-.05-.09-.08-.21-.08-.35h.32c0,.08.02.15.05.19s.09.08.17.11c.08.02.19.04.34.04.21,0,.37-.03.46-.08.09-.05.14-.13.14-.24,0-.1-.04-.17-.11-.22-.07-.05-.17-.07-.3-.07h-.32c-.17,0-.3-.04-.39-.11-.09-.07-.13-.17-.13-.28,0-.07.02-.13.06-.19s.09-.12.17-.17c-.12-.06-.21-.14-.26-.23-.06-.09-.08-.2-.08-.33s.03-.26.1-.37c.07-.11.16-.19.28-.25.12-.06.25-.09.4-.09.16,0,.29,0,.4-.02s.2-.03.27-.06.16-.06.26-.11l.1.32Zm-1.34.24c-.07.08-.11.19-.11.33s.04.25.11.33.18.13.32.13.24-.04.32-.12c.07-.08.11-.19.11-.34,0-.3-.15-.45-.44-.45-.13,0-.24.04-.31.13Z"/><path class="cls-3" d="m58.11,5.14s.07.07.13.09l-.08.25c-.11-.01-.19-.04-.25-.09-.06-.05-.11-.12-.14-.22-.14.2-.34.3-.61.3-.2,0-.36-.06-.47-.17-.12-.11-.17-.26-.17-.44,0-.22.08-.38.23-.5.16-.12.38-.17.66-.17h.31v-.15c0-.14-.03-.25-.1-.31-.07-.06-.18-.09-.32-.09s-.33.04-.55.11l-.09-.26c.25-.09.49-.14.7-.14.24,0,.42.06.54.18.12.12.18.28.18.5v.93c0,.08.01.14.04.18Zm-.25-2.28h-1.05v-.27h1.05v.27Zm-.15,2.04v-.47h-.27c-.38,0-.56.14-.56.42,0,.12.03.21.09.27s.15.09.26.09c.2,0,.36-.11.48-.32Z"/><path class="cls-3" d="m60.13,2.78v2.66h-.37v-2.66h.37Zm1.45,0l-1.01,1.21,1.08,1.44h-.45l-1.05-1.42,1.01-1.24h.42Z"/><path class="cls-3" d="m63.36,5.14s.07.07.13.09l-.08.25c-.11-.01-.19-.04-.25-.09-.06-.05-.11-.12-.14-.22-.14.2-.34.3-.61.3-.2,0-.36-.06-.47-.17-.12-.11-.17-.26-.17-.44,0-.22.08-.38.23-.5.16-.12.38-.17.66-.17h.31v-.15c0-.14-.03-.25-.1-.31-.07-.06-.18-.09-.32-.09s-.33.04-.55.11l-.09-.26c.25-.09.49-.14.7-.14.24,0,.42.06.54.18.12.12.18.28.18.5v.93c0,.08.01.14.04.18Zm-.4-.24v-.47h-.27c-.38,0-.56.14-.56.42,0,.12.03.21.09.27s.15.09.26.09c.2,0,.36-.11.48-.32Z"/><path class="cls-3" d="m64.36,2.49s.07.1.07.17-.02.13-.07.17-.11.07-.18.07-.13-.02-.18-.07-.07-.1-.07-.17.02-.13.07-.17.11-.07.18-.07.13.02.18.07Zm0,.91v2.03h-.35v-2.03h.35Z"/><path class="cls-3" d="m66.47,5.14s.07.07.13.09l-.08.25c-.11-.01-.19-.04-.25-.09-.06-.05-.11-.12-.14-.22-.14.2-.34.3-.61.3-.2,0-.36-.06-.47-.17-.12-.11-.17-.26-.17-.44,0-.22.08-.38.23-.5.16-.12.38-.17.66-.17h.31v-.15c0-.14-.03-.25-.1-.31-.07-.06-.18-.09-.32-.09s-.33.04-.55.11l-.09-.26c.25-.09.49-.14.7-.14.24,0,.42.06.54.18.12.12.18.28.18.5v.93c0,.08.01.14.04.18Zm-.4-.24v-.47h-.27c-.38,0-.56.14-.56.42,0,.12.03.21.09.27.06.06.15.09.26.09.2,0,.36-.11.48-.32Z"/><path class="cls-3" d="m67.47,2.54v2.89h-.35v-2.85l.35-.04Zm1.17.86l-.75.9.83,1.13h-.42l-.81-1.11.75-.92h.4Z"/><path class="cls-3" d="m70.45,3.64c.16.19.24.45.24.78,0,.21-.04.4-.11.56-.07.16-.18.29-.31.37s-.3.13-.49.13c-.29,0-.51-.1-.67-.29-.16-.19-.24-.45-.24-.78,0-.21.04-.4.11-.56.07-.16.18-.29.31-.37.14-.09.3-.13.49-.13.29,0,.51.1.67.29Zm-1.19.78c0,.52.17.78.52.78s.52-.26.52-.78-.17-.78-.52-.78-.53.26-.53.78Z"/><path class="cls-3" d="m73.65,3.64c.16.19.24.45.24.78,0,.21-.04.4-.11.56-.07.16-.18.29-.31.37s-.3.13-.49.13c-.29,0-.51-.1-.67-.29-.16-.19-.24-.45-.24-.78,0-.21.04-.4.11-.56.07-.16.18-.29.31-.37.14-.09.3-.13.49-.13.29,0,.51.1.67.29Zm-1.19.78c0,.52.17.78.52.78s.52-.26.52-.78-.17-.78-.52-.78-.53.26-.53.78Z"/><path class="cls-3" d="m76.92,5.43v-1.25h-1.12v1.25h-.37v-2.66h.37v1.11h1.12v-1.11h.37v2.66h-.37Z"/><path class="cls-3" d="m79.41,5.14s.07.07.13.09l-.08.25c-.11-.01-.19-.04-.25-.09-.06-.05-.11-.12-.14-.22-.14.2-.34.3-.61.3-.2,0-.36-.06-.47-.17-.12-.11-.17-.26-.17-.44,0-.22.08-.38.23-.5s.38-.17.66-.17h.31v-.15c0-.14-.03-.25-.1-.31-.07-.06-.18-.09-.32-.09s-.33.04-.55.11l-.09-.26c.25-.09.49-.14.7-.14.24,0,.42.06.54.18.12.12.18.28.18.5v.93c0,.08.01.14.04.18Zm-.4-.24v-.47h-.27c-.38,0-.56.14-.56.42,0,.12.03.21.09.27s.15.09.26.09c.2,0,.36-.11.48-.32Z"/><path class="cls-3" d="m81.45,3.52c.1.11.16.26.16.46v1.46h-.35v-1.41c0-.14-.03-.25-.08-.3-.05-.06-.13-.09-.24-.09s-.2.03-.29.09c-.08.06-.16.15-.23.27v1.44h-.35v-2.03h.3l.03.3c.07-.11.16-.19.27-.25s.22-.09.35-.09c.19,0,.33.06.43.17Z"/><path class="cls-3" d="m83.92,3.49c-.08.03-.16.04-.25.05-.09,0-.21.01-.34.01.24.11.36.28.36.51,0,.2-.07.37-.21.5-.14.13-.33.19-.57.19-.09,0-.18-.01-.26-.04-.03.02-.06.05-.07.08-.02.03-.03.07-.03.11,0,.11.09.17.27.17h.32c.14,0,.26.02.36.07.11.05.19.12.24.2.06.08.09.18.09.29,0,.2-.08.35-.24.46-.16.11-.4.16-.71.16-.22,0-.39-.02-.52-.07s-.22-.11-.27-.2c-.05-.09-.08-.21-.08-.35h.32c0,.08.02.15.05.19.03.05.09.08.17.11.08.02.19.04.34.04.21,0,.37-.03.46-.08s.14-.13.14-.24c0-.1-.04-.17-.11-.22s-.17-.07-.3-.07h-.32c-.17,0-.3-.04-.39-.11-.09-.07-.13-.17-.13-.28,0-.07.02-.13.06-.19.04-.06.09-.12.17-.17-.12-.06-.2-.14-.26-.23-.06-.09-.08-.2-.08-.33s.03-.26.1-.37c.07-.11.16-.19.28-.25s.25-.09.4-.09c.16,0,.29,0,.4-.02.11-.01.2-.03.27-.06.07-.02.16-.06.26-.11l.1.32Zm-1.34.24c-.07.08-.11.19-.11.33s.04.25.11.33c.07.08.18.13.32.13s.24-.04.32-.12c.07-.08.11-.19.11-.34,0-.3-.15-.45-.44-.45-.13,0-.24.04-.31.13Z"/><path class="cls-3" d="m85.58,5.14s.07.07.13.09l-.08.25c-.11-.01-.19-.04-.25-.09-.06-.05-.11-.12-.14-.22-.14.2-.34.3-.61.3-.2,0-.36-.06-.47-.17-.12-.11-.17-.26-.17-.44,0-.22.08-.38.23-.5s.38-.17.66-.17h.31v-.15c0-.14-.03-.25-.1-.31-.07-.06-.18-.09-.32-.09s-.33.04-.55.11l-.09-.26c.25-.09.49-.14.7-.14.24,0,.42.06.54.18.12.12.18.28.18.5v.93c0,.08.01.14.04.18Zm-.4-.24v-.47h-.27c-.38,0-.56.14-.56.42,0,.12.03.21.09.27s.15.09.26.09c.2,0,.36-.11.48-.32Z"/><path class="cls-3" d="m87.32,3.38l-.07.35c-.06-.02-.12-.02-.18-.02-.13,0-.23.05-.3.14-.08.09-.14.24-.18.43v1.16h-.35v-2.03h.3l.03.41c.05-.15.13-.27.22-.34s.2-.12.32-.12c.07,0,.14,0,.2.02Z"/><path class="cls-3" d="m88.96,5.14s.07.07.13.09l-.08.25c-.11-.01-.19-.04-.25-.09-.06-.05-.11-.12-.14-.22-.14.2-.34.3-.61.3-.2,0-.36-.06-.47-.17-.12-.11-.17-.26-.17-.44,0-.22.08-.38.23-.5s.38-.17.66-.17h.31v-.15c0-.14-.03-.25-.1-.31-.07-.06-.18-.09-.32-.09s-.33.04-.55.11l-.09-.26c.25-.09.49-.14.7-.14.24,0,.42.06.54.18.12.12.18.28.18.5v.93c0,.08.01.14.04.18Zm-.4-.24v-.47h-.27c-.38,0-.56.14-.56.42,0,.12.03.21.09.27s.15.09.26.09c.2,0,.36-.11.48-.32Z"/><path class="cls-3" d="m91.12,5.43h-.3l-.03-.32c-.08.13-.17.22-.27.28-.1.06-.22.09-.37.09-.18,0-.32-.05-.42-.16-.1-.11-.15-.26-.15-.46v-1.46h.35v1.42c0,.14.02.24.07.3.05.06.13.09.24.09.2,0,.37-.12.51-.35v-1.45h.35v2.03Z"/><path class="cls-3" d="m95.19,5.43h-.35l-.09-1.2c-.04-.47-.06-.83-.07-1.08l-.57,1.98h-.34l-.61-1.99c0,.32-.02.69-.05,1.11l-.09,1.17h-.35l.22-2.66h.49l.56,1.93.53-1.93h.5l.22,2.66Z"/><path class="cls-3" d="m97.17,5.14s.07.07.13.09l-.08.25c-.11-.01-.19-.04-.25-.09-.06-.05-.11-.12-.14-.22-.14.2-.34.3-.61.3-.2,0-.36-.06-.47-.17-.12-.11-.17-.26-.17-.44,0-.22.08-.38.23-.5s.38-.17.66-.17h.31v-.15c0-.14-.03-.25-.1-.31-.07-.06-.18-.09-.32-.09s-.33.04-.55.11l-.09-.26c.25-.09.49-.14.7-.14.24,0,.42.06.54.18.12.12.18.28.18.5v.93c0,.08.01.14.04.18Zm-.4-.24v-.47h-.27c-.38,0-.56.14-.56.42,0,.12.03.21.09.27s.15.09.26.09c.2,0,.36-.11.48-.32Z"/><path class="cls-3" d="m98.84,5.34c-.13.09-.29.14-.46.14s-.31-.05-.4-.15c-.1-.1-.14-.24-.14-.43v-1.23h-.35v-.27h.35v-.46l.35-.04v.5h.48l-.04.27h-.44v1.21c0,.11.02.18.06.23s.1.07.19.07c.08,0,.17-.03.27-.08l.13.24Z"/><path class="cls-3" d="m99.53,2.49s.07.1.07.17-.02.13-.07.17c-.05.04-.11.07-.18.07s-.13-.02-.18-.07-.07-.1-.07-.17.02-.13.07-.17.11-.07.18-.07.13.02.18.07Zm0,.91v2.03h-.35v-2.03h.35Z"/><path class="cls-3" d="m101.61,3.52c.1.11.16.26.16.46v1.46h-.35v-1.41c0-.14-.03-.25-.08-.3-.06-.06-.14-.09-.24-.09s-.2.03-.28.09c-.08.06-.16.15-.23.26v1.45h-.35v-2.85l.35-.04v1.13c.16-.22.36-.33.6-.33.19,0,.33.06.43.17Z"/><path class="cls-3" d="m102.8,2.49s.07.1.07.17-.02.13-.07.17c-.05.04-.11.07-.18.07s-.13-.02-.18-.07-.07-.1-.07-.17.02-.13.07-.17.11-.07.18-.07.13.02.18.07Zm0,.91v2.03h-.35v-2.03h.35Z"/><path class="cls-3" d="m103.84,2.54v2.89h-.35v-2.85l.35-.04Zm1.17.86l-.75.9.83,1.13h-.42l-.81-1.11.75-.92h.4Z"/><path class="cls-3" d="m106.82,3.64c.16.19.24.45.24.78,0,.21-.04.4-.11.56-.07.16-.18.29-.31.37s-.3.13-.49.13c-.29,0-.51-.1-.67-.29-.16-.19-.24-.45-.24-.78,0-.21.04-.4.11-.56.07-.16.18-.29.31-.37.14-.09.3-.13.49-.13.29,0,.51.1.67.29Zm-1.19.78c0,.52.17.78.52.78s.52-.26.52-.78-.17-.78-.52-.78-.53.26-.53.78Z"/><path class="cls-3" d="m110.02,5.43l-.2-.67h-1.01l-.2.67h-.37l.85-2.66h.46l.85,2.66h-.39Zm-1.12-.96h.83l-.41-1.39-.42,1.39Z"/><path class="cls-3" d="m112.19,3.64c.16.19.24.45.24.78,0,.21-.04.4-.11.56-.07.16-.18.29-.31.37s-.3.13-.49.13c-.29,0-.51-.1-.67-.29-.16-.19-.24-.45-.24-.78,0-.21.04-.4.11-.56.07-.16.18-.29.31-.37.14-.09.3-.13.49-.13.29,0,.51.1.67.29Zm-1.19.78c0,.52.17.78.52.78s.52-.26.52-.78-.17-.78-.52-.78-.53.26-.53.78Z"/><path class="cls-3" d="m114,5.34c-.13.09-.29.14-.46.14s-.31-.05-.4-.15c-.1-.1-.14-.24-.14-.43v-1.23h-.35v-.27h.35v-.46l.35-.04v.5h.48l-.04.27h-.44v1.21c0,.11.02.18.06.23s.1.07.19.07c.08,0,.17-.03.27-.08l.13.24Z"/><path class="cls-3" d="m115.8,4.54h-1.3c.02.22.07.39.17.49.1.11.22.16.38.16.1,0,.19-.01.27-.04.08-.03.17-.07.26-.13l.15.21c-.22.17-.45.25-.71.25-.28,0-.5-.09-.66-.28-.16-.19-.24-.44-.24-.76,0-.21.03-.4.1-.56.07-.16.17-.29.29-.38.13-.09.28-.14.45-.14.27,0,.48.09.62.27s.22.42.22.74c0,.06,0,.12,0,.18Zm-.34-.29c0-.2-.04-.35-.12-.46-.08-.11-.2-.16-.36-.16-.29,0-.45.21-.47.64h.95v-.02Z"/><path class="cls-3" d="m117.71,5.14s.07.07.13.09l-.08.25c-.11-.01-.19-.04-.25-.09-.06-.05-.11-.12-.14-.22-.14.2-.34.3-.61.3-.2,0-.36-.06-.47-.17-.12-.11-.17-.26-.17-.44,0-.22.08-.38.23-.5s.38-.17.66-.17h.31v-.15c0-.14-.03-.25-.1-.31-.07-.06-.18-.09-.32-.09s-.33.04-.55.11l-.09-.26c.25-.09.49-.14.7-.14.24,0,.42.06.54.18.12.12.18.28.18.5v.93c0,.08.01.14.04.18Zm-.4-.24v-.47h-.27c-.38,0-.56.14-.56.42,0,.12.03.21.09.27s.15.09.26.09c.2,0,.36-.11.48-.32Z"/><path class="cls-3" d="m119.44,3.38l-.07.35c-.06-.02-.12-.02-.18-.02-.13,0-.23.05-.3.14-.08.09-.14.24-.18.43v1.16h-.35v-2.03h.3l.03.41c.05-.15.13-.27.22-.34s.2-.12.32-.12c.07,0,.14,0,.2.02Z"/><path class="cls-3" d="m121.12,3.64c.16.19.24.45.24.78,0,.21-.04.4-.11.56-.07.16-.18.29-.31.37s-.3.13-.49.13c-.29,0-.51-.1-.67-.29-.16-.19-.24-.45-.24-.78,0-.21.04-.4.11-.56.07-.16.18-.29.31-.37.14-.09.3-.13.49-.13.29,0,.51.1.67.29Zm-1.19.78c0,.52.17.78.52.78s.52-.26.52-.78-.17-.78-.52-.78-.53.26-.53.78Z"/><path class="cls-3" d="m123.27,5.14s.07.07.13.09l-.08.25c-.11-.01-.19-.04-.25-.09-.06-.05-.11-.12-.14-.22-.14.2-.34.3-.61.3-.2,0-.36-.06-.47-.17-.12-.11-.17-.26-.17-.44,0-.22.08-.38.23-.5s.38-.17.66-.17h.31v-.15c0-.14-.03-.25-.1-.31-.07-.06-.18-.09-.32-.09s-.33.04-.55.11l-.09-.26c.25-.09.49-.14.7-.14.24,0,.42.06.54.18.12.12.18.28.18.5v.93c0,.08.01.14.04.18Zm-.4-.24v-.47h-.27c-.38,0-.56.14-.56.42,0,.12.03.21.09.27s.15.09.26.09c.2,0,.36-.11.48-.32Z"/><line class="cls-5" x1="53.39" y1="7.62" x2="123.92" y2="7.62"/></svg>