<?xml version="1.0" encoding="UTF-8"?><svg id="blacktext-tagline" xmlns="http://www.w3.org/2000/svg" viewBox="0 0 54.38 16.26"><defs><style>.cls-1{fill:none;}.cls-1,.cls-2,.cls-3{stroke-width:0px;}.cls-2{fill:#fff;}.cls-3{fill:#db1f2d;}</style></defs><polygon class="cls-1" points="44.28 9.63 47.35 9.63 45.84 4.77 44.28 9.63"/><path class="cls-2" d="m14.16.77l-.98,2.82c-.63-.75-1.42-1.38-2.38-1.88-.61-.32-1.4-.55-2.37-.71-.97-.15-2.15-.23-3.52-.23H.57v14.88h3.93c1.63,0,2.92-.07,3.89-.22.97-.15,1.77-.39,2.4-.71,1.29-.68,2.28-1.58,2.97-2.69.68-1.11,1.03-2.38,1.03-3.8,0-.93-.15-1.79-.43-2.58h1.93v10.01h5.35V5.64h4.82l1.7-4.87h-14Zm-5.64,9.63c-.56.46-1.44.7-2.64.71v-5.76h.23c1.1,0,1.91.24,2.44.71.53.47.8,1.2.8,2.16s-.28,1.72-.83,2.18Z"/><polygon class="cls-2" points="28.16 .77 26.46 5.64 26.4 5.64 28.18 .77 28.16 .77"/><polygon class="cls-2" points="38.08 5.64 40.45 5.64 42.15 .77 28.85 .77 27.07 5.64 32.74 5.64 32.74 15.65 36.8 15.65 38.08 12.17 38.08 5.64"/><rect class="cls-2" x="24.73" y="3.2" width="5.16" height="0" transform="translate(15.28 27.93) rotate(-70.75)"/><polygon class="cls-1" points="44.28 9.63 47.35 9.63 45.84 4.77 44.28 9.63"/><polygon class="cls-1" points="44.28 9.63 47.35 9.63 45.84 4.77 44.28 9.63"/><polygon class="cls-1" points="44.28 9.63 47.35 9.63 45.84 4.77 44.28 9.63"/><path class="cls-3" d="m48.8.77h-5.95l-4.77,13.37-.54,1.51h5.74l.46-1.87h4.03l.48,1.87h5.75L48.8.77Zm-4.53,8.86l1.56-4.86,1.52,4.86h-3.08Z"/><path class="cls-2" d="m27.64,15.8h-.65s-.04,0-.05-.01c-.28-.03-.56-.05-.83-.09-.27-.04-.53-.11-.8-.16,0,0,0-.01,0-.02.12.02.25.04.37.05.51.04,1.02.03,1.53-.05.52-.08,1.02-.21,1.49-.45.37-.19.71-.43.97-.76.6-.76,1.01-1.6,1.19-2.55.1-.5.11-1,0-1.49-.1-.48-.29-.92-.62-1.28-.5-.56-1.1-.95-1.81-1.19-.61-.2-1.22-.2-1.82,0-.49.16-.92.43-1.32.76-.32.26-.56.58-.72.96-.15.35-.23.72-.24,1.09-.03.56.05,1.1.32,1.61.12.23.28.43.49.59.24.18.51.28.81.3.39.03.78.02,1.16-.1.34-.11.62-.3.81-.6.16-.26.26-.55.29-.86.05-.48-.13-.89-.46-1.22-.16-.17-.38-.23-.61-.27-.43-.08-.79.04-1.08.36-.09.1-.16.21-.25.33,0-.11.01-.22.03-.32.06-.38.23-.71.52-.97.33-.29.72-.42,1.14-.47.55-.06,1.03.1,1.47.43.35.27.62.61.84.98.13.22.24.45.3.7.12.49.07.97-.07,1.45-.19.63-.54,1.18-1.01,1.65-.37.36-.79.65-1.27.83-.28.1-.56.15-.85.2-.58.09-1.15.08-1.73-.05-.86-.19-1.55-.64-2.08-1.34-.49-.64-.74-1.38-.83-2.17-.02-.14-.03-.28-.04-.42v-.39c0-.09.02-.18.02-.27.06-.71.25-1.38.59-2,.42-.77,1.01-1.38,1.78-1.81.65-.36,1.35-.56,2.08-.61.11,0,.22-.01.32-.02h.31c.12,0,.23.02.35.02.46.04.91.12,1.35.28,1.05.38,1.83,1.07,2.35,2.06.37.71.56,1.47.62,2.26.01.14.02.27.02.41v.1s0,.04,0,.07c-.01.35-.08.69-.19,1.02-.24.74-.63,1.4-1.14,1.99-.27.31-.56.6-.9.83-.57.38-1.21.55-1.89.62-.09,0-.18.02-.27.02Z"/></svg>