<svg id="Layer_1" data-name="Layer 1" xmlns="http://www.w3.org/2000/svg" width="713.25103" height="218" viewBox="0 0 713.25103 218">
  <title>DR - Logo Blue Text</title>
  <g>
    <g>
      <path d="M135.3884,119.53236h12.67633c12.00778,0,18.15173,8.1538,18.15173,19.63075,0,11.533-6.144,19.68678-18.15173,19.68678H135.3884Zm12.51012,34.76606c8.87978,0,13.12452-5.94833,13.12452-15.13531,0-9.10341-4.24474-15.07928-13.12452-15.07928h-7.51279v30.21459Z" fill="#272247"/>
      <path d="M171.57047,121.68274a3.25315,3.25315,0,1,1,3.26806,3.26712A3.26662,3.26662,0,0,1,171.57047,121.68274Zm.81048,9.71733h4.85913v27.44982H172.381Z" fill="#272247"/>
      <path d="M209.353,131.40007V157.4535c0,9.35505-5.08323,14.43688-13.37663,14.43688-6.87039,0-11.1973-3.09952-13.3206-8.405l3.9945-1.95477c1.59108,4.16071,4.579,6.33863,9.186,6.33863,5.72564,0,8.65756-3.8535,8.65756-10.16412v-5.0823a10.8754,10.8754,0,0,1-9.63424,5.44505c-6.84238,0-12.53814-5.64067-12.53814-13.62686,0-8.01422,5.72377-13.57132,12.59417-13.57132a10.69935,10.69935,0,0,1,9.63423,5.58465l.11018-5.05429Zm-4.46883,13.041c0-5.16634-3.9086-9.5502-8.93581-9.5502-4.94317,0-8.90779,4.07713-8.90779,9.5502,0,5.417,4.02064,9.52218,8.90779,9.52218C200.94751,153.96321,204.88412,149.57888,204.88412,144.441Z" fill="#272247"/>
      <path d="M216.07581,121.68274a3.25315,3.25315,0,1,1,3.26806,3.26712A3.26662,3.26662,0,0,1,216.07581,121.68274Zm.81048,9.71733h4.85914v27.44982h-4.85914Z" fill="#272247"/>
      <path d="M231.87827,151.39405V135.25358h-5.61172v-3.85351H228.332c2.87589,0,3.91047-1.17276,3.91047-4.18871v-4.97025h4.495v9.159h6.312v3.85351h-6.312v15.63766c0,2.68074,1.59108,4.10515,3.79842,4.10515h2.5136v3.8535H239.195C234.7,158.84989,231.87827,156.14114,231.87827,151.39405Z" fill="#272247"/>
      <path d="M246.49863,151.86885c0-5.69669,4.41281-7.62344,10.38869-8.6286l4.439-.726c1.67511-.3072,2.42956-1.14522,2.42956-2.54115,0-3.9931-2.9039-5.38949-6.05991-5.38949-3.21017,0-5.89184,1.452-6.33816,5.11031l-4.35679-.92159c.83849-5.30593,4.83112-7.84661,10.919-7.84661,5.50154,0,10.52688,2.28951,10.52688,9.49417v11.33736c0,2.95993.8665,3.60187,2.79372,3.60187h.44632v3.49075H269.2854c-2.79186,0-4.663-1.14475-5.19341-3.71391h-.2241a10.80732,10.80732,0,0,1-8.99183,4.24427C250.32506,159.38025,246.49863,157.11876,246.49863,151.86885ZM264.12,145.55777l-7.26069,1.39639c-3.65836.6144-5.6416,1.81517-5.6416,4.52393,0,2.84788,2.1233,3.9931,4.7751,3.9931C260.79592,155.47119,264.12,151.78482,264.12,145.55777Z" fill="#272247"/>
      <path d="M277.351,115.958h4.88715v42.89186H277.351Z" fill="#272247"/>
      <path d="M317.141,141.11788h-6.172v17.732h-4.99733V119.53236h13.04049c8.0693,0,11.8397,4.97071,11.8397,11.11373,0,5.44551-3.212,9.35505-8.71171,10.27617l10.9452,17.92763h-5.83582Zm-6.172-3.93708h7.37274c5.27744,0,7.679-2.68074,7.679-6.59027,0-3.85351-2.40156-6.67384-7.679-6.67384H310.969Z" fill="#272247"/>
      <path d="M361.40915,145.893H339.96322c.13819,6.36664,4.1607,9.46616,8.87978,9.46616a8.34827,8.34827,0,0,0,7.679-4.94224l4.35492.92113a12.55133,12.55133,0,0,1-11.9779,8.04222c-7.98713,0-13.65675-5.27745-13.65675-14.26927,0-8.96382,5.78167-14.24127,13.51669-14.24127,7.37087,0,12.70434,4.52393,12.70434,13.71091Zm-21.25172-3.71392H356.606c-.39217-5.11031-3.54631-7.59543-7.84708-7.59543C344.37416,134.58363,340.96791,137.06875,340.15743,142.17906Z" fill="#272247"/>
      <path d="M366.98539,151.86885c0-5.69669,4.41281-7.62344,10.38869-8.6286l4.439-.726c1.67512-.3072,2.42957-1.14522,2.42957-2.54115,0-3.9931-2.9039-5.38949-6.05991-5.38949-3.21017,0-5.89184,1.452-6.33817,5.11031l-4.35679-.92159c.83849-5.30593,4.83113-7.84661,10.91905-7.84661,5.50154,0,10.52688,2.28951,10.52688,9.49417v11.33736c0,2.95993.86651,3.60187,2.79373,3.60187h.44632v3.49075h-2.40156c-2.79185,0-4.663-1.14475-5.19341-3.71391h-.22409a10.80733,10.80733,0,0,1-8.99183,4.24427C370.81182,159.38025,366.98539,157.11876,366.98539,151.86885Zm17.62136-6.31108-7.26069,1.39639c-3.65835.6144-5.6416,1.81517-5.6416,4.52393,0,2.84788,2.12331,3.9931,4.7751,3.9931C381.28267,155.47119,384.60675,151.78482,384.60675,145.55777Z" fill="#272247"/>
      <path d="M422.3687,115.958v42.89186h-4.66492l-.11018-5.33347a10.557,10.557,0,0,1-9.71827,5.91986c-7.0366,0-12.8444-5.61266-12.8444-14.29729,0-8.65662,5.83581-14.26928,12.8444-14.26928a10.61549,10.61549,0,0,1,9.66224,5.75225V115.958Zm-4.52486,29.181c0-5.78026-3.96462-10.10857-8.96382-10.10857-4.99733,0-9.01984,3.9931-9.01984,10.10857s4.02251,10.10857,9.01984,10.10857C413.90723,155.24756,417.84384,150.91925,417.84384,145.139Z" fill="#272247"/>
      <path d="M429.66487,121.68274a3.25315,3.25315,0,1,1,3.26806,3.26712A3.26662,3.26662,0,0,1,429.66487,121.68274Zm.81048,9.71733h4.85913v27.44982h-4.85913Z" fill="#272247"/>
      <path d="M465.89362,140.36389v18.486H461.0625v-17.3968c0-4.69153-2.76384-6.50671-5.97588-6.50671-3.76853,0-6.78448,2.318-6.8125,7.48386v16.41965H443.443V131.40007h4.83112v3.51877a9.407,9.407,0,0,1,8.12533-4.04913C462.04105,130.86971,465.89362,134.19286,465.89362,140.36389Z" fill="#272247"/>
      <path d="M498.03077,145.893H476.58484c.13819,6.36664,4.16071,9.46616,8.87978,9.46616a8.34826,8.34826,0,0,0,7.679-4.94224l4.35493.92113a12.55133,12.55133,0,0,1-11.9779,8.04222c-7.98714,0-13.65675-5.27745-13.65675-14.26927,0-8.96382,5.78166-14.24127,13.51669-14.24127,7.37087,0,12.70434,4.52393,12.70434,13.71091Zm-21.25171-3.71392h16.4486c-.39217-5.11031-3.54631-7.59543-7.84707-7.59543C480.99579,134.58363,477.58954,137.06875,476.77906,142.17906Z" fill="#272247"/>
      <path d="M503.32689,151.75727l4.21673-1.20078c.6144,3.32269,3.18216,5.16587,6.75648,5.16587,2.68167,0,5.55756-1.03317,5.47353-4.21673-.084-3.35069-3.68637-3.90906-8.09732-5.24943-3.82643-1.14522-7.56882-2.62519-7.56882-7.56789,0-5.389,4.41281-7.76257,9.69026-7.76257,4.99919,0,9.1599,2.17793,10.02453,7.14864l-3.96462,1.00516c-.61439-3.26712-3.184-4.6355-6.0319-4.6355-2.5136,0-5.22142,1.06118-5.22142,3.90953,0,3.04349,3.26619,3.74146,6.78449,4.635,4.32877,1.11721,9.04785,2.56916,9.04785,8.32187,0,5.80828-4.7751,8.06977-10.10857,8.06977C508.5203,159.38025,504.19153,156.72752,503.32689,151.75727Z" fill="#272247"/>
      <path d="M529.71039,151.75727l4.21673-1.20078c.61439,3.32269,3.18215,5.16587,6.75648,5.16587,2.68167,0,5.55756-1.03317,5.47353-4.21673-.084-3.35069-3.68637-3.90906-8.09732-5.24943-3.82643-1.14522-7.56882-2.62519-7.56882-7.56789,0-5.389,4.41281-7.76257,9.69026-7.76257,4.99919,0,9.1599,2.17793,10.02453,7.14864l-3.96462,1.00516c-.61439-3.26712-3.184-4.6355-6.0319-4.6355-2.5136,0-5.22142,1.06118-5.22142,3.90953,0,3.04349,3.26619,3.74146,6.78449,4.635,4.32877,1.11721,9.04785,2.56916,9.04785,8.32187,0,5.80828-4.7751,8.06977-10.10857,8.06977C534.9038,159.38025,530.575,156.72752,529.71039,151.75727Z" fill="#272247"/>
    </g>
    <g>
      <path d="M146.77522,81.85585h-2.95993V99.00148h-8.37743V58.65077h8.37743V74.51159h2.84788l12.65019-15.86082H169.534L153.89585,77.94632l16.11246,21.05516h-10.695Z" fill="#272247"/>
      <path d="M174.38377,61.35952a4.635,4.635,0,1,1,4.663,4.63551A4.6595,4.6595,0,0,1,174.38377,61.35952Zm.55837,8.93581h8.09732V99.00148h-8.09732Z" fill="#272247"/>
      <path d="M215.59492,98.21948v.782H208.084l-.64241-3.12753c-2.14945,2.59717-5.86383,3.6859-9.21592,3.6859-4.523,0-8.93581-2.01032-8.93581-7.9862,0-5.94786,4.44083-7.95865,10.44471-9.271l4.71908-1.06118c2.03927-.47481,2.76384-1.17277,2.76384-2.34554,0-2.82033-2.56776-3.60233-4.83112-3.60233-2.9039,0-5.10937,1.14522-5.61172,4.38433L189.654,78.39311c1.20077-5.94787,5.55756-8.65662,13.18054-8.65662,5.75178,0,12.0638,1.70359,12.0638,10.36021V91.21043A26.85207,26.85207,0,0,0,215.59492,98.21948ZM207.63766,85.877l-6.81437,1.92676c-2.23348.53082-3.85257,1.31235-3.85257,3.23911,0,2.06681,1.70313,3.072,3.76854,3.072C204.56569,94.1148,207.63766,91.57365,207.63766,85.877Z" fill="#272247"/>
      <path d="M261.38134,66.02258h-9.57821v32.9789h-8.2934V66.02258H233.8755V58.65077h27.50584Z" fill="#272247"/>
      <path d="M286.312,98.21948v.782H278.801l-.6424-3.12753c-2.14945,2.59717-5.86383,3.6859-9.21593,3.6859-4.523,0-8.9358-2.01032-8.9358-7.9862,0-5.94786,4.44082-7.95865,10.44471-9.271l4.71908-1.06118c2.03927-.47481,2.76384-1.17277,2.76384-2.34554,0-2.82033-2.56776-3.60233-4.83112-3.60233-2.90391,0-5.10938,1.14522-5.61173,4.38433L260.371,78.39311c1.20078-5.94787,5.55757-8.65662,13.18055-8.65662,5.75178,0,12.0638,1.70359,12.0638,10.36021V91.21043A26.85265,26.85265,0,0,0,286.312,98.21948ZM278.3547,85.877l-6.81437,1.92676c-2.23348.53082-3.85257,1.31235-3.85257,3.23911,0,2.06681,1.70312,3.072,3.76854,3.072C275.28272,94.1148,278.3547,91.57365,278.3547,85.877Z" fill="#272247"/>
      <path d="M303.22742,86.93815h-1.677V99.00148h-8.12533V56.10962h8.12533V81.353h1.50891l9.01984-11.05771h9.102L309.87185,83.615l12.37193,15.38648h-9.77429Z" fill="#272247"/>
      <path d="M349.49191,98.21948v.782H341.981l-.6424-3.12753c-2.14945,2.59717-5.86383,3.6859-9.21593,3.6859-4.523,0-8.9358-2.01032-8.9358-7.9862,0-5.94786,4.44082-7.95865,10.44471-9.271l4.71908-1.06118c2.03927-.47481,2.76384-1.17277,2.76384-2.34554,0-2.82033-2.56776-3.60233-4.83112-3.60233-2.9039,0-5.10938,1.14522-5.61172,4.38433L323.551,78.39311c1.20077-5.94787,5.55756-8.65662,13.18054-8.65662,5.75178,0,12.0638,1.70359,12.0638,10.36021V91.21043A26.85265,26.85265,0,0,0,349.49191,98.21948ZM341.53466,85.877l-6.81437,1.92676c-2.23348.53082-3.85257,1.31235-3.85257,3.23911,0,2.06681,1.70312,3.072,3.76854,3.072C338.46269,94.1148,341.53466,91.57365,341.53466,85.877Z" fill="#272247"/>
      <path d="M356.98791,90.03767V76.46636H351.3463v-6.171h1.81518c3.044,0,4.71907-1.17277,4.71907-5.47306V61.02432h7.26069v9.271h5.91986v6.171h-5.91986V89.1721c0,2.56916,1.2568,3.71391,3.32408,3.71391h2.59578v6.11547h-5.30546C360.17006,99.00148,356.98791,95.76237,356.98791,90.03767Z" fill="#272247"/>
      <path d="M403.20011,70.29533V99.00148h-7.62484l-.19422-3.46274a11.252,11.252,0,0,1-9.13189,4.02111c-6.89653,0-10.695-3.60233-10.695-9.941V70.29533h8.0693V87.88775c0,3.79748,2.37354,5.19388,5.16727,5.19388,3.32221,0,6.33816-1.67558,6.36617-6.95349V70.29533Zm-4.21673-4.71954h-18.542V60.8287h18.542Z" fill="#272247"/>
      <path d="M448.81846,98.21948v.782h-7.51093l-.6424-3.12753c-2.14945,2.59717-5.86383,3.6859-9.21593,3.6859-4.523,0-8.9358-2.01032-8.9358-7.9862,0-5.94786,4.44082-7.95865,10.44471-9.271l4.71908-1.06118c2.03927-.47481,2.76384-1.17277,2.76384-2.34554,0-2.82033-2.56776-3.60233-4.83112-3.60233-2.90391,0-5.10938,1.14522-5.61172,4.38433l-7.12064-1.28481c1.20078-5.94787,5.55757-8.65662,13.18055-8.65662,5.75178,0,12.0638,1.70359,12.0638,10.36021V91.21043A26.85265,26.85265,0,0,0,448.81846,98.21948Zm-3.35022-32.64369h-18.542V60.8287h18.542Zm-4.607,20.30117-6.81437,1.92676c-2.23348.53082-3.85257,1.31235-3.85257,3.23911,0,2.06681,1.70312,3.072,3.76854,3.072C437.78924,94.1148,440.86121,91.57365,440.86121,85.877Z" fill="#272247"/>
      <path d="M455.84759,80.76665h20.02292v6.72987H455.84759Z" fill="#272247"/>
      <path d="M523.05567,99.00148,520.402,68.59174,510.18138,99.00148h-5.4175L494.54326,68.59174l-2.67981,30.40974H483.486l3.37824-40.35071H498.816l8.60153,25.32745,8.71171-25.32745H528.081l3.32409,40.35071Z" fill="#272247"/>
      <path d="M562.02025,98.21948v.782h-7.51093l-.64241-3.12753c-2.14944,2.59717-5.86382,3.6859-9.21592,3.6859-4.523,0-8.9358-2.01032-8.9358-7.9862,0-5.94786,4.44082-7.95865,10.44471-9.271l4.71908-1.06118c2.03926-.47481,2.76384-1.17277,2.76384-2.34554,0-2.82033-2.56776-3.60233-4.83112-3.60233-2.90391,0-5.10938,1.14522-5.61173,4.38433l-7.12063-1.28481c1.20078-5.94787,5.55757-8.65662,13.18055-8.65662,5.75178,0,12.0638,1.70359,12.0638,10.36021V91.21043A26.8522,26.8522,0,0,0,562.02025,98.21948ZM554.063,85.877l-6.81437,1.92676c-2.23348.53082-3.85257,1.31235-3.85257,3.23911,0,2.06681,1.70312,3.072,3.76853,3.072C550.991,94.1148,554.063,91.57365,554.063,85.877Z" fill="#272247"/>
      <path d="M569.51811,90.03767V76.46636h-5.6416v-6.171h1.81517c3.044,0,4.71908-1.17277,4.71908-5.47306V61.02432h7.26069v9.271h5.91985v6.171h-5.91985V89.1721c0,2.56916,1.2568,3.71391,3.32408,3.71391h2.59577v6.11547h-5.30546C572.70027,99.00148,569.51811,95.76237,569.51811,90.03767Z" fill="#272247"/>
      <path d="M588.11056,61.35952a4.635,4.635,0,1,1,4.663,4.63551A4.65949,4.65949,0,0,1,588.11056,61.35952Zm.55837,8.93581h8.09731V99.00148h-8.09731Z" fill="#272247"/>
      <path d="M631.58693,80.48747v18.514h-8.07117V81.80029c0-4.21673-2.34553-5.61312-5.22142-5.61312-2.98794,0-6.256,1.48-6.31015,6.981V99.00148H603.941V56.10962h8.04316V73.73006a11.64644,11.64644,0,0,1,9.3261-3.99357C627.73249,69.73649,631.58693,73.31081,631.58693,80.48747Z" fill="#272247"/>
      <path d="M637.61136,61.35952a4.635,4.635,0,1,1,4.66306,4.63551A4.6595,4.6595,0,0,1,637.61136,61.35952Zm.55837,8.93581h8.09732V99.00148h-8.09732Z" fill="#272247"/>
      <path d="M663.24414,86.93815h-1.677V99.00148h-8.12532V56.10962h8.12532V81.353h1.50891l9.01984-11.05771h9.102L669.88857,83.615,682.2605,99.00148h-9.77429Z" fill="#272247"/>
      <path d="M681.78057,84.62063c0-9.327,6.53424-14.88414,15.72216-14.88414,9.24206,0,15.7483,5.5571,15.7483,14.88414,0,9.38259-6.53425,14.93922-15.7483,14.93922C688.37084,99.55985,681.78057,94.00322,681.78057,84.62063Zm23.48519,0c0-5.13832-3.184-8.545-7.84707-8.545-4.49685,0-7.651,3.40672-7.651,8.545,0,5.13785,3.15414,8.54457,7.651,8.54457C702.08174,93.1652,705.26576,89.75848,705.26576,84.62063Z" fill="#272247"/>
    </g>
  </g>
  <g>
    <path d="M47.36585,23.74527q.15963-4.53372.31386-9.262A57.16333,57.16333,0,0,0,47.36585,23.74527Z" fill="none"/>
    <polygon points="51.542 98.283 51.541 98.284 51.542 98.285 51.542 98.283" fill="none"/>
    <path d="M30.68472,94.49053c-.05086.09533-.10033.19067-.15146.286q.08814-.02454.17612-.0485C30.70149,94.64905,30.69234,94.56979,30.68472,94.49053Z" fill="none"/>
    <path d="M36.89277,21.61712C34.99742,27.11361,34.47,33.76938,35.233,40.94839A187.4691,187.4691,0,0,1,51.5016,0S42.56858,5.15728,36.89277,21.61712Z" fill="#c92321"/>
    <path d="M51.45615,155.36188q-2.08437-3.07208-3.97071-6.41438a22.19272,22.19272,0,0,1-14.83123-11.56279q-2.54123,3.54849-5.40712,7.09753-2.80915,3.46992-5.82948,6.51969a99.61068,99.61068,0,0,0,13.07347,23.28023A96.47542,96.47542,0,0,0,51.45615,155.36188Z" fill="#ff9b19"/>
    <path d="M51.45615,155.36188a96.47542,96.47542,0,0,1-16.96507,18.92028,121.74784,121.74784,0,0,0,15.41558,16.90548,113.99619,113.99619,0,0,0,17.59181-17.71417A96.09733,96.09733,0,0,1,51.45615,155.36188Z" fill="#ffae19"/>
    <path d="M47.12238,30.70866a178.73261,178.73261,0,0,1-5.07857,34.28486,89.45476,89.45476,0,0,0,5.44093,10.12777C46.23014,61.46028,46.56506,46.99612,47.12238,30.70866Z" fill="#ee1e22"/>
    <path d="M60.16357,113.28138A20.13,20.13,0,0,0,51.5422,98.28484,115.166,115.166,0,0,0,59.713,119.63812,21.26,21.26,0,0,0,60.16357,113.28138Z" fill="#ff633d"/>
    <path d="M50.79849,149.32275a19.16738,19.16738,0,0,1-3.31305-.37525q1.88232,3.3423,3.97071,6.41438,2.13632-3.149,4.06341-6.58288A17.65448,17.65448,0,0,1,50.79849,149.32275Z" fill="#ff8e3d"/>
    <path d="M44.55511,132.01154c7.04321.50827,13.35726-4.514,15.15784-12.37342A115.166,115.166,0,0,1,51.5422,98.28484l-.00083-.00056a119.9193,119.9193,0,0,1-5.24,15.01428A10.25926,10.25926,0,0,1,44.55511,132.01154Z" fill="#ff793d"/>
    <path d="M69.79748,109.35571a117.92057,117.92057,0,0,0,1.77729-15.28477c-6.5402-12.206-11.13724-25.5475-14.65164-40.44427a192.11942,192.11942,0,0,1-2.41471,31.22275c.0927.11141.18138.22559.27492.33672C62.25764,94.08092,67.0441,102.16063,69.79748,109.35571Z" fill="#ff633d"/>
    <path d="M43.70374,112.43a9.27933,9.27933,0,0,1,2.59762.86855,119.9193,119.9193,0,0,0,5.24-15.01428,25.63167,25.63167,0,0,0-15.24971-4.38544,22.54065,22.54065,0,0,0-5.58228.8292,141.16155,141.16155,0,0,0,3.70993,21.01877A9.362,9.362,0,0,1,43.70374,112.43Z" fill="#ff633d"/>
    <path d="M21.41761,151.00193c-.92966-2.37175-1.77882-4.81-2.52557-7.32312a140.44465,140.44465,0,0,1-5.04254-25.02038A134.64051,134.64051,0,0,1,1.19769,131.12858,71.50237,71.50237,0,0,0,0,144.49831a63.49423,63.49423,0,0,0,3.51884,20.69563A94.31648,94.31648,0,0,0,21.41761,151.00193Z" fill="#ff9b19"/>
    <path d="M21.41761,151.00193a94.31648,94.31648,0,0,1-17.89874,14.192,79.479,79.479,0,0,0,12.12649,22.18581,114.47387,114.47387,0,0,0,18.84572-13.09759A99.61068,99.61068,0,0,1,21.41761,151.00193Z" fill="#ffae19"/>
    <path d="M34.49108,174.28216a114.47387,114.47387,0,0,1-18.84572,13.09759,111.80079,111.80079,0,0,0,15.58449,16.46316,131.98716,131.98716,0,0,0,18.67681-12.65527A121.74784,121.74784,0,0,1,34.49108,174.28216Z" fill="#ffc23c"/>
    <path d="M31.22985,203.84291A120.22487,120.22487,0,0,0,51.08229,218a93.31927,93.31927,0,0,0,18.29186-11.90644,144.97128,144.97128,0,0,1-19.46749-14.90592A131.98716,131.98716,0,0,1,31.22985,203.84291Z" fill="#ffd642"/>
    <path d="M13.8495,118.65843q-.6797-6.30961-.77488-12.56492c-5.35073,5.95211-9.82929,14.20808-11.87693,25.03507A134.64051,134.64051,0,0,0,13.8495,118.65843Z" fill="#ff793d"/>
    <path d="M30.53326,94.77654a37.69727,37.69727,0,0,0-17.45864,11.317q.101,6.25557.77488,12.56492A124.70766,124.70766,0,0,0,30.53326,94.77654Z" fill="#ff633d"/>
    <path d="M88.97439,118.75349a143.48337,143.48337,0,0,0,15.66,14.82111c-1.01017-16.59619-5.8759-29.14947-15.32745-42.10073A120.53179,120.53179,0,0,1,88.97439,118.75349Z" fill="#ff793d"/>
    <path d="M88.97439,118.75349a143.8173,143.8173,0,0,1-4.95428,23.22258,90.37174,90.37174,0,0,1-3.05823,8.65006,91.00633,91.00633,0,0,0,18.94675,15.25179,64.19191,64.19191,0,0,0,4.90037-22.51338c.07732-3.42849.015-6.676-.1746-9.78994A143.48337,143.48337,0,0,1,88.97439,118.75349Z" fill="#ff9b19"/>
    <path d="M80.96188,150.62613a95.42209,95.42209,0,0,1-13.46341,22.84734A114.02634,114.02634,0,0,0,87.3976,187.454a93.48282,93.48282,0,0,0,12.511-21.5761A91.00633,91.00633,0,0,1,80.96188,150.62613Z" fill="#ffae19"/>
    <path d="M49.90666,191.18764a144.97128,144.97128,0,0,0,19.46749,14.90592A113.56745,113.56745,0,0,0,87.3976,187.454a114.02634,114.02634,0,0,1-19.89913-13.98055A113.99619,113.99619,0,0,1,49.90666,191.18764Z" fill="#ffc23c"/>
    <path d="M18.892,143.67881c.74675,2.5131,1.59591,4.95137,2.52557,7.32312q3.01035-3.05919,5.82948-6.51969,2.87483-3.5514,5.40712-7.09753a17.92537,17.92537,0,0,1-2.19855-8.12322c0-5.53,1.37184-10.41377,3.96365-13.51468A141.16155,141.16155,0,0,1,30.70938,94.728q-.08791.02411-.17612.0485A124.70766,124.70766,0,0,1,13.8495,118.65843,140.44465,140.44465,0,0,0,18.892,143.67881Z" fill="#ff793d"/>
    <path d="M71.57477,94.07094a123.53484,123.53484,0,0,0,17.39962,24.68255A120.53179,120.53179,0,0,0,89.307,91.47387a191.20974,191.20974,0,0,0-18.64882-21.2488A140.07579,140.07579,0,0,1,71.57477,94.07094Z" fill="#ff633d"/>
    <path d="M71.57477,94.07094a140.07579,140.07579,0,0,0-.91664-23.84587c-.52476-.53044-1.04606-1.05895-1.584-1.5966a84.18575,84.18575,0,0,1-12.15-15.15368c-.00028.05072-.00083.10116-.001.15188C60.43753,68.52344,65.03457,81.86491,71.57477,94.07094Z" fill="#ff4024"/>
    <path d="M56.9241,53.47479l-.05765-.09311c.01912.0812.03742.16378.05668.245C56.92327,53.576,56.92382,53.52551,56.9241,53.47479Z" fill="#ff8e3d"/>
    <path d="M69.79748,109.35571c4.4169,11.54284,3.59491,20.8051.2206,27.49689q2.631,3.77173,5.64685,7.62964c1.7008,2.17221,3.47282,4.21307,5.29695,6.14389a90.37174,90.37174,0,0,0,3.05823-8.65006,143.8173,143.8173,0,0,0,4.95428-23.22258A123.53484,123.53484,0,0,1,71.57477,94.07094,117.92057,117.92057,0,0,1,69.79748,109.35571Z" fill="#ff793d"/>
    <path d="M47.40992,24.50934c-.01538-.25525-.03215-.5116-.04407-.76407q-.12471,3.5385-.24347,6.96339Q47.30738,27.52268,47.40992,24.50934Z" fill="#ff8e3d"/>
    <path d="M47.48474,75.12129a88.08761,88.08761,0,0,0,7.02368,9.72813,192.11942,192.11942,0,0,0,2.41471-31.22275c-.01926-.08121-.03756-.16379-.05668-.245a61.592,61.592,0,0,1-9.45653-28.87234q-.10642,3.00972-.28754,6.19932C46.56506,46.99612,46.23014,61.46028,47.48474,75.12129Z" fill="#ff4024"/>
    <path d="M47.12238,30.70866q.11724-3.42669.24347-6.96339a57.16333,57.16333,0,0,1,.31386-9.262l.00028-.008-.00028.008A47.29335,47.29335,0,0,1,51.5016,0,187.4691,187.4691,0,0,0,35.233,40.94839a78.668,78.668,0,0,0,6.81082,24.04513A178.73261,178.73261,0,0,0,47.12238,30.70866Z" fill="#ee1e22"/>
    <path d="M70.01808,136.8526A22.708,22.708,0,0,1,55.51956,148.779q-1.92369,3.43293-4.06341,6.58288a96.09733,96.09733,0,0,0,16.04232,18.11159,95.42209,95.42209,0,0,0,13.46341-22.84734c-1.82413-1.93082-3.59615-3.97168-5.29695-6.14389Q72.64168,140.62031,70.01808,136.8526Z" fill="#ff9b19"/>
  </g>
</svg>
