<?xml version="1.0" encoding="UTF-8"?>
<svg version="1.1" viewBox="0 0 672.05 170.6" xml:space="preserve" xmlns="http://www.w3.org/2000/svg"><g transform="matrix(1.3333 0 0 -1.3333 0 170.6)"><g transform="scale(.1)"><path d="m727.57 807.91-159.56-89.855-150.57 89.238c-26.253 15.562-60.105 6.891-75.66-19.352-15.551-26.222-6.886-60.105 19.348-75.652l150.96-89.473v-203.23c0-30.492 24.723-55.223 55.223-55.223s55.222 24.731 55.222 55.223v202.41l159.23 89.672c26.582 14.961 35.988 48.644 21.023 75.223-14.969 26.546-48.64 35.992-75.211 21.015" style="fill:#326cb9"/><path d="m782.71 1161.4-187.36 110.44c-17.692 10.43-39.707 10.18-57.157-0.65l-178.02-110.44c-25.914-16.08-33.891-50.12-17.813-76.04 16.071-25.89 50.094-33.9 76.039-17.81l93.688 58.12v-115.72c0-30.503 24.723-55.225 55.223-55.225s55.222 24.722 55.222 55.225v118.31l104.09-61.36c8.809-5.19 18.461-7.66 27.988-7.66 18.914 0 37.328 9.73 47.625 27.19 15.489 26.27 6.742 60.13-19.527 75.62" style="fill:#cac9c8"/><path d="m720.89 212.6-93.688-58.133v115.72c0 30.493-24.722 55.219-55.222 55.219s-55.223-24.726-55.223-55.219v-118.32l-104.09 61.367c-26.289 15.473-60.129 6.75-75.613-19.527-15.488-26.27-6.742-60.133 19.527-75.633l187.36-110.44c8.66-5.1016 18.351-7.6406 28.043-7.6406 10.109 0 20.207 2.7695 29.113 8.2891l178.02 110.44c25.914 16.09 33.891 50.122 17.813 76.04-16.078 25.91-50.117 33.878-76.039 17.832" style="fill:#cac9c8"/><path d="m66.504 659.77c1.0039 0 2.0195 0.031 3.0352 0.074 30.457 1.648 53.805 27.672 52.156 58.137l-5.965 110.08 101.49-55.602c8.418-4.621 17.511-6.809 26.484-6.809 19.516 0 38.438 10.383 48.473 28.704 14.652 26.75 4.855 60.304-21.895 74.961l-103.76 56.847 103.84 61.817c26.203 15.593 34.8 49.483 19.199 75.703-15.594 26.19-49.477 34.78-75.699 19.19l-186.88-111.25c-17.641-10.504-28.004-29.93-26.887-50.437l11.324-209.19c1.5937-29.43 25.969-52.23 55.098-52.23" style="fill:#cac9c8"/><path d="m857.78 992.57 104.78-60.179-102.86-58.461c-26.515-15.071-35.793-48.782-20.723-75.297 10.176-17.907 28.844-27.953 48.067-27.953 9.242 0 18.617 2.328 27.23 7.226l100.61 57.188-4.24-110.17c-1.17-30.481 22.59-56.133 53.06-57.305 0.72-0.031 1.44-0.047 2.16-0.047 29.51 0 54 23.344 55.14 53.098l8.05 209.36c0.79 20.516-9.87 39.774-27.68 50.004l-188.6 108.32c-26.433 15.18-60.207 6.05-75.39-20.39-15.184-26.44-6.067-60.19 20.382-75.386" style="fill:#cac9c8"/><path d="m275.82 296.97-105.34 59.23 102.34 59.395c26.379 15.316 35.356 49.105 20.047 75.484-15.301 26.379-49.098 35.328-75.484 20.047l-100.09-58.094 3.242 110.2c0.895 30.477-23.086 55.914-53.57 56.809-0.5547 0.031-1.1016 0.031-1.6563 0.031-29.746 0-54.289-23.668-55.168-53.605l-6.164-209.41c-0.60156-20.524 10.23-39.692 28.125-49.75l189.57-106.61c8.558-4.808 17.855-7.097 27.015-7.097 19.309 0 38.051 10.136 48.188 28.16 14.945 26.597 5.515 60.261-21.063 75.207" style="fill:#cac9c8"/><path d="m1125 566.73c-0.94 30.493-26.78 54.59-56.91 53.481-30.48-0.938-54.42-26.426-53.48-56.902l3.42-110.19-100.18 57.926c-26.402 15.238-60.175 6.226-75.445-20.168-15.269-26.41-6.242-60.184 20.16-75.453l102.43-59.227-105.23-59.398c-26.555-14.992-35.93-48.672-20.938-75.242 10.145-17.981 28.863-28.09 48.141-28.09 9.191 0 18.511 2.32 27.093 7.152l189.4 106.92c17.88 10.094 28.68 29.274 28.05 49.801l-6.5 209.39" style="fill:#cac9c8"/><path d="m1445.8 817.76h-115.16c-30.34 0-55.24 28.609-55.24 63.496 0 34.883 24.9 63.504 55.24 63.504h350.15c30.34 0 55.24-28.621 55.24-63.504 0-34.887-24.9-63.496-55.24-63.496h-115.16v-435.57c0-38.461-26.46-68.875-59.92-68.875-33.45 0-59.91 30.414-59.91 68.875v435.57" style="fill:#326cb9"/><path d="m1826.8 387.55v488.33c0 38.457 21.6 68.875 48.9 68.875h246.42c24.13 0 43.82-27.731 43.82-61.719 0-33.98-19.69-60.812-43.82-60.812h-198.15v-127.01h169.57c24.14 0 43.82-27.719 43.82-61.711 0-33.988-19.68-60.813-43.82-60.813h-169.57v-131.48h201.32c24.14 0 43.82-27.735 43.82-61.727 0-33.972-19.68-60.797-43.82-60.797h-249.59c-27.3 0-48.9 30.399-48.9 68.856" style="fill:#326cb9"/><path d="m2259.2 879.46c0 38.457 29.51 68.867 66.81 68.867h13.88c32.11 0 51.2-16.102 69.41-40.246l257.69-348.81v322.87c0 37.566 29.51 67.972 65.95 67.972s65.94-30.406 65.94-67.972v-498.17c0-38.457-29.5-68.856-66.8-68.856h-4.35c-32.11 0-51.18 16.086-69.41 40.242l-267.23 361.32v-335.38c0-37.567-29.51-67.981-65.95-67.981-36.43 0-65.94 30.414-65.94 67.981v498.17" style="fill:#326cb9"/><path d="m2900.2 379.49v2.699c0 24.145 8.06 45.606 22.54 64.387l292.25 377.43h-250.38c-29.79 0-54.75 26.832-54.75 59.922 0 33.093 24.96 60.824 54.75 60.824h359.87c29.78 0 54.74-27.731 54.74-60.824v-2.68c0-24.152-8.06-44.723-22.54-64.391l-292.24-377.43h260.04c29.78 0 54.74-27.735 54.74-60.828 0-33.082-24.96-59.907-54.74-59.907h-369.53c-29.79 0-54.75 27.719-54.75 60.797" style="fill:#326cb9"/><path d="m3557.7 930.93h-31.04c-8.17 0-14.89 7.16-14.89 15.886 0 8.723 6.72 15.879 14.89 15.879h94.37c8.17 0 14.88-7.156 14.88-15.879 0-8.726-6.71-15.886-14.88-15.886h-31.05v-108.91c0-9.628-7.12-17.226-16.14-17.226s-16.14 7.598-16.14 17.226v108.91" style="fill:#616264"/><path d="m3659.3 823.36v122.11c0 9.621 7.14 17.226 16.15 17.226h81.37c7.97 0 14.47-6.933 14.47-15.433 0-8.496-6.5-15.207-14.47-15.207h-65.44v-31.762h56c7.96 0 14.46-6.934 14.46-15.434 0-8.496-6.5-15.207-14.46-15.207h-56v-32.879h66.49c7.96 0 14.47-6.933 14.47-15.429 0-8.508-6.51-15.207-14.47-15.207h-82.42c-9.01 0-16.15 7.609-16.15 17.222" style="fill:#616264"/><path d="m3793.3 883.97v0.445c0 44.508 31.46 80.961 76.55 80.961 22.01 0 36.9-6.262 49.05-15.875 3.36-2.684 6.31-7.606 6.31-13.645 0-9.39-7.14-16.773-15.95-16.773-4.41 0-7.33 1.789-9.65 3.352-9.01 7.156-18.44 11.187-29.98 11.187-24.75 0-42.57-21.918-42.57-48.762v-0.445c0-26.84 17.41-49.203 42.57-49.203 13.64 0 22.65 4.473 31.88 12.301 2.51 2.234 5.87 3.8 9.64 3.8 8.19 0 15.1-7.16 15.1-15.878 0-5.372-2.52-9.622-5.45-12.305-13.22-12.293-28.74-19.676-52.22-19.676-43.19 0-75.28 35.563-75.28 80.516" style="fill:#616264"/><path d="m3954.4 946.82c0 9.614 7.14 17.219 16.15 17.219s16.15-7.605 16.15-17.219v-46.078h59.55v46.078c0 9.614 7.13 17.219 16.15 17.219 9.01 0 16.14-7.605 16.14-17.219v-124.8c0-9.628-7.13-17.226-16.14-17.226-9.02 0-16.15 7.598-16.15 17.226v46.965h-59.55v-46.965c0-9.628-7.14-17.226-16.15-17.226s-16.15 7.598-16.15 17.226v124.8" style="fill:#616264"/><path d="m4113.7 946.38c0 9.613 7.14 17.219 16.15 17.219h3.36c7.75 0 12.37-4.031 16.78-10.063l62.28-87.23v80.742c0 9.391 7.12 16.996 15.93 16.996 8.8 0 15.93-7.605 15.93-16.996v-124.57c0-9.633-7.13-17.227-16.15-17.227h-1.04c-7.75 0-12.38 4.02-16.78 10.059l-64.58 90.359v-83.871c0-9.398-7.13-16.996-15.94-16.996-8.8 0-15.94 7.598-15.94 16.996v124.58" style="fill:#616264"/><path d="m4395.1 883.97v0.445c0 26.84-18.46 49.207-44.47 49.207-25.99 0-44.03-21.918-44.03-48.762v-0.445c0-26.84 18.46-49.203 44.47-49.203 25.99 0 44.03 21.918 44.03 48.758zm-122.26 0v0.445c0 44.508 32.93 80.961 78.23 80.961 45.28 0 77.79-36.008 77.79-80.516v-0.445c0-44.504-32.93-80.961-78.23-80.961-45.28 0-77.79 36.008-77.79 80.516" style="fill:#616264"/><path d="m4457.5 946.82c0 9.614 7.13 17.219 16.15 17.219 9.01 0 16.14-7.605 16.14-17.219v-109.37h59.77c8.17 0 14.67-6.933 14.67-15.656s-6.5-15.652-14.67-15.652h-75.91c-9.02 0-16.15 7.609-16.15 17.222v123.46" style="fill:#616264"/><path d="m4694.6 883.97v0.445c0 26.84-18.46 49.207-44.47 49.207-25.99 0-44.04-21.918-44.04-48.762v-0.445c0-26.84 18.46-49.203 44.47-49.203 25.99 0 44.04 21.918 44.04 48.758zm-122.27 0v0.445c0 44.508 32.93 80.961 78.23 80.961 45.28 0 77.79-36.008 77.79-80.516v-0.445c0-44.504-32.92-80.961-78.22-80.961-45.28 0-77.8 36.008-77.8 80.516" style="fill:#616264"/><path d="m4956.6 866.52-47.39 68.665c-2.32 3.351-3.99 7.378-3.99 12.304 0 9.164 7.13 16.547 16.14 16.547 7.35 0 11.96-4.254 15.95-10.508l35.64-54.797 36.28 55.243c3.98 6.265 8.8 10.285 15.52 10.285 9.85 0 15.72-7.379 15.72-16.77 0-4.703-2.1-8.953-4.19-12.082l-47.38-68.211v-45.176c0-9.628-7.14-17.226-16.15-17.226-9.03 0-16.15 7.598-16.15 17.226v44.5" style="fill:#616264"/><path d="m3527 558.46v146.57c0 11.543 8.55 20.664 19.37 20.664h97.61c9.57 0 17.36-8.32 17.36-18.519 0-10.203-7.79-18.246-17.36-18.246h-78.49v-38.117h67.16c9.57 0 17.37-8.321 17.37-18.536 0-10.203-7.8-18.246-17.37-18.246h-67.16v-39.457h79.75c9.55 0 17.35-8.32 17.35-18.519 0-10.203-7.8-18.258-17.35-18.258h-98.87c-10.82 0-19.37 9.117-19.37 20.66" style="fill:#616264"/><path d="m3759.7 575.11c31.69 0 53.08 22.801 53.08 56.102v0.539c0 33.277-21.39 56.637-53.08 56.637h-29.94v-113.28zm-68.67 129.92c0 11.543 8.55 20.664 19.37 20.664h49.3c55.35 0 93.59-40.523 93.59-93.418v-0.523c0-52.883-38.24-93.957-93.59-93.957h-49.3c-10.82 0-19.37 9.117-19.37 20.66v146.57" style="fill:#616264"/><path d="m3880.4 618.33v88.305c0 11.554 8.55 20.676 19.37 20.676s19.37-9.122 19.37-20.676v-87.242c0-30.598 14.34-46.438 37.99-46.438s38 15.301 38 45.098v88.582c0 11.554 8.55 20.676 19.37 20.676 10.81 0 19.36-9.122 19.36-20.676v-86.965c0-56.914-29.93-84.836-77.24-84.836-47.28 0-76.22 28.195-76.22 83.496" style="fill:#616264"/><path d="m4061 631.22v0.539c0 53.418 37.75 97.16 91.83 97.16 26.43 0 44.29-7.504 58.88-19.059 4.02-3.218 7.55-9.121 7.55-16.363 0-11.277-8.55-20.137-19.12-20.137-5.29 0-8.82 2.141-11.58 4.02-10.81 8.598-22.14 13.422-35.97 13.422-29.69 0-51.08-26.305-51.08-58.52v-0.523c0-32.219 20.88-59.059 51.08-59.059 16.34 0 27.16 5.36 38.24 14.758 3.02 2.684 7.04 4.563 11.57 4.563 9.82 0 18.11-8.582 18.11-19.059 0-6.441-3.02-11.543-6.54-14.762-15.85-14.761-34.47-23.621-62.65-23.621-51.81 0-90.32 42.68-90.32 96.641" style="fill:#616264"/><path d="m4349 616.45-24.4 62-24.41-62zm-108.93-52.082 61.38 147.9c4.27 10.2 12.08 16.379 22.64 16.379h2.26c10.57 0 18.12-6.179 22.41-16.379l61.38-147.9c1.25-2.957 2-5.637 2-8.316 0-11.02-8.04-19.879-18.36-19.879-9.06 0-15.09 5.64-18.62 14.238l-11.81 29.52h-77.5l-12.33-30.86c-3.27-8.058-9.8-12.898-17.86-12.898-10.06 0-17.86 8.597-17.86 19.34 0 2.941 1.01 5.898 2.27 8.855" style="fill:#616264"/><path d="m4460.2 687.57h-37.24c-9.8 0-17.85 8.598-17.85 19.063 0 10.476 8.05 19.058 17.85 19.058h113.22c9.82 0 17.86-8.582 17.86-19.058 0-10.465-8.04-19.063-17.86-19.063h-37.22v-130.72c0-11.542-8.57-20.679-19.39-20.679-10.81 0-19.37 9.137-19.37 20.679v130.72" style="fill:#616264"/><path d="m4579.4 706.64c0 11.554 8.55 20.676 19.36 20.676 10.82 0 19.37-9.122 19.37-20.676v-149.78c0-11.542-8.55-20.679-19.37-20.679-10.81 0-19.36 9.137-19.36 20.679v149.78" style="fill:#616264"/><path d="m4796.5 631.22v0.539c0 32.199-22.14 59.043-53.34 59.043s-52.84-26.305-52.84-58.52v-0.523c0-32.219 22.14-59.059 53.34-59.059 31.19 0 52.84 26.301 52.84 58.52zm-146.68 0v0.539c0 53.418 39.5 97.16 93.84 97.16 54.35 0 93.35-43.219 93.35-96.637v-0.523c0-53.422-39.51-97.18-93.85-97.18-54.35 0-93.34 43.219-93.34 96.641" style="fill:#616264"/><path d="m4866.9 706.11c0 11.543 8.55 20.664 19.37 20.664h4.02c9.31 0 14.84-4.839 20.12-12.082l74.73-104.7v96.914c0 11.281 8.55 20.403 19.12 20.403 10.56 0 19.12-9.122 19.12-20.403v-149.52c0-11.543-8.56-20.68-19.38-20.68h-1.25c-9.3 0-14.85 4.84-20.14 12.082l-77.48 108.46v-100.66c0-11.281-8.55-20.418-19.12-20.418-10.56 0-19.11 9.137-19.11 20.418v149.52" style="fill:#616264"/><path d="m3522.1 458.91c0 9.613 6.53 17.227 14.8 17.227h3.08c7.12 0 11.34-4.024 15.38-10.063l57.13-87.223v80.739c0 9.383 6.55 16.992 14.63 16.992s14.62-7.609 14.62-16.992v-124.57c0-9.629-6.54-17.227-14.81-17.227h-0.97c-7.12 0-11.34 4.023-15.38 10.062l-59.26 90.352v-83.863c0-9.403-6.53-16.996-14.6-16.996-8.09 0-14.62 7.593-14.62 16.996v124.57" style="fill:#616264"/><path d="m3674 335.91v122.11c0 9.617 6.53 17.226 14.8 17.226h74.64c7.3 0 13.27-6.933 13.27-15.437 0-8.489-5.97-15.207-13.27-15.207h-60.01v-31.758h51.35c7.32 0 13.28-6.934 13.28-15.422 0-8.504-5.96-15.223-13.28-15.223h-51.35v-32.867h60.97c7.31 0 13.28-6.934 13.28-15.437 0-8.504-5.97-15.207-13.28-15.207h-75.6c-8.27 0-14.8 7.613-14.8 17.226" style="fill:#616264"/><path d="m3794.4 453.32c-0.57 2.02-1.16 4.485-1.16 6.489 0 9.629 6.94 16.777 15.21 16.777 6.92 0 12.5-5.145 14.42-12.293l26.74-95.961 26.93 95.066c2.31 8.043 7.5 13.637 15.01 13.637h2.31c7.5 0 12.69-5.363 15-13.637l26.92-95.066 26.75 95.961c1.93 6.699 6.92 12.293 14.24 12.293 8.07 0 14.6-7.148 14.6-16.547 0-2.019-0.57-4.699-1.15-6.719l-37.69-123c-2.7-8.722-8.27-14.097-15.39-14.097h-3.08c-7.12 0-12.5 5.144-15.2 14.097l-26.54 89.692-26.55-89.692c-2.7-8.953-8.07-14.097-15.19-14.097h-3.08c-7.12 0-12.7 5.375-15.4 14.097l-37.7 123" style="fill:#616264"/><path d="m4066.6 333.9v0.679c0 6.039 1.92 11.403 5.38 16.102l69.83 94.371h-59.83c-7.12 0-13.08 6.719-13.08 14.992 0 8.274 5.96 15.207 13.08 15.207h85.99c7.12 0 13.08-6.933 13.08-15.207v-0.68c0-6.039-1.92-11.168-5.39-16.097l-69.83-94.375h62.14c7.12 0 13.08-6.934 13.08-15.207 0-8.289-5.96-14.992-13.08-14.992h-88.28c-7.12 0-13.09 6.933-13.09 15.207" style="fill:#616264"/><path d="m4207.9 335.91v122.11c0 9.617 6.54 17.226 14.81 17.226h74.63c7.31 0 13.27-6.933 13.27-15.437 0-8.489-5.96-15.207-13.27-15.207h-60.01v-31.758h51.36c7.31 0 13.28-6.934 13.28-15.422 0-8.504-5.97-15.223-13.28-15.223h-51.36v-32.867h60.97c7.32 0 13.28-6.934 13.28-15.437 0-8.504-5.96-15.207-13.28-15.207h-75.59c-8.27 0-14.81 7.613-14.81 17.226" style="fill:#616264"/><path d="m4412.6 384.22-18.66 51.66-18.66-51.66zm-83.3-43.391 46.93 123.24c3.27 8.503 9.23 13.648 17.32 13.648h1.73c8.07 0 13.85-5.145 17.12-13.648l46.93-123.24c0.97-2.465 1.54-4.699 1.54-6.933 0-9.168-6.15-16.547-14.04-16.547-6.93 0-11.54 4.699-14.24 11.847l-9.04 24.606h-59.24l-9.43-25.715c-2.5-6.719-7.51-10.738-13.65-10.738-7.71 0-13.67 7.148-13.67 16.101 0 2.465 0.77 4.914 1.74 7.379" style="fill:#616264"/><path d="m4484.1 459.36c0 9.618 6.54 17.227 14.81 17.227s14.81-7.609 14.81-17.227v-109.36h54.82c7.5 0 13.47-6.933 13.47-15.652 0-8.723-5.97-15.656-13.47-15.656h-69.63c-8.27 0-14.81 7.613-14.81 17.226v123.44" style="fill:#616264"/><path d="m4679 384.22-18.66 51.66-18.66-51.66zm-83.29-43.391 46.93 123.24c3.27 8.503 9.23 13.648 17.32 13.648h1.72c8.08 0 13.86-5.145 17.12-13.648l46.93-123.24c0.98-2.465 1.55-4.699 1.55-6.933 0-9.168-6.15-16.547-14.04-16.547-6.93 0-11.54 4.699-14.24 11.847l-9.04 24.606h-59.25l-9.43-25.715c-2.49-6.719-7.5-10.738-13.65-10.738-7.7 0-13.66 7.148-13.66 16.101 0 2.465 0.77 4.914 1.74 7.379" style="fill:#616264"/><path d="m4750.5 458.91c0 9.613 6.53 17.227 14.81 17.227h3.08c7.12 0 11.34-4.024 15.38-10.063l57.13-87.223v80.739c0 9.383 6.55 16.992 14.62 16.992 8.08 0 14.62-7.609 14.62-16.992v-124.57c0-9.629-6.54-17.227-14.8-17.227h-0.97c-7.12 0-11.34 4.023-15.4 10.062l-59.24 90.352v-83.863c0-9.403-6.53-16.996-14.62-16.996-8.08 0-14.61 7.593-14.61 16.996v124.57" style="fill:#616264"/><path d="m4955 349.78c24.24 0 40.58 19.012 40.58 46.731v0.449c0 27.734-16.34 47.191-40.58 47.191h-22.9v-94.371zm-52.51 108.24c0 9.617 6.53 17.226 14.81 17.226h37.7c42.31 0 71.55-33.773 71.55-77.824v-0.461c0-44.055-29.24-78.273-71.55-78.273h-37.7c-8.28 0-14.81 7.613-14.81 17.226v122.11" style="fill:#616264"/><path d="m4828.5 801.46c-39.49 0-71.61 37.211-71.61 82.949s32.12 82.957 71.61 82.957c19.68 0 38.66-9.469 52.11-25.984 5.5-6.758 4.48-16.696-2.26-22.196-6.77-5.523-16.72-4.484-22.21 2.274-7.53 9.25-17.35 14.351-27.64 14.351-22.09 0-40.06-23.058-40.06-51.402 0-28.336 17.97-51.391 40.06-51.391 10.97 0 18.48 5.547 22.85 10.2 6.09 6.484 10.12 15.351 11.77 25.414h-15.87c-8.72 0-15.77 7.066-15.77 15.777 0 8.715 7.05 15.777 15.77 15.777h32.3c8.32 0 15.22-6.468 15.74-14.773 1.58-24.691-6.07-47.941-20.93-63.781-12.21-13.004-28.49-20.172-45.86-20.172" style="fill:#616264"/></g></g></svg>
