<svg version="1" xmlns="http://www.w3.org/2000/svg" width="533.333" height="533.333" viewBox="0 0 400.000000 400.000000"><path d="M53.4 1.5C27.1 7.2 6.6 27.8 1.5 53.5.1 60.6 0 77 .2 204l.3 142.5 2.3 6.5c8 22.2 22 36.2 44.2 44.2l6.5 2.3 142.5.3c159.8.3 151.1.7 166.9-7 6.6-3.1 10.1-5.7 16.6-12.1 9.2-9.2 14.1-17.1 17.7-28.7l2.3-7.5v-289l-2.3-7.5c-3.5-11.2-8.6-19.6-17.1-28.1-8.3-8.3-16.5-13.4-27.6-17.1l-7-2.3-143-.2C85.9.2 58.4.4 53.4 1.5zm67.1 90.6c7.6 1.4 17.6 5.9 23.2 10.5 2.3 1.9 4.3 3.8 4.3 4.2 0 .4-3 4.2-6.6 8.5l-6.5 7.8-5.1-4.6c-14.8-13.3-34.9-7.7-40.4 11.3-2 6.7-1.3 13.6 2.1 20.1 2.8 5.7 5.7 8.4 11.5 11 8.4 3.8 17.8 2.3 27.3-4.5 2.7-2 5.2-3.2 5.6-2.7.4.4 3.4 3.6 6.6 7.1l5.8 6.2-2.4 2.6c-3.9 4.3-12.2 9.2-20.2 11.9-27.8 9.3-56.4-8-60.9-36.8-2.3-15 2.1-28.7 12.6-39.3 6.9-6.8 14.2-10.8 23.7-12.8 8-1.8 12-1.9 19.4-.5zm86.5.3c8 1.7 17.2 5.1 20.1 7.5l2.1 1.7-4.2 8.4c-2.3 4.7-4.4 8.7-4.6 8.9-.2.2-3.4-1-7.1-2.7-17.3-8-31.3-7.7-31.3.5 0 4.2 4.3 6.7 19.4 11.7 16.2 5.3 22.2 9.3 25.7 17.1 2.5 5.4 2.5 15.6 0 21-7 15.5-30.1 21.5-53.7 14.1-6.7-2.2-18-7.9-20.7-10.5-.5-.5 1.2-5 3.8-10l4.6-9.2 3.1 2.6c10.2 8.6 30.4 13.6 37.1 9.2 3.7-2.4 4.5-6.2 2-9.5-1.5-2.1-5.1-3.7-17-7.7-8.7-2.9-17-6.3-19.4-8-10.8-7.6-12.5-24.6-3.4-35.3 8-9.5 25.9-13.5 43.5-9.8zm101 1c0 .3-5 11.4-11.1 24.8s-11.3 24.9-11.6 25.5c-.4 1 1.5 1.3 7.6 1.3h8l.3-9.3.3-9.2 10.8-.3 10.7-.3V145h11v18h-10.9l-.3 9.7-.3 9.8h-21l-.3-9.8-.3-9.7H261v-16.2l9.6-20.6c5.4-11.4 11-23.5 12.6-27L286 93h11c6.1 0 11 .2 11 .4zm-88 163.3v11.6l2.3-2.1c3-2.8 8.9-5.2 13-5.2 5.3 0 11.8 3.9 14.1 8.5 1.8 3.5 2.1 6.2 2.5 20.7l.3 16.8h-15l-.4-13.9c-.3-15.8-1.3-18.1-7.4-18.1-8 0-9.4 2.8-9.4 19.5V307h-15v-62h15v11.7zm-183.2 1l.3 6.3H48v10H37v10.4c0 11.5.4 12.2 6.5 11 3.2-.6 3.3-.5 4.1 3.8 1.2 6.3 1.3 6.1-3.1 7.4-5.8 1.8-10.4 1.6-15.2-.5-6.3-2.9-7.3-5.8-7.3-20.1v-12h-7v-10h7v-13.1l7.3.3 7.2.3.3 6.2zm51 6.2c2 1 4.5 2.7 5.4 3.8 3.2 3.5 5.8 10.7 5.8 16v5.3H83.5c-10.1 0-15.5.4-15.5 1s1.1 2.2 2.5 3.5c3.1 3.2 10.4 3.4 15.1.6l3.2-1.9 3.8 4c3.8 3.9 3.9 4 1.9 5.5-13.1 10.1-33.9 6.8-39.7-6.4-4.4-9.9-1.7-23.2 5.8-28.9 7.2-5.6 19.1-6.6 27.2-2.5zm50.9-.3c2.1 1.1 4.8 3.4 6 5.3 2.2 3.2 2.3 4.4 2.3 20.7V307h-7c-6.3 0-7-.2-7-2 0-2.5-.4-2.5-3.8 0-3.5 2.6-10.6 3.5-15.9 2.1-8.1-2.2-12.3-11.4-8.6-18.8 3.2-6.4 6-7.7 17.8-8.1 11.1-.4 11.6-.9 7.7-5.5-1.9-2.1-9.9-2.3-15.7-.2-2.1.8-4 1.3-4.1 1.2-.2-.1-1.2-2.3-2.3-4.9l-2-4.6 4.2-1.7c9.7-3.9 21.5-4.2 28.4-.9zm49.6 0c3.8 1.9 8.7 6.3 8.7 7.8 0 .6-2.3 2.4-5 3.9l-5 2.8-2.6-2c-2.6-2.1-7.6-2.7-10.9-1.5-4.7 1.9-6.1 13.4-2.1 18.1 3.1 3.6 9.4 3.7 13.1.3l2.3-2.2 5.1 2.8c2.8 1.5 5.1 3.2 5.1 3.9 0 1.6-4.8 5.9-9 8.1-2.3 1.2-5.8 1.8-10.5 1.8-8.9.1-15.6-3-20-9.3-2.5-3.6-3-5.4-3.3-11.6-.7-12.5 4.4-20.6 15.1-24.1 5.1-1.7 14.5-1.1 19 1.2zm101.4-1.1c8.8 2.6 14 10.1 14.5 21l.3 5-16 .5-16 .5 3.2 3.2c2.6 2.7 3.9 3.3 7.5 3.3 2.6 0 5.6-.8 7.7-2.1l3.4-2 3.3 3.2c1.9 1.8 3.4 3.9 3.4 4.6 0 2.2-7.2 6.2-13.3 7.4-11.8 2.4-22.5-2.1-27.2-11.4-4.8-9.7-3-20.5 4.5-27.9 6.7-6.5 14.8-8.2 24.7-5.3zM342 268v7h-4.1c-3.3 0-4.7.6-7.5 3.4l-3.4 3.4V307h-15v-45h15V268.3l2.3-2.1c2.5-2.4 8.3-5.1 11-5.2 1.5 0 1.7 1 1.7 7zm36.9-4l5 2.2-2.5 4.9c-1.3 2.7-2.6 4.9-2.8 4.9-.2 0-2.4-.9-5-2.1-6.1-2.6-13.1-2.3-13.1.6 0 1.6 1.4 2.4 6.5 4.1 13.1 4.2 16.3 7 16.4 14.3.1 5.7-2.1 9.4-7.5 12.6-5.4 3.2-18.6 2.8-26.1-.7-3.2-1.5-5.8-3-5.8-3.3 0-.5 3.9-8.5 4.4-9.2.1-.1 2.2.7 4.6 1.9 5.2 2.6 14.8 3.7 16 1.8 1.5-2.4-.2-4-5.9-5.6-10.7-3.1-15.7-6.7-16.7-12-1.3-6.8 2.9-13.2 10.3-16 5.1-1.9 15.7-1.1 22.2 1.6z"/><path d="M71.7 273.1c-.9.5-2.4 2.3-3.2 3.9l-1.6 3H76c4.9 0 9-.2 9-.5 0-1.6-3.1-6.3-4.5-6.9-2.5-.9-6.8-.7-8.8.5zM118.6 289.6c-2.2 2.1-2 4 .5 6.5 1.7 1.7 2.9 2 5.8 1.5 4-.6 8.1-4.5 8.1-7.7 0-1.7-.7-1.9-6.4-1.9-4.5 0-6.9.5-8 1.6zM275.5 274.6c-4.3 4.6-3.5 5.4 6 5.4s10.6-1 6-5.5c-3.4-3.5-8.8-3.4-12 .1z"/></svg>