<?xml version="1.0" standalone="no"?>
<!DOCTYPE svg PUBLIC "-//W3C//DTD SVG 20010904//EN"
 "http://www.w3.org/TR/2001/REC-SVG-20010904/DTD/svg10.dtd">
<svg version="1.0" xmlns="http://www.w3.org/2000/svg"
 width="400.000000pt" height="400.000000pt" viewBox="0 0 400.000000 400.000000"
 preserveAspectRatio="xMidYMid meet">
<metadata>
Created by potrace 1.11, written by Peter Selinger 2001-2013
</metadata>
<g transform="translate(0.000000,400.000000) scale(0.100000,-0.100000)"
fill="#000000" stroke="none">
<path d="M534 3985 c-263 -57 -468 -263 -519 -520 -14 -71 -15 -235 -13 -1505
l3 -1425 23 -65 c80 -222 220 -362 442 -442 l65 -23 1425 -3 c1598 -3 1511 -7
1669 70 66 31 101 57 166 121 92 92 141 171 177 287 l23 75 0 1445 0 1445 -23
75 c-35 112 -86 196 -171 281 -83 83 -165 134 -276 171 l-70 23 -1430 2
c-1166 1 -1441 -1 -1491 -12z m2454 -332 c125 -25 296 -91 355 -135 17 -12 13
-23 -54 -163 -39 -83 -72 -151 -73 -153 -2 -1 -50 20 -107 47 -140 67 -263
102 -364 104 -120 2 -165 -28 -165 -109 0 -30 7 -44 39 -74 41 -39 82 -56 314
-129 70 -22 157 -54 193 -71 83 -40 166 -121 202 -197 25 -53 27 -68 27 -178
0 -116 -1 -123 -33 -188 -60 -121 -179 -210 -337 -253 -91 -24 -291 -29 -400
-11 -164 29 -349 105 -468 192 l-47 35 75 150 c41 83 77 150 80 150 2 0 28
-18 57 -40 178 -135 456 -214 583 -166 59 23 85 57 85 111 0 84 -55 120 -279
185 -250 72 -337 114 -415 200 -67 75 -81 118 -81 255 0 115 1 123 32 186 110
223 427 325 781 252z m-1378 -7 c135 -37 266 -106 352 -185 50 -46 52 -50 37
-67 -9 -11 -59 -71 -112 -135 l-96 -116 -54 51 c-134 126 -286 172 -428 130
-201 -60 -324 -264 -291 -484 36 -240 242 -400 465 -360 77 14 187 66 251 119
26 23 52 41 56 41 17 0 222 -231 217 -245 -12 -29 -162 -137 -250 -180 -131
-64 -228 -87 -362 -88 -122 -1 -198 12 -295 50 -198 79 -357 235 -434 427 -78
195 -70 446 19 632 105 218 307 369 560 420 86 17 286 11 365 -10z m-125
-1823 c247 -70 369 -219 382 -468 15 -295 -125 -496 -394 -566 -59 -15 -125
-21 -275 -26 l-198 -6 0 -204 0 -203 -195 0 -195 0 0 743 c0 409 3 747 8 751
4 4 185 6 402 4 356 -4 402 -7 465 -25z m1455 -2 c263 -68 443 -231 526 -476
33 -98 44 -276 24 -389 -47 -266 -223 -468 -485 -555 -134 -44 -212 -51 -596
-51 l-349 0 0 743 c0 409 3 747 8 751 4 4 183 6 397 3 360 -4 396 -6 475 -26z"/>
<path d="M1000 1305 l0 -225 158 0 c86 0 175 5 197 11 55 15 120 82 135 139
31 114 -12 229 -102 274 -50 25 -59 26 -220 26 l-168 0 0 -225z"/>
<path d="M2450 1101 l0 -431 168 0 c188 0 238 10 315 61 56 37 119 121 144
192 14 39 18 82 18 178 0 124 0 125 -38 201 -46 93 -121 166 -205 199 -49 20
-80 23 -229 27 l-173 4 0 -431z"/>
</g>
</svg>
