<svg xmlns="http://www.w3.org/2000/svg" viewBox="0 0 1445 321"><defs><style>.cls-1{fill:#3953a4;}.cls-2,.cls-3,.cls-4{fill:none;stroke:#00b92e;stroke-miterlimit:10;}.cls-2{stroke-width:11px;}.cls-3{stroke-width:8.03px;}.cls-4{stroke-width:30px;}.cls-5{fill:#00b92e;}</style></defs><g id="Text"><path class="cls-1" d="M156.79,194.05H83.58l-18,43.2H22.69l99.6-229.5h2.4l99.6,229.5H173.88Zm-14.41-36.6-21.3-53.7-22.2,53.7Z"/><path class="cls-1" d="M305.43,117.25a82,82,0,0,1,19.35-13q9.9-4.64,15.6-4.65l-2.1,42a34.34,34.34,0,0,0-5.1-.3,38.3,38.3,0,0,0-22.2,6.6,43.78,43.78,0,0,0-14.7,17,47.36,47.36,0,0,0-5.1,21.15v51.3h-41.7V106.15h37.8l3.3,30A65.25,65.25,0,0,1,305.43,117.25Z"/><path class="cls-1" d="M509,106.15v131.1H467v-16.2q-18.9,19.8-43.8,19.8-29.1,0-47.25-17.4t-18.15-51.6q0-21.6,8.85-37.95a65.65,65.65,0,0,1,23.55-25.35,59.29,59.29,0,0,1,31.5-9q17.4,0,27.6,5.25a56.61,56.61,0,0,1,18,14.85l2.7-13.5Zm-42,80.7v-32.1a30.67,30.67,0,0,0-12.45-15.3,37.74,37.74,0,0,0-20.85-5.7A31.43,31.43,0,0,0,410.13,144q-9.75,10.22-9.75,25.8a37.62,37.62,0,0,0,4.8,18.75,35.53,35.53,0,0,0,12.75,13.35,32.68,32.68,0,0,0,17.25,4.8Q457.08,206.65,467,186.85Z"/><path class="cls-1" d="M765.78,194.05h-73.2l-18,43.2h-42.9l99.6-229.5h2.4l99.6,229.5h-50.4Zm-14.4-36.6-21.3-53.7-22.2,53.7Z"/><path class="cls-1" d="M912.18,182.65l-11.7,8.7v45.9h-42V.55h42v148.2l62.4-45.9,25.5,22.5-46.5,35.1,51.3,76.8h-48.9Z"/><path class="cls-1" d="M1018.53,134.05a66.73,66.73,0,0,1,26.7-25.05q17.25-9.14,39.15-9.15t38.55,9.15a64.57,64.57,0,0,1,25.65,25.05q9,15.91,9,36a73.44,73.44,0,0,1-9,36.3,63.81,63.81,0,0,1-25.65,25.35q-16.65,9.15-39.15,9.15-21.9,0-38.85-8.55a63,63,0,0,1-26.4-24.45q-9.45-15.89-9.45-37.8Q1009.08,150,1018.53,134.05Zm41.85,62.25a28.9,28.9,0,0,0,22.8,10.35q14.4,0,23.25-10.2t8.85-26.1q0-15.89-8.85-26.1t-23.25-10.2a28.9,28.9,0,0,0-22.8,10.35q-9,10.35-9,25.95T1060.38,196.3Z"/></g><g id="Content"><path class="cls-2" d="M1300.5,294.5c17.16-3.73,24.18-21.94,20.46-39.1a23.63,23.63,0,0,0-28.11-18.08,17.56,17.56,0,0,0-13.43,20.88,13.05,13.05,0,0,0,15.52,10,9.69,9.69,0,0,0,7.41-11.52,7.21,7.21,0,0,0-8.56-5.51,5.35,5.35,0,0,0-4.09,6.36"/><path class="cls-3" d="M1172.7,296.08c14.83,0,27-14.83,21.85-29.19-2.26-6.36-9.71-9.24-16-6.67a9.1,9.1,0,0,0-5,11.86,6.77,6.77,0,0,0,8.82,3.69,5,5,0,0,0,2.74-6.55,3.74,3.74,0,0,0-4.87-2"/><path class="cls-4" d="M1420.68,199.68A158.12,158.12,0,0,1,1284.31,305m-177.79.58,165-.07q6.46,0,12.81-.51M1298,152.33a21,21,0,0,0,13.55-19.63,16.31,16.31,0,0,0-16.31-16.31m-10.46-21.75a34.77,34.77,0,0,0-21.23,32,27,27,0,0,0,27,27,20.86,20.86,0,0,0,7.44-1.36m40.61-35.15a44.73,44.73,0,0,0-40.29-25.27,34.65,34.65,0,0,0-13.54,2.73m44.1,79.86a57.38,57.38,0,0,0,14.18-37.85,44.56,44.56,0,0,0-4.45-19.47m-67.12,75.74a74,74,0,0,0,14,1.32,57.45,57.45,0,0,0,43.41-19.74m-105.55-14a74.13,74.13,0,0,0,48.16,32.39m-52.39-110.5a95.07,95.07,0,0,0-7.74,37.7,73.78,73.78,0,0,0,12,40.41M1334.91,28a123.34,123.34,0,0,0-28.18-3.24,95.4,95.4,0,0,0-87.64,57.68m166.7-28.85A122.41,122.41,0,0,0,1334.91,28m85.77,171.7a157.89,157.89,0,0,0,8.82-52.18,122.5,122.5,0,0,0-43.71-93.93m-346,252,66.77,0m-66.77,0-86.68,0m-81.17,0,81.17,0m-206.88.08,125.71,0m-311.36.12,185.65-.07m-185.65.07-153.45.06M0,306l407.09-.16"/><ellipse class="cls-5" cx="1288.5" cy="125" rx="34.5" ry="40"/><ellipse class="cls-5" cx="1295.25" cy="259.25" rx="12.25" ry="10.75"/><ellipse class="cls-5" cx="1179" cy="269.5" rx="7" ry="8.5"/></g></svg>