<?xml version="1.0" encoding="UTF-8" standalone="no"?>
<svg xmlns:rdf="http://www.w3.org/1999/02/22-rdf-syntax-ns#" xmlns="http://www.w3.org/2000/svg" version="1.1" xmlns:cc="http://creativecommons.org/ns#" xmlns:dc="http://purl.org/dc/elements/1.1/" viewBox="0 0 518.11031 52.56">
 <g transform="translate(-207.84 -544.23)">
  <g>
   <g fill="#abc837">
    <path d="m223.86 550.29q12.48 0 18.78 5.82 6.36 5.76 6.36 16.98 0 11.28-6.3 16.98t-18.84 5.7h-16.02v-45.48h16.02zm14.22 22.62q0-7.02-3.48-10.26t-10.74-3.24h-5.22v27.24h5.22q7.38 0 10.8-3.24 3.42-3.3 3.42-10.5z"/>
    <path d="m289.13 559.53h-12.42v36.24h-10.8v-36.24h-12.42v-9.24h35.64v9.24z"/>
    <path d="m335.86 550.29v45.48h-10.8v-18.24h-17.94v18.24h-10.8v-45.48h10.8v18h17.94v-18h10.8z"/>
    <path d="m392.82 550.29v45.48h-10.8v-30l-10.32 14.94h-5.4l-10.08-14.82v29.88h-10.8v-45.48h12.48l11.22 16.8 11.22-16.8h12.48z"/>
   </g>
   <g fill="#dde9af">
    <path d="m430.19 553.47q-1.74 0-2.4 0.84-0.66 0.78-0.66 2.76v4.74h6.6v9.24h-6.6v24.72h-10.44v-24.72h-4.08v-9.24h4.08v-8.52q0-4.38 2.58-6.72 2.64-2.34 7.98-2.34 1.62 0 3 0.24 1.44 0.18 3.48 0.6v8.88q-1.56-0.48-3.54-0.48z"/>
    <path d="m455.47 596.79q-5.88 0-9.96-2.34-4.08-2.4-6.18-6.48-2.04-4.08-2.04-9.18 0-5.04 2.04-9.12 2.1-4.08 6.18-6.42 4.08-2.4 9.96-2.4 5.82 0 9.9 2.4 4.08 2.34 6.12 6.42t2.04 9.12q0 5.1-2.04 9.18t-6.12 6.48q-4.08 2.34-9.9 2.34zm0-8.88q3.54 0 5.34-2.34 1.86-2.34 1.86-6.78 0-4.38-1.86-6.72-1.8-2.34-5.34-2.34-3.6 0-5.46 2.34t-1.86 6.72q0 4.44 1.86 6.78t5.46 2.34z"/>
    <path d="m500.88 561.09v9.24h-1.38q-4.62 0-9.24 3.3v22.14h-10.44v-33.96h10.44v3q2.22-1.86 4.44-2.76 2.28-0.96 4.8-0.96h1.38z"/>
   </g>
   <g fill="#abc837">
    <path d="m533.33 584.43-2.76 2.94v8.4h-10.44v-50.76h10.44v29.34l10.62-11.34h12.48l-13.5 14.28 14.58 18.48h-12.48l-8.94-11.34z"/>
    <path d="m572.71 561.81q6.6 0 10.02 1.8 3.48 1.74 4.62 4.68t1.14 7.5v19.98h-10.44v-2.76q-2.1 1.92-4.14 2.76-2.04 0.78-4.5 0.78-5.76 0-9.06-3-3.24-3.06-3.24-8.46 0-5.46 3.3-8.4 3.36-2.94 9.3-2.94 4.92 0 8.34 1.8-0.06-1.68-0.54-2.64-0.42-1.02-1.8-1.56-1.32-0.54-3.9-0.54h-6.84v-9h7.74zm-1.08 26.7q3.06 0 6.42-2.76v-3.18q-2.88-1.38-5.82-1.38-2.16 0-3.36 0.96-1.2 0.9-1.2 2.82 0 1.98 1.02 2.76t2.94 0.78z"/>
    <path d="m596.54 547.35h10.44v9.06h-10.44v-9.06zm0 14.46h10.44v33.96h-10.44v-33.96z"/>
    <path d="m628.6 561.81q6.6 0 10.02 1.8 3.48 1.74 4.62 4.68t1.14 7.5v19.98h-10.44v-2.76q-2.1 1.92-4.14 2.76-2.04 0.78-4.5 0.78-5.76 0-9.06-3-3.24-3.06-3.24-8.46 0-5.46 3.3-8.4 3.36-2.94 9.3-2.94 4.92 0 8.34 1.8-0.06-1.68-0.54-2.64-0.42-1.02-1.8-1.56-1.32-0.54-3.9-0.54h-6.84v-9h7.74zm-1.08 26.7q3.06 0 6.42-2.76v-3.18q-2.88-1.38-5.82-1.38-2.16 0-3.36 0.96-1.2 0.9-1.2 2.82 0 1.98 1.02 2.76t2.94 0.78z"/>
    <path d="m665.64 584.43-2.76 2.94v8.4h-10.44v-50.76h10.44v29.34l10.62-11.34h12.48l-13.5 14.28 14.58 18.48h-12.48l-8.94-11.34z"/>
    <path d="m707.89 596.79q-5.88 0-9.96-2.34-4.08-2.4-6.18-6.48-2.04-4.08-2.04-9.18 0-5.04 2.04-9.12 2.1-4.08 6.18-6.42 4.08-2.4 9.96-2.4 5.82 0 9.9 2.4 4.08 2.34 6.12 6.42t2.04 9.12q0 5.1-2.04 9.18t-6.12 6.48q-4.08 2.34-9.9 2.34zm0-8.88q3.54 0 5.34-2.34 1.86-2.34 1.86-6.78 0-4.38-1.86-6.72-1.8-2.34-5.34-2.34-3.6 0-5.46 2.34t-1.86 6.72q0 4.44 1.86 6.78t5.46 2.34z"/>
   </g>
  </g>
 </g>
</svg>
