<?xml version="1.0" encoding="UTF-8" standalone="no"?>
<!-- Created with Inkscape (http://www.inkscape.org/) -->

<svg
   xmlns:dc="http://purl.org/dc/elements/1.1/"
   xmlns:cc="http://creativecommons.org/ns#"
   xmlns:rdf="http://www.w3.org/1999/02/22-rdf-syntax-ns#"
   xmlns:svg="http://www.w3.org/2000/svg"
   xmlns="http://www.w3.org/2000/svg"
   xmlns:sodipodi="http://sodipodi.sourceforge.net/DTD/sodipodi-0.dtd"
   xmlns:inkscape="http://www.inkscape.org/namespaces/inkscape"
   width="146.22224mm"
   height="14.8336mm"
   viewBox="0 0 518.11031 52.56"
   id="svg2"
   version="1.1"
   inkscape:version="0.91 r13725"
   inkscape:export-filename="C:\Users\Jack\Google Drive\Temp\dthm4kaiako-logo.png"
   inkscape:export-xdpi="300"
   inkscape:export-ydpi="300"
   sodipodi:docname="dthm4kaiako-logo.svg">
  <defs
     id="defs4" />
  <sodipodi:namedview
     id="base"
     pagecolor="#242b33"
     bordercolor="#666666"
     borderopacity="1.0"
     inkscape:pageopacity="0"
     inkscape:pageshadow="2"
     inkscape:zoom="1.979899"
     inkscape:cx="228.63209"
     inkscape:cy="31.830903"
     inkscape:document-units="px"
     inkscape:current-layer="text4136"
     showgrid="false"
     fit-margin-top="0"
     fit-margin-right="0"
     fit-margin-bottom="0"
     fit-margin-left="0"
     inkscape:window-width="1920"
     inkscape:window-height="1027"
     inkscape:window-x="-8"
     inkscape:window-y="-8"
     inkscape:window-maximized="1" />
  <metadata
     id="metadata7">
    <rdf:RDF>
      <cc:Work
         rdf:about="">
        <dc:format>image/svg+xml</dc:format>
        <dc:type
           rdf:resource="http://purl.org/dc/dcmitype/StillImage" />
        <dc:title></dc:title>
      </cc:Work>
    </rdf:RDF>
  </metadata>
  <g
     inkscape:label="Layer 1"
     inkscape:groupmode="layer"
     id="layer1"
     transform="translate(-207.84066,-544.23325)">
    <g
       style="font-style:normal;font-variant:normal;font-weight:normal;font-stretch:normal;font-size:40px;line-height:125%;font-family:'Francois One';-inkscape-font-specification:'Francois One';letter-spacing:0px;word-spacing:0px;fill:#000000;fill-opacity:1;stroke:none;stroke-width:1px;stroke-linecap:butt;stroke-linejoin:miter;stroke-opacity:1"
       id="text4136">
      <path
         d="m 223.86066,550.29325 q 12.48,0 18.78,5.82 6.36,5.76 6.36,16.98 0,11.28 -6.3,16.98 -6.3,5.7 -18.84,5.7 l -16.02,0 0,-45.48 16.02,0 z m 14.22,22.62 q 0,-7.02 -3.48,-10.26 -3.48,-3.24 -10.74,-3.24 l -5.22,0 0,27.24 5.22,0 q 7.38,0 10.8,-3.24 3.42,-3.3 3.42,-10.5 z"
         style="font-style:normal;font-variant:normal;font-weight:900;font-stretch:normal;font-size:60px;font-family:'Biryani Black';-inkscape-font-specification:'Biryani Black, Heavy';fill:#abc837"
         id="path4177"
         inkscape:connector-curvature="0" />
      <path
         d="m 289.12754,559.53325 -12.42,0 0,36.24 -10.8,0 0,-36.24 -12.42,0 0,-9.24 35.64,0 0,9.24 z"
         style="font-style:normal;font-variant:normal;font-weight:900;font-stretch:normal;font-size:60px;font-family:'Biryani Black';-inkscape-font-specification:'Biryani Black, Heavy';fill:#abc837"
         id="path4179"
         inkscape:connector-curvature="0" />
      <path
         d="m 335.85723,550.29325 0,45.48 -10.8,0 0,-18.24 -17.94,0 0,18.24 -10.8,0 0,-45.48 10.8,0 0,18 17.94,0 0,-18 10.8,0 z"
         style="font-style:normal;font-variant:normal;font-weight:900;font-stretch:normal;font-size:60px;font-family:'Biryani Black';-inkscape-font-specification:'Biryani Black, Heavy';fill:#abc837"
         id="path4181"
         inkscape:connector-curvature="0" />
      <path
         d="m 392.81879,550.29325 0,45.48 -10.8,0 0,-30 -10.32,14.94 -5.4,0 -10.08,-14.82 0,29.88 -10.8,0 0,-45.48 12.48,0 11.22,16.8 11.22,-16.8 12.48,0 z"
         style="font-style:normal;font-variant:normal;font-weight:900;font-stretch:normal;font-size:60px;font-family:'Biryani Black';-inkscape-font-specification:'Biryani Black, Heavy';fill:#abc837"
         id="path4183"
         inkscape:connector-curvature="0" />
      <path
         d="m 430.1941,553.47325 q -1.74,0 -2.4,0.84 -0.66,0.78 -0.66,2.76 l 0,4.74 6.6,0 0,9.24 -6.6,0 0,24.72 -10.44,0 0,-24.72 -4.08,0 0,-9.24 4.08,0 0,-8.52 q 0,-4.38 2.58,-6.72 2.64,-2.34 7.98,-2.34 1.62,0 3,0.24 1.44,0.18 3.48,0.6 l 0,8.88 q -1.56,-0.48 -3.54,-0.48 z"
         style="font-size:60px;fill:#dde9af"
         id="path4185"
         inkscape:connector-curvature="0" />
      <path
         d="m 455.4691,596.79325 q -5.88,0 -9.96,-2.34 -4.08,-2.4 -6.18,-6.48 -2.04,-4.08 -2.04,-9.18 0,-5.04 2.04,-9.12 2.1,-4.08 6.18,-6.42 4.08,-2.4 9.96,-2.4 5.82,0 9.9,2.4 4.08,2.34 6.12,6.42 2.04,4.08 2.04,9.12 0,5.1 -2.04,9.18 -2.04,4.08 -6.12,6.48 -4.08,2.34 -9.9,2.34 z m 0,-8.88 q 3.54,0 5.34,-2.34 1.86,-2.34 1.86,-6.78 0,-4.38 -1.86,-6.72 -1.8,-2.34 -5.34,-2.34 -3.6,0 -5.46,2.34 -1.86,2.34 -1.86,6.72 0,4.44 1.86,6.78 1.86,2.34 5.46,2.34 z"
         style="font-size:60px;fill:#dde9af"
         id="path4187"
         inkscape:connector-curvature="0" />
      <path
         d="m 500.87879,561.09325 0,9.24 -1.38,0 q -4.62,0 -9.24,3.3 l 0,22.14 -10.44,0 0,-33.96 10.44,0 0,3 q 2.22,-1.86 4.44,-2.76 2.28,-0.96 4.8,-0.96 l 1.38,0 z"
         style="font-size:60px;fill:#dde9af"
         id="path4189"
         inkscape:connector-curvature="0" />
      <path
         d="m 533.33129,584.43325 -2.76,2.94 0,8.4 -10.44,0 0,-50.76 10.44,0 0,29.34 10.62,-11.34 12.48,0 -13.5,14.28 14.58,18.48 -12.48,0 -8.94,-11.34 z"
         style="font-style:normal;font-variant:normal;font-weight:900;font-stretch:normal;font-size:60px;font-family:'Biryani Black';-inkscape-font-specification:'Biryani Black, Heavy';fill:#abc837"
         id="path4191"
         inkscape:connector-curvature="0" />
      <path
         d="m 572.70629,561.81325 q 6.6,0 10.02,1.8 3.48,1.74 4.62,4.68 1.14,2.94 1.14,7.5 l 0,19.98 -10.44,0 0,-2.76 q -2.1,1.92 -4.14,2.76 -2.04,0.78 -4.5,0.78 -5.76,0 -9.06,-3 -3.24,-3.06 -3.24,-8.46 0,-5.46 3.3,-8.4 3.36,-2.94 9.3,-2.94 4.92,0 8.34,1.8 -0.06,-1.68 -0.54,-2.64 -0.42,-1.02 -1.8,-1.56 -1.32,-0.54 -3.9,-0.54 l -6.84,0 0,-9 7.74,0 z m -1.08,26.7 q 3.06,0 6.42,-2.76 l 0,-3.18 q -2.88,-1.38 -5.82,-1.38 -2.16,0 -3.36,0.96 -1.2,0.9 -1.2,2.82 0,1.98 1.02,2.76 1.02,0.78 2.94,0.78 z"
         style="font-style:normal;font-variant:normal;font-weight:900;font-stretch:normal;font-size:60px;font-family:'Biryani Black';-inkscape-font-specification:'Biryani Black, Heavy';fill:#abc837"
         id="path4193"
         inkscape:connector-curvature="0" />
      <path
         d="m 596.53754,547.35325 10.44,0 0,9.06 -10.44,0 0,-9.06 z m 0,14.46 10.44,0 0,33.96 -10.44,0 0,-33.96 z"
         style="font-style:normal;font-variant:normal;font-weight:900;font-stretch:normal;font-size:60px;font-family:'Biryani Black';-inkscape-font-specification:'Biryani Black, Heavy';fill:#abc837"
         id="path4195"
         inkscape:connector-curvature="0" />
      <path
         d="m 628.60473,561.81325 q 6.6,0 10.02,1.8 3.48,1.74 4.62,4.68 1.14,2.94 1.14,7.5 l 0,19.98 -10.44,0 0,-2.76 q -2.1,1.92 -4.14,2.76 -2.04,0.78 -4.5,0.78 -5.76,0 -9.06,-3 -3.24,-3.06 -3.24,-8.46 0,-5.46 3.3,-8.4 3.36,-2.94 9.3,-2.94 4.92,0 8.34,1.8 -0.06,-1.68 -0.54,-2.64 -0.42,-1.02 -1.8,-1.56 -1.32,-0.54 -3.9,-0.54 l -6.84,0 0,-9 7.74,0 z m -1.08,26.7 q 3.06,0 6.42,-2.76 l 0,-3.18 q -2.88,-1.38 -5.82,-1.38 -2.16,0 -3.36,0.96 -1.2,0.9 -1.2,2.82 0,1.98 1.02,2.76 1.02,0.78 2.94,0.78 z"
         style="font-style:normal;font-variant:normal;font-weight:900;font-stretch:normal;font-size:60px;font-family:'Biryani Black';-inkscape-font-specification:'Biryani Black, Heavy';fill:#abc837"
         id="path4197"
         inkscape:connector-curvature="0" />
      <path
         d="m 665.63598,584.43325 -2.76,2.94 0,8.4 -10.44,0 0,-50.76 10.44,0 0,29.34 10.62,-11.34 12.48,0 -13.5,14.28 14.58,18.48 -12.48,0 -8.94,-11.34 z"
         style="font-style:normal;font-variant:normal;font-weight:900;font-stretch:normal;font-size:60px;font-family:'Biryani Black';-inkscape-font-specification:'Biryani Black, Heavy';fill:#abc837"
         id="path4199"
         inkscape:connector-curvature="0" />
      <path
         d="m 707.89098,596.79325 q -5.88,0 -9.96,-2.34 -4.08,-2.4 -6.18,-6.48 -2.04,-4.08 -2.04,-9.18 0,-5.04 2.04,-9.12 2.1,-4.08 6.18,-6.42 4.08,-2.4 9.96,-2.4 5.82,0 9.9,2.4 4.08,2.34 6.12,6.42 2.04,4.08 2.04,9.12 0,5.1 -2.04,9.18 -2.04,4.08 -6.12,6.48 -4.08,2.34 -9.9,2.34 z m 0,-8.88 q 3.54,0 5.34,-2.34 1.86,-2.34 1.86,-6.78 0,-4.38 -1.86,-6.72 -1.8,-2.34 -5.34,-2.34 -3.6,0 -5.46,2.34 -1.86,2.34 -1.86,6.72 0,4.44 1.86,6.78 1.86,2.34 5.46,2.34 z"
         style="font-style:normal;font-variant:normal;font-weight:900;font-stretch:normal;font-size:60px;font-family:'Biryani Black';-inkscape-font-specification:'Biryani Black, Heavy';fill:#abc837"
         id="path4201"
         inkscape:connector-curvature="0" />
    </g>
  </g>
</svg>
