<svg fill="#000000" xmlns="http://www.w3.org/2000/svg" viewBox="0 0 50 50" width="100px" height="100px"><path d="M 9.8125 0 C 9.335938 0.0898438 8.992188 0.511719 9 1 L 9 3 C 8.996094 3.359375 9.183594 3.695313 9.496094 3.878906 C 9.808594 4.058594 10.191406 4.058594 10.503906 3.878906 C 10.816406 3.695313 11.003906 3.359375 11 3 L 11 2 L 46 2 L 46 25 L 41.90625 25 L 43 23 L 41.90625 21 L 33 21 L 33 25 L 22 25 C 21.96875 25 21.9375 25 21.90625 25 C 21.355469 25.027344 20.925781 25.496094 20.953125 26.046875 C 20.980469 26.597656 21.449219 27.027344 22 27 L 48 27 L 48 28 L 22 28 C 21.640625 27.996094 21.304688 28.183594 21.121094 28.496094 C 20.941406 28.808594 20.941406 29.191406 21.121094 29.503906 C 21.304688 29.816406 21.640625 30.003906 22 30 L 49 30 C 49.550781 30 50 29.550781 50 29 L 50 26 C 50 25.449219 49.550781 25 49 25 L 48 25 L 48 1 C 48 0.449219 47.550781 0 47 0 L 10 0 C 9.96875 0 9.9375 0 9.90625 0 C 9.875 0 9.84375 0 9.8125 0 Z M 12 5 C 8.699219 5 6 7.699219 6 11 C 6 14.300781 8.699219 17 12 17 C 15.300781 17 18 14.300781 18 11 C 18 7.699219 15.300781 5 12 5 Z M 12 17 L 9.6875 17 C 8.933594 17 7.835938 17.09375 6.8125 17.78125 C 5.789063 18.46875 5 19.792969 5 21.6875 L 5 32.4375 C 3.242188 33.214844 2 34.964844 2 37 C 2 38.515625 2.707031 39.863281 3.78125 40.78125 C 1.542969 41.953125 0 44.316406 0 47 L 0 49 C 0 49.550781 0.449219 50 1 50 L 13 50 C 13.03125 50 13.0625 50 13.09375 50 L 37 50 C 37.03125 50 37.0625 50 37.09375 50 L 49 50 C 49.550781 50 50 49.550781 50 49 L 50 47 C 50 44.316406 48.457031 41.953125 46.21875 40.78125 C 47.292969 39.863281 48 38.515625 48 37 C 48 34.25 45.75 32 43 32 C 40.25 32 38 34.25 38 37 C 38 38.515625 38.707031 39.863281 39.78125 40.78125 C 38.640625 41.378906 37.664063 42.308594 37 43.40625 C 36.332031 42.292969 35.371094 41.386719 34.21875 40.78125 C 35.292969 39.863281 36 38.515625 36 37 C 36 34.25 33.75 32 31 32 C 28.25 32 26 34.25 26 37 C 26 38.515625 26.707031 39.863281 27.78125 40.78125 C 26.640625 41.378906 25.664063 42.308594 25 43.40625 C 24.332031 42.300781 23.371094 41.382813 22.21875 40.78125 C 23.292969 39.863281 24 38.515625 24 37 C 24 34.59375 22.273438 32.5625 20 32.09375 L 20 23 L 24.28125 21.46875 L 24.3125 21.4375 C 24.320313 21.433594 24.335938 21.441406 24.34375 21.4375 C 25.195313 21.179688 25.894531 20.722656 26.375 20.09375 L 26.40625 20.09375 L 31.40625 13.625 C 31.40625 13.613281 31.40625 13.605469 31.40625 13.59375 C 32.328125 12.367188 32.1875 10.554688 30.90625 9.59375 C 30.292969 9.132813 29.539063 8.953125 28.8125 9.03125 C 28.085938 9.109375 27.386719 9.453125 26.90625 10.09375 L 22.625 15.625 L 16 17 Z M 12 7 C 14.222656 7 16 8.777344 16 11 C 16 13.222656 14.222656 15 12 15 C 9.777344 15 8 13.222656 8 11 C 8 8.777344 9.777344 7 12 7 Z M 29.03125 11.03125 C 29.25 11.003906 29.5 11.046875 29.6875 11.1875 C 30 11.421875 30.066406 12 29.8125 12.375 C 29.804688 12.382813 29.820313 12.398438 29.8125 12.40625 L 24.8125 18.875 C 24.8125 18.886719 24.8125 18.894531 24.8125 18.90625 C 24.703125 19.050781 24.226563 19.386719 23.71875 19.53125 C 23.699219 19.539063 23.675781 19.550781 23.65625 19.5625 L 18.65625 21.34375 C 18.25 21.492188 17.988281 21.882813 18 22.3125 L 18 32.09375 C 15.726563 32.5625 14 34.59375 14 37 C 14 38.515625 14.707031 39.863281 15.78125 40.78125 C 14.640625 41.378906 13.664063 42.308594 13 43.40625 C 12.332031 42.292969 11.371094 41.386719 10.21875 40.78125 C 11.292969 39.863281 12 38.515625 12 37 C 12 34.25 9.75 32 7 32 L 7 21.6875 C 7 20.28125 7.40625 19.773438 7.90625 19.4375 C 8.40625 19.101563 9.140625 19 9.6875 19 L 16 19 C 16.074219 18.996094 16.148438 18.988281 16.21875 18.96875 L 23.40625 17.46875 C 23.636719 17.425781 23.847656 17.304688 24 17.125 L 28.5 11.3125 C 28.621094 11.152344 28.8125 11.058594 29.03125 11.03125 Z M 7 34 C 8.667969 34 10 35.332031 10 37 C 10 38.667969 8.667969 40 7 40 C 5.332031 40 4 38.667969 4 37 C 4 35.648438 4.875 34.503906 6.09375 34.125 C 6.152344 34.105469 6.222656 34.109375 6.28125 34.09375 C 6.324219 34.085938 6.367188 34.074219 6.40625 34.0625 C 6.601563 34.023438 6.792969 34 7 34 Z M 31 34 C 32.667969 34 34 35.332031 34 37 C 34 38.667969 32.667969 40 31 40 C 29.332031 40 28 38.667969 28 37 C 28 35.332031 29.332031 34 31 34 Z M 43 34 C 44.667969 34 46 35.332031 46 37 C 46 38.667969 44.667969 40 43 40 C 41.332031 40 40 38.667969 40 37 C 40 35.332031 41.332031 34 43 34 Z M 18.75 34.03125 C 18.761719 34.03125 18.769531 34.03125 18.78125 34.03125 C 18.914063 34.058594 19.054688 34.058594 19.1875 34.03125 C 19.199219 34.03125 19.207031 34.03125 19.21875 34.03125 C 20.777344 34.148438 22 35.410156 22 37 C 22 38.667969 20.667969 40 19 40 C 17.332031 40 16 38.667969 16 37 C 16 35.417969 17.207031 34.160156 18.75 34.03125 Z M 7 42 C 9.753906 42 12 44.246094 12 47 L 12 48 L 2 48 L 2 47 C 2 44.246094 4.246094 42 7 42 Z M 19 42 C 21.753906 42 24 44.246094 24 47 L 24 48 L 14 48 L 14 47 C 14 44.246094 16.246094 42 19 42 Z M 31 42 C 33.753906 42 36 44.246094 36 47 L 36 48 L 26 48 L 26 47 C 26 44.246094 28.246094 42 31 42 Z M 43 42 C 45.753906 42 48 44.246094 48 47 L 48 48 L 38 48 L 38 47 C 38 44.246094 40.246094 42 43 42 Z"/></svg>