<svg fill="#000000" xmlns="http://www.w3.org/2000/svg" viewBox="0 0 50 50" width="100px" height="100px"><path d="M 20.90625 3 C 20.390625 3.046875 19.996094 3.480469 20 4 L 20 46 C 20 46.550781 20.449219 47 21 47 L 47 47 C 47.550781 47 48 46.550781 48 46 L 48 4 C 48 3.96875 48 3.9375 48 3.90625 C 47.953125 3.390625 47.519531 2.996094 47 3 L 21 3 C 20.96875 3 20.9375 3 20.90625 3 Z M 22 5 L 46 5 L 46 45 L 22 45 Z M 10.8125 7 C 10.335938 7.089844 9.992188 7.511719 10 8 L 10 42 C 10 42.550781 10.449219 43 11 43 L 18 43 L 18 41 L 12 41 L 12 9 L 18 9 L 18 7 L 11 7 C 10.96875 7 10.9375 7 10.90625 7 C 10.875 7 10.84375 7 10.8125 7 Z M 2.8125 11 C 2.335938 11.089844 1.992188 11.511719 2 12 L 2 38 C 2 38.550781 2.449219 39 3 39 L 8 39 L 8 37 L 4 37 L 4 13 L 8 13 L 8 11 L 3 11 C 2.96875 11 2.9375 11 2.90625 11 C 2.875 11 2.84375 11 2.8125 11 Z"/></svg>